<svg width="24" height="20" viewBox="0 0 24 20" fill="none" xmlns="http://www.w3.org/2000/svg">
<path d="M16.332 14.0508L17.8457 15.7598H21.3516C22.7285 15.7598 23.5 14.998 23.5 13.6211V2.71289C23.5 1.3457 22.7285 0.574219 21.3516 0.574219H2.66016C1.3418 0.574219 0.501953 1.3457 0.501953 2.71289V13.6211C0.501953 14.998 1.2832 15.7598 2.66016 15.7598H6.16602L7.66992 14.0508H3.11914C2.5918 14.0508 2.30859 13.748 2.30859 13.2402V3.10352C2.30859 2.57617 2.5918 2.2832 3.11914 2.2832H20.8926C21.4102 2.2832 21.7031 2.57617 21.7031 3.10352V13.2402C21.7031 13.748 21.4102 14.0508 20.8926 14.0508H16.332ZM18.0605 19.3145C18.5391 19.3145 18.7246 18.8164 18.4219 18.4648L12.4355 11.6973C12.2109 11.4336 11.8008 11.4336 11.5664 11.6973L5.58984 18.4648C5.28711 18.8164 5.47266 19.3145 5.94141 19.3145H18.0605Z" fill="white"/>
</svg>
