<svg width="42" height="42" viewBox="0 0 42 42" fill="none" xmlns="http://www.w3.org/2000/svg">
<path d="M6.31445 21.5322C6.31445 29.9368 13.1277 36.75 21.5322 36.75C29.9368 36.75 36.75 29.9368 36.75 21.5322C36.75 20.8857 36.2259 20.3616 35.5794 20.3616C34.9329 20.3616 34.4088 20.8857 34.4088 21.5322C34.4088 28.6438 28.6438 34.4088 21.5322 34.4088C14.4207 34.4088 8.65565 28.6438 8.65565 21.5322C8.65565 14.4207 14.4207 8.65563 21.5322 8.65563C24.7259 8.65563 27.7272 9.82428 30.0459 11.8707L25.9306 11.8719C25.2841 11.8719 24.76 12.396 24.76 13.0425C24.76 13.689 25.2841 14.2131 25.9306 14.2131L32.5525 14.2131C33.199 14.2131 33.7231 13.689 33.7231 13.0425L33.7231 6.4206C33.7231 5.77409 33.199 5.25 32.5525 5.25C31.906 5.25 31.3819 5.77409 31.3819 6.4206L31.3828 9.93143C28.6729 7.62714 25.2089 6.31443 21.5322 6.31443C13.1277 6.31443 6.31445 13.1277 6.31445 21.5322Z" fill="white"/>
<path d="M17.488 28C17.2427 28 17.04 27.9253 16.88 27.776C16.72 27.616 16.64 27.4187 16.64 27.184V18.608L16.848 18.896L15.312 19.808C15.184 19.8933 15.0453 19.936 14.896 19.936C14.6613 19.936 14.464 19.8507 14.304 19.68C14.1547 19.4987 14.08 19.3067 14.08 19.104C14.08 18.816 14.2187 18.5867 14.496 18.416L17.008 16.912C17.168 16.8267 17.3653 16.7893 17.6 16.8C17.824 16.8 18.0053 16.88 18.144 17.04C18.2933 17.1893 18.368 17.3813 18.368 17.616V27.184C18.368 27.4187 18.2827 27.616 18.112 27.776C17.952 27.9253 17.744 28 17.488 28ZM24.5203 28.16C23.6243 28.16 22.8669 27.9147 22.2483 27.424C21.6296 26.9227 21.1603 26.24 20.8403 25.376C20.5309 24.5013 20.3763 23.5093 20.3763 22.4C20.3763 21.28 20.5309 20.288 20.8403 19.424C21.1603 18.5493 21.6296 17.8667 22.2483 17.376C22.8669 16.8853 23.6243 16.64 24.5203 16.64C25.4163 16.64 26.1683 16.8853 26.7763 17.376C27.3949 17.8667 27.8643 18.5493 28.1843 19.424C28.5043 20.288 28.6643 21.28 28.6643 22.4C28.6643 23.5093 28.5043 24.5013 28.1843 25.376C27.8643 26.24 27.3949 26.9227 26.7763 27.424C26.1683 27.9147 25.4163 28.16 24.5203 28.16ZM24.5203 26.544C25.0216 26.544 25.4483 26.384 25.8003 26.064C26.1629 25.744 26.4403 25.2747 26.6323 24.656C26.8349 24.0373 26.9363 23.2853 26.9363 22.4C26.9363 21.504 26.8349 20.7467 26.6323 20.128C26.4403 19.5093 26.1629 19.04 25.8003 18.72C25.4483 18.4 25.0216 18.24 24.5203 18.24C24.0189 18.24 23.5869 18.4 23.2243 18.72C22.8616 19.04 22.5843 19.5093 22.3923 20.128C22.2003 20.7467 22.1043 21.504 22.1043 22.4C22.1043 23.2853 22.2003 24.0373 22.3923 24.656C22.5843 25.2747 22.8616 25.744 23.2243 26.064C23.5869 26.384 24.0189 26.544 24.5203 26.544Z" fill="white"/>
</svg>
