<svg width="24" height="24" viewBox="0 0 24 24" fill="none" xmlns="http://www.w3.org/2000/svg">
<path fill-rule="evenodd" clip-rule="evenodd" d="M11.625 3.25C9.69212 3.25 8.125 4.81712 8.125 6.75V10.25H15.125V6.75C15.125 4.81712 13.5579 3.25 11.625 3.25ZM16.875 10.25V6.75C16.875 3.85112 14.5239 1.5 11.625 1.5C8.72612 1.5 6.375 3.85112 6.375 6.75V10.25C4.92512 10.25 3.75 11.4251 3.75 12.875V19.875C3.75 21.3249 4.92512 22.5 6.375 22.5H16.875C18.3249 22.5 19.5 21.3249 19.5 19.875V12.875C19.5 11.4251 18.3249 10.25 16.875 10.25ZM6.375 12C5.892 12 5.5 12.392 5.5 12.875V19.875C5.5 20.358 5.892 20.75 6.375 20.75H16.875C17.358 20.75 17.75 20.358 17.75 19.875V12.875C17.75 12.392 17.358 12 16.875 12H6.375ZM11.625 14.625C12.108 14.625 12.5 15.017 12.5 15.5V17.25C12.5 17.733 12.108 18.125 11.625 18.125C11.142 18.125 10.75 17.733 10.75 17.25V15.5C10.75 15.017 11.142 14.625 11.625 14.625Z" fill="#A9AAAC"/>
</svg>
