<svg width="24" height="24" viewBox="0 0 24 24" fill="none" xmlns="http://www.w3.org/2000/svg">
<path d="M17.0256 5C18.116 5 19 5.88395 19 6.97436V14.1538C19 15.2443 18.116 16.1282 17.0256 16.1282L16.1277 16.1277L16.1282 17.1282C16.1282 18.1206 15.3559 18.9326 14.3795 18.996L14.2564 19H7.69231C6.25495 19 5.08067 17.8736 5.00398 16.4554L5 16.3077L5 9.74359C5 8.75118 5.77233 7.93915 6.74872 7.87578L6.87179 7.87179L7.87156 7.87156L7.87179 6.97436C7.87179 5.88395 8.75575 5 9.84615 5L17.0256 5ZM7.87156 8.948L6.87179 8.94872C6.46207 8.94872 6.12474 9.25873 6.08159 9.65698L6.07692 9.74359L6.07692 16.3077C6.07692 17.1611 6.73863 17.8599 7.57694 17.919L7.69231 17.9231H14.2564C14.6661 17.9231 15.0035 17.6131 15.0466 17.2148L15.0513 17.1282L15.0512 16.1277L9.84615 16.1282C8.75575 16.1282 7.87179 15.2443 7.87179 14.1538L7.87156 8.948ZM17.0256 6.07692L9.84615 6.07692C9.35051 6.07692 8.94872 6.47872 8.94872 6.97436V14.1538C8.94872 14.6495 9.35051 15.0513 9.84615 15.0513H17.0256C17.5213 15.0513 17.9231 14.6495 17.9231 14.1538V6.97436C17.9231 6.47872 17.5213 6.07692 17.0256 6.07692Z" fill="white"/>
</svg>
