<svg width="32" height="32" viewBox="0 0 32 32" fill="none" xmlns="http://www.w3.org/2000/svg">
<rect width="32" height="32" rx="8" fill="url(#paint0_linear)" fill-opacity="0.5"/>
<path fill-rule="evenodd" clip-rule="evenodd" d="M15.8125 10.375C14.5699 10.375 13.5625 11.3824 13.5625 12.625V14.875H18.0625V12.625C18.0625 11.3824 17.0551 10.375 15.8125 10.375ZM19.1875 14.875V12.625C19.1875 10.7614 17.6761 9.25 15.8125 9.25C13.9489 9.25 12.4375 10.7614 12.4375 12.625V14.875C11.5054 14.875 10.75 15.6304 10.75 16.5625V21.0625C10.75 21.9946 11.5054 22.75 12.4375 22.75H19.1875C20.1196 22.75 20.875 21.9946 20.875 21.0625V16.5625C20.875 15.6304 20.1196 14.875 19.1875 14.875ZM12.4375 16C12.127 16 11.875 16.252 11.875 16.5625V21.0625C11.875 21.373 12.127 21.625 12.4375 21.625H19.1875C19.498 21.625 19.75 21.373 19.75 21.0625V16.5625C19.75 16.252 19.498 16 19.1875 16H12.4375ZM15.8125 17.6875C16.123 17.6875 16.375 17.9395 16.375 18.25V19.375C16.375 19.6855 16.123 19.9375 15.8125 19.9375C15.502 19.9375 15.25 19.6855 15.25 19.375V18.25C15.25 17.9395 15.502 17.6875 15.8125 17.6875Z" fill="white"/>
<defs>
<linearGradient id="paint0_linear" x1="2.37838" y1="1.80213e-07" x2="38.7159" y2="32.5065" gradientUnits="userSpaceOnUse">
<stop stop-color="#4E433F"/>
<stop offset="1" stop-color="#FF6E45"/>
</linearGradient>
</defs>
</svg>
