<svg width="24" height="24" viewBox="0 0 24 24" fill="none" xmlns="http://www.w3.org/2000/svg">
<path fill-rule="evenodd" clip-rule="evenodd" d="M3 8.27423C3 5.91364 4.98856 4 7.44157 4H17.5584C20.0114 4 22 5.91363 22 8.27422V14.7258C22 17.0864 20.0114 19 17.5584 19H3V8.27423ZM7.44157 5.11502C5.62848 5.11502 4.15867 6.52944 4.15867 8.27423V17.885H17.5584C19.3715 17.885 20.8413 16.4706 20.8413 14.7258V8.27422C20.8413 6.52944 19.3715 5.11502 17.5584 5.11502H7.44157Z" fill="white" stroke="white" stroke-width="0.2" stroke-linecap="round"/>
<path d="M15.31 12.69C15.69 12.69 16 13 16 13.38C16 13.73 15.74 14.02 15.4 14.07L15.31 14.08H9.69C9.31 14.08 9 13.77 9 13.38C9 13.03 9.26 12.74 9.6 12.7L9.69 12.69H15.31ZM15.31 9C15.69 9 16 9.31 16 9.69C16 10.07 15.69 10.38 15.31 10.38H9.69C9.31 10.38 9 10.07 9 9.69C9 9.31 9.31 9 9.69 9H15.31Z" fill="white"/>
</svg>
