<svg width="24" height="24" viewBox="0 0 24 24" fill="none" xmlns="http://www.w3.org/2000/svg">
<path d="M13.641 7C14.8577 7 15.8494 7.9562 15.8957 9.15311L18.0308 8.3055C18.7671 8.01302 19.6028 8.36867 19.8973 9.09986C19.9651 9.26829 20 9.44803 20 9.62943V15.3706C20 16.1581 19.3571 16.7965 18.5641 16.7965C18.3814 16.7965 18.2004 16.7619 18.0308 16.6945L15.8942 15.8457L15.8926 15.9066C15.8162 17.0754 14.8374 18 13.641 18H6.25641C5.01023 18 4 16.9968 4 15.7593L4 9.24074C4 8.00321 5.01023 7 6.25641 7L13.641 7ZM13.641 8.22222H6.25641C5.68996 8.22222 5.23077 8.67823 5.23077 9.24074V15.7593C5.23077 16.3218 5.68996 16.7778 6.25641 16.7778H13.641C14.2075 16.7778 14.6667 16.3218 14.6667 15.7593V9.24074C14.6667 8.67823 14.2075 8.22222 13.641 8.22222ZM18.4879 9.4403L15.8974 10.4693V14.5307L18.4879 15.5597C18.5121 15.5693 18.538 15.5743 18.5641 15.5743C18.6774 15.5743 18.7692 15.4831 18.7692 15.3706V9.62943C18.7692 9.60352 18.7643 9.57784 18.7546 9.55378C18.7125 9.44932 18.5931 9.39852 18.4879 9.4403Z" fill="white"/>
</svg>
