<svg width="20" height="19" viewBox="0 0 20 19" fill="none" xmlns="http://www.w3.org/2000/svg">
<path d="M14.668 11.3418V1.52734C14.668 0.794922 14.1309 0.208984 13.3789 0.208984C12.8809 0.208984 12.5293 0.423828 11.9922 0.931641L8.20312 4.4375C8.16406 4.47656 8.11523 4.50586 8.06641 4.50586H7.82227L14.668 11.3418ZM18.0859 18.6465C18.3887 18.9395 18.8867 18.9492 19.1797 18.6465C19.4824 18.334 19.4824 17.8457 19.1797 17.543L2.07031 0.443359C1.76758 0.140625 1.26953 0.130859 0.957031 0.443359C0.664062 0.736328 0.664062 1.24414 0.957031 1.53711L18.0859 18.6465ZM4.87305 13.0996H7.62695C7.71484 13.0996 7.79297 13.1289 7.85156 13.1875L11.9922 17.0352C12.4805 17.5039 12.8906 17.709 13.3887 17.709C13.9551 17.709 14.3848 17.416 14.5801 16.8398L3.20312 5.47266C2.87109 5.84375 2.69531 6.39062 2.69531 7.11328V10.8242C2.69531 12.3477 3.4375 13.0996 4.87305 13.0996Z" fill="white"/>
</svg>
