<svg width="24" height="24" viewBox="0 0 24 24" fill="none" xmlns="http://www.w3.org/2000/svg">
<path d="M8.21967 7.21967C8.51256 6.92678 8.98744 6.92678 9.28033 7.21967C9.57322 7.51256 9.57322 7.98744 9.28033 8.28033L6.56 11H18.75C19.1297 11 19.4435 11.2822 19.4932 11.6482L19.5 11.75C19.5 12.1642 19.1642 12.5 18.75 12.5H6.56L9.28033 15.2197C9.5466 15.4859 9.5708 15.9026 9.35295 16.1962L9.28033 16.2803C8.98744 16.5732 8.51256 16.5732 8.21967 16.2803L4.21967 12.2803L4.15627 12.2083C4.15456 12.2061 4.15285 12.2039 4.15116 12.2016C4.14318 12.1911 4.13569 12.1807 4.1285 12.17C4.11746 12.1537 4.10681 12.1365 4.09686 12.1189C4.0887 12.1046 4.08106 12.09 4.07393 12.0752C4.06544 12.0575 4.05745 12.0391 4.05019 12.0203C4.04603 12.0095 4.0423 11.9991 4.03881 11.9887C4.03158 11.9673 4.02517 11.9448 4.01981 11.922C4.01701 11.9097 4.01458 11.898 4.01242 11.8863C4.0043 11.8427 4 11.7968 4 11.75L4.00398 11.8274C4.00192 11.8075 4.00066 11.7875 4.0002 11.7674L4 11.75C4 11.7442 4.00006 11.7385 4.00019 11.7328C4.00062 11.7132 4.00189 11.6929 4.00398 11.6726C4.00609 11.6519 4.00893 11.6323 4.01251 11.6128C4.01458 11.602 4.01701 11.5903 4.01973 11.5786C4.02517 11.5552 4.03158 11.5327 4.03898 11.5107C4.0423 11.5009 4.04603 11.4905 4.04999 11.4802C4.05745 11.4609 4.06545 11.4425 4.07414 11.4245C4.08106 11.41 4.0887 11.3954 4.09686 11.381C4.10681 11.3635 4.11746 11.3463 4.12876 11.3297C4.15484 11.2911 4.18523 11.2541 4.21967 11.2197L4.15116 11.2984C4.17217 11.2706 4.19507 11.2443 4.21967 11.2197L8.21967 7.21967Z" fill="white"/>
</svg>
