<svg width="42" height="42" viewBox="0 0 42 42" fill="none" xmlns="http://www.w3.org/2000/svg">
<path d="M36.75 21.5322C36.75 29.9368 29.9368 36.75 21.5322 36.75C13.1277 36.75 6.31443 29.9368 6.31443 21.5322C6.31443 20.8857 6.83853 20.3616 7.48503 20.3616C8.13153 20.3616 8.65563 20.8857 8.65563 21.5322C8.65563 28.6438 14.4207 34.4088 21.5322 34.4088C28.6438 34.4088 34.4088 28.6438 34.4088 21.5322C34.4088 14.4207 28.6438 8.65563 21.5322 8.65563C18.3385 8.65563 15.3373 9.82428 13.0186 11.8707L17.1339 11.8719C17.7804 11.8719 18.3045 12.396 18.3045 13.0425C18.3045 13.689 17.7804 14.2131 17.1339 14.2131L10.5119 14.2131C9.86545 14.2131 9.34135 13.689 9.34135 13.0425L9.34135 6.4206C9.34135 5.77409 9.86545 5.25 10.5119 5.25C11.1585 5.25 11.6826 5.77409 11.6826 6.4206L11.6817 9.93143C14.3915 7.62714 17.8556 6.31443 21.5322 6.31443C29.9368 6.31443 36.75 13.1277 36.75 21.5322Z" fill="white"/>
<path d="M17.488 28C17.2427 28 17.04 27.9253 16.88 27.776C16.72 27.616 16.64 27.4187 16.64 27.184V18.608L16.848 18.896L15.312 19.808C15.184 19.8933 15.0453 19.936 14.896 19.936C14.6613 19.936 14.464 19.8507 14.304 19.68C14.1547 19.4987 14.08 19.3067 14.08 19.104C14.08 18.816 14.2187 18.5867 14.496 18.416L17.008 16.912C17.168 16.8267 17.3653 16.7893 17.6 16.8C17.824 16.8 18.0053 16.88 18.144 17.04C18.2933 17.1893 18.368 17.3813 18.368 17.616V27.184C18.368 27.4187 18.2827 27.616 18.112 27.776C17.952 27.9253 17.744 28 17.488 28ZM24.5203 28.16C23.6243 28.16 22.8669 27.9147 22.2483 27.424C21.6296 26.9227 21.1603 26.24 20.8403 25.376C20.5309 24.5013 20.3763 23.5093 20.3763 22.4C20.3763 21.28 20.5309 20.288 20.8403 19.424C21.1603 18.5493 21.6296 17.8667 22.2483 17.376C22.8669 16.8853 23.6243 16.64 24.5203 16.64C25.4163 16.64 26.1683 16.8853 26.7763 17.376C27.3949 17.8667 27.8643 18.5493 28.1843 19.424C28.5043 20.288 28.6643 21.28 28.6643 22.4C28.6643 23.5093 28.5043 24.5013 28.1843 25.376C27.8643 26.24 27.3949 26.9227 26.7763 27.424C26.1683 27.9147 25.4163 28.16 24.5203 28.16ZM24.5203 26.544C25.0216 26.544 25.4483 26.384 25.8003 26.064C26.1629 25.744 26.4403 25.2747 26.6323 24.656C26.8349 24.0373 26.9363 23.2853 26.9363 22.4C26.9363 21.504 26.8349 20.7467 26.6323 20.128C26.4403 19.5093 26.1629 19.04 25.8003 18.72C25.4483 18.4 25.0216 18.24 24.5203 18.24C24.0189 18.24 23.5869 18.4 23.2243 18.72C22.8616 19.04 22.5843 19.5093 22.3923 20.128C22.2003 20.7467 22.1043 21.504 22.1043 22.4C22.1043 23.2853 22.2003 24.0373 22.3923 24.656C22.5843 25.2747 22.8616 25.744 23.2243 26.064C23.5869 26.384 24.0189 26.544 24.5203 26.544Z" fill="white"/>
</svg>
