<svg width="50" height="50" viewBox="0 0 50 50" fill="none" xmlns="http://www.w3.org/2000/svg">
<path d="M28.2427 7L24.7071 10.5355C24.3166 10.9261 24.3166 11.5592 24.7071 11.9497L28.2427 15.4853" stroke="white" stroke-width="2"/>
<path d="M22.2427 7L18.7071 10.5355C18.3166 10.9261 18.3166 11.5592 18.7071 11.9497L22.2427 15.4853" stroke="white" stroke-width="2"/>
<path d="M25.06 11C32.8251 11 39.12 17.2949 39.12 25.06C39.12 32.8251 32.8251 39.12 25.06 39.12C17.2949 39.12 11 32.8251 11 25.06C11 21.2379 12.5251 17.7719 15 15.2376" stroke="white" stroke-width="2" stroke-linecap="round"/>
<path d="M18.973 29.178V28.144H21.129V22.402H21.041L19.259 24.305L18.5 23.623L20.458 21.5H22.35V28.144H24.22V29.178H18.973Z" fill="white"/>
<path d="M30.1887 22.578H26.7787L26.5807 25.295H26.6577C26.7457 25.141 26.8374 25.0053 26.9327 24.888C27.028 24.7633 27.138 24.657 27.2627 24.569C27.3874 24.481 27.5304 24.415 27.6917 24.371C27.853 24.3197 28.0437 24.294 28.2637 24.294C28.5937 24.294 28.898 24.349 29.1767 24.459C29.4627 24.569 29.7084 24.7267 29.9137 24.932C30.1264 25.1373 30.2914 25.3903 30.4087 25.691C30.526 25.9843 30.5847 26.318 30.5847 26.692C30.5847 27.0733 30.5224 27.4253 30.3977 27.748C30.2804 28.0707 30.1044 28.3493 29.8697 28.584C29.635 28.8113 29.3454 28.991 29.0007 29.123C28.6634 29.2477 28.2784 29.31 27.8457 29.31C27.501 29.31 27.1967 29.2697 26.9327 29.189C26.6687 29.1157 26.434 29.0167 26.2287 28.892C26.0307 28.76 25.8547 28.6133 25.7007 28.452C25.554 28.2833 25.422 28.111 25.3047 27.935L26.2067 27.22C26.302 27.374 26.401 27.5133 26.5037 27.638C26.6064 27.7627 26.7237 27.8727 26.8557 27.968C26.9877 28.0633 27.1344 28.1367 27.2957 28.188C27.4644 28.2393 27.655 28.265 27.8677 28.265C28.3224 28.265 28.6707 28.1403 28.9127 27.891C29.162 27.6417 29.2867 27.297 29.2867 26.857V26.725C29.2867 26.285 29.162 25.9403 28.9127 25.691C28.6707 25.4417 28.3224 25.317 27.8677 25.317C27.5377 25.317 27.2737 25.3793 27.0757 25.504C26.8777 25.6287 26.709 25.768 26.5697 25.922L25.5467 25.779L25.8327 21.5H30.1887V22.578Z" fill="white"/>
</svg>
