<svg width="23" height="21" viewBox="0 0 23 21" fill="none" xmlns="http://www.w3.org/2000/svg">
<path d="M7.04102 20.8477C7.59766 20.8477 8.00781 20.5742 8.68164 19.9785L12.0312 17.0293H17.9102C20.8496 17.0293 22.5 15.3301 22.5 12.4297V4.8418C22.5 1.94141 20.8496 0.242188 17.9102 0.242188H5.45898C2.5293 0.242188 0.869141 1.94141 0.869141 4.8418V12.4297C0.869141 15.3398 2.57812 17.0293 5.39062 17.0293H5.79102V19.4219C5.79102 20.291 6.25 20.8477 7.04102 20.8477ZM7.5293 18.6602V15.877C7.5293 15.3008 7.27539 15.0762 6.72852 15.0762H5.52734C3.69141 15.0762 2.8125 14.1484 2.8125 12.3711V4.90039C2.8125 3.12305 3.69141 2.19531 5.52734 2.19531H17.8516C19.6777 2.19531 20.5566 3.12305 20.5566 4.90039V12.3711C20.5566 14.1484 19.6777 15.0762 17.8516 15.0762H11.9238C11.3281 15.0762 11.0352 15.1738 10.625 15.6035L7.5293 18.6602ZM5.60547 9.79297H9.35547C9.70703 9.79297 9.98047 9.5 9.98047 9.14844C9.98047 8.80664 9.70703 8.51367 9.35547 8.51367H5.60547C5.26367 8.51367 4.99023 8.80664 4.99023 9.14844C4.99023 9.5 5.26367 9.79297 5.60547 9.79297ZM11.4062 9.79297H17.7734C18.125 9.79297 18.3984 9.5 18.3984 9.14844C18.3984 8.80664 18.125 8.51367 17.7734 8.51367H11.4062C11.0547 8.51367 10.7812 8.80664 10.7812 9.14844C10.7812 9.5 11.0645 9.79297 11.4062 9.79297ZM5.60547 12.3613H7.19727C7.54883 12.3613 7.83203 12.0684 7.83203 11.7266C7.83203 11.3652 7.54883 11.082 7.19727 11.082H5.60547C5.26367 11.082 4.99023 11.375 4.99023 11.7266C4.99023 12.0684 5.26367 12.3613 5.60547 12.3613ZM9.24805 12.3613H13.916C14.2676 12.3613 14.5508 12.0684 14.5508 11.7266C14.5508 11.3652 14.2676 11.082 13.916 11.082H9.24805C8.90625 11.082 8.62305 11.375 8.62305 11.7266C8.62305 12.0684 8.90625 12.3613 9.24805 12.3613ZM15.9668 12.3613H17.7734C18.1152 12.3613 18.3984 12.0684 18.3984 11.7266C18.3984 11.3652 18.1152 11.082 17.7734 11.082H15.9668C15.625 11.082 15.3418 11.375 15.3418 11.7266C15.3418 12.0684 15.625 12.3613 15.9668 12.3613Z" fill="white"/>
</svg>
