<svg width="24" height="24" viewBox="0 0 24 24" fill="none" xmlns="http://www.w3.org/2000/svg">
<path d="M12.6567 5L7.63783 8.83993L4 9.15993V14.4146L7.63783 14.7346L12.6567 18.5745V5Z" fill="white"/>
<path d="M15.7554 7.3916L14.627 8.41895C15.4354 9.31157 15.9238 10.4905 15.9238 11.7873C15.9238 13.0841 15.4354 14.2799 14.627 15.1557L15.7554 16.183C16.8164 15.0209 17.4564 13.4715 17.4564 11.7873C17.4564 10.1031 16.8164 8.55369 15.7554 7.3916Z" fill="white"/>
<path d="M17.6421 5.67383L16.5137 6.70118C17.7263 8.04852 18.4842 9.83376 18.4842 11.7874C18.4842 13.7411 17.7431 15.5263 16.5137 16.8736L17.6421 17.901C19.1073 16.2842 19.9999 14.1453 19.9999 11.7874C19.9999 9.42955 19.1073 7.29064 17.6421 5.67383Z" fill="white"/>
</svg>
