<svg width="120" height="78" viewBox="0 0 120 78" fill="none" xmlns="http://www.w3.org/2000/svg">
<path d="M113.365 0H6.63529C4.8755 0 3.18779 0.699073 1.94343 1.94343C0.699073 3.18779 0 4.87551 0 6.6353V15.8824H120V6.6353C120 4.87551 119.301 3.18779 118.057 1.94343C116.812 0.699073 115.124 0 113.365 0Z" fill="#9BADBE" fill-opacity="0.5"/>
<path d="M0 71.0119C0 72.7717 0.699073 74.4594 1.94343 75.7038C3.18779 76.9481 4.8755 77.6472 6.63529 77.6472H113.365C115.124 77.6472 116.812 76.9481 118.057 75.7038C119.301 74.4594 120 72.7717 120 71.0119V26.4707H0V71.0119ZM21.1765 51.1766H35.2941C36.6982 51.1766 38.0448 51.7344 39.0376 52.7272C40.0305 53.72 40.5882 55.0666 40.5882 56.4707C40.5882 57.8748 40.0305 59.2214 39.0376 60.2142C38.0448 61.2071 36.6982 61.7648 35.2941 61.7648H21.1765C19.7724 61.7648 18.4258 61.2071 17.433 60.2142C16.4401 59.2214 15.8824 57.8748 15.8824 56.4707C15.8824 55.0666 16.4401 53.72 17.433 52.7272C18.4258 51.7344 19.7724 51.1766 21.1765 51.1766Z" fill="#9BADBE" fill-opacity="0.5"/>
</svg>
