<svg width="24" height="24" viewBox="0 0 24 24" fill="none" xmlns="http://www.w3.org/2000/svg">
<path d="M12 3C16.9706 3 21 7.02944 21 12C21 16.9706 16.9706 21 12 21C7.02944 21 3 16.9706 3 12C3 7.02944 7.02944 3 12 3ZM12 8.07692C10.626 8.07692 9.46154 9.20236 9.46154 10.7694C9.46154 11.6813 9.75685 12.2753 10.3851 12.8688C10.6109 13.0559 10.7866 13.2719 10.9123 13.5103C11.1638 13.9869 11.1924 14.4792 11.095 14.9291C11.0751 15.0212 11.0532 15.0945 11.0531 15.0864C10.8351 15.896 10.2713 16.2434 9.03409 16.666L8.62289 16.8049C8.46309 16.8591 8.33831 16.9028 8.219 16.9468C7.63244 17.1633 7.21149 17.3845 6.9068 17.6602C8.25635 18.8763 10.0419 19.6154 12 19.6154C13.9577 19.6154 15.7428 18.8767 17.0919 17.6629C16.7903 17.3937 16.3718 17.1805 15.7783 16.9668C15.675 16.9296 15.5668 16.8923 15.4296 16.8462L15.0738 16.727C13.7858 16.2925 13.2059 15.9412 12.9564 15.1187C12.9407 15.0698 12.9225 15.0001 12.9058 14.9123C12.8282 14.5029 12.8458 14.0592 13.0331 13.6225C13.1549 13.3384 13.3421 13.0835 13.5764 12.8883C14.2362 12.2922 14.5385 11.6821 14.5385 10.7694C14.5385 9.22952 13.3567 8.07692 12 8.07692ZM12 4.38462C7.79414 4.38462 4.38462 7.79414 4.38462 12C4.38462 13.7478 4.9734 15.358 5.96343 16.6432C6.41582 16.2278 6.99291 15.9234 7.73956 15.6479C7.87214 15.5989 8.0076 15.5515 8.178 15.4937L8.58653 15.3557C9.38398 15.0833 9.66695 14.909 9.73528 14.6663C9.73294 14.6726 9.73636 14.6612 9.74178 14.6362C9.77614 14.4774 9.7661 14.305 9.68765 14.1563C9.64712 14.0794 9.58754 14.0061 9.46886 13.906C8.54654 13.0375 8.07692 12.0928 8.07692 10.7694C8.07692 8.42689 9.8717 6.69231 12 6.69231C14.1138 6.69231 15.9231 8.45697 15.9231 10.7694C15.9231 12.0967 15.4409 13.0698 14.4845 13.9332C14.3995 14.0043 14.3428 14.0815 14.3056 14.1682C14.2425 14.3153 14.2355 14.4925 14.2662 14.6545C14.2716 14.6829 14.2754 14.6975 14.2779 14.7054C14.3488 14.9392 14.654 15.1241 15.5164 15.4151L15.8711 15.5338C16.0167 15.5828 16.1334 15.6231 16.2472 15.664C17.0068 15.9374 17.5841 16.2337 18.0358 16.6432C19.0263 15.3589 19.6154 13.7482 19.6154 12C19.6154 7.79414 16.2059 4.38462 12 4.38462Z" fill="url(#paint0_linear)"/>
<defs>
<linearGradient id="paint0_linear" x1="12" y1="3" x2="12" y2="21" gradientUnits="userSpaceOnUse">
<stop stop-color="#FF6D2E"/>
<stop offset="1" stop-color="#DB441C"/>
</linearGradient>
</defs>
</svg>
