<svg width="30" height="30" viewBox="0 0 30 30" fill="none" xmlns="http://www.w3.org/2000/svg">
<path d="M14.6875 7.5C15.2053 7.5 15.625 7.91973 15.625 8.4375V13.75H20.9375C21.4121 13.75 21.8044 14.1027 21.8664 14.5603L21.875 14.6875C21.875 15.2053 21.4553 15.625 20.9375 15.625H15.6237L15.625 20.9375C15.625 21.4121 15.2723 21.8044 14.8147 21.8664L14.6875 21.875C14.1697 21.875 13.75 21.4553 13.75 20.9375L13.7487 15.625H8.4375C7.96288 15.625 7.57064 15.2723 7.50856 14.8147L7.5 14.6875C7.5 14.1697 7.91973 13.75 8.4375 13.75H13.75V8.4375C13.75 7.96288 14.1027 7.57064 14.5603 7.50856L14.6875 7.5Z" fill="white"/>
</svg>
