<svg width="13" height="13" viewBox="0 0 13 13" fill="none" xmlns="http://www.w3.org/2000/svg">
<path fill-rule="evenodd" clip-rule="evenodd" d="M6.5 0C10.0899 0 13 2.91015 13 6.5C13 10.0899 10.0899 13 6.5 13C2.91015 13 0 10.0899 0 6.5C0 2.91015 2.91015 0 6.5 0ZM6.5 1.3C3.62812 1.3 1.3 3.62812 1.3 6.5C1.3 9.37188 3.62812 11.7 6.5 11.7C9.37188 11.7 11.7 9.37188 11.7 6.5C11.7 3.62812 9.37188 1.3 6.5 1.3ZM6.5 9.1C6.85898 9.1 7.15 9.39102 7.15 9.75C7.15 10.109 6.85898 10.4 6.5 10.4C6.14101 10.4 5.85 10.109 5.85 9.75C5.85 9.39102 6.14101 9.1 6.5 9.1ZM6.5 2.6C6.85898 2.6 7.15 2.89101 7.15 3.25V7.15C7.15 7.50898 6.85898 7.8 6.5 7.8C6.14101 7.8 5.85 7.50898 5.85 7.15V3.25C5.85 2.89101 6.14101 2.6 6.5 2.6Z" fill="white"/>
</svg>
