<svg width="27" height="17" viewBox="0 0 27 17" fill="none" xmlns="http://www.w3.org/2000/svg">
<path d="M19.2992 15.9659C18.8111 16.4541 18.0196 16.4541 17.5315 15.9659C17.0433 15.4778 17.0433 14.6863 17.5315 14.1981L22.0654 9.66536L1.7487 9.66536C1.11587 9.66536 0.592883 9.19511 0.510112 8.58498L0.4987 8.41536C0.4987 7.72501 1.05834 7.16536 1.7487 7.16536L22.0654 7.16536L17.5315 2.63258C17.0877 2.1888 17.0474 1.49437 17.4105 1.00501L17.5315 0.864814C18.0196 0.376659 18.8111 0.376659 19.2992 0.864814L25.9659 7.53148L26.0716 7.65153C26.0744 7.65522 26.0773 7.65894 26.0801 7.66267C26.0934 7.68015 26.1059 7.6976 26.1179 7.71528C26.1363 7.7426 26.154 7.77119 26.1706 7.80051C26.1842 7.82433 26.1969 7.84871 26.2088 7.87341C26.223 7.90284 26.2363 7.93354 26.2484 7.96485C26.2553 7.98294 26.2615 8.00021 26.2673 8.01759C26.2794 8.05323 26.2901 8.09065 26.299 8.12875C26.3037 8.14915 26.3077 8.16864 26.3113 8.1882C26.3249 8.26089 26.332 8.33729 26.332 8.41537L26.3254 8.28636C26.3288 8.31958 26.3309 8.35292 26.3317 8.38628L26.332 8.41537C26.332 8.42495 26.3319 8.43452 26.3317 8.44405C26.331 8.4767 26.3289 8.51059 26.3254 8.54437C26.3219 8.57882 26.3172 8.61161 26.3112 8.64396C26.3077 8.66209 26.3037 8.68157 26.2991 8.70098C26.2901 8.74008 26.2794 8.7775 26.2671 8.81417C26.2615 8.83052 26.2553 8.84779 26.2487 8.86495C26.2363 8.89719 26.223 8.92789 26.2085 8.95792C26.1969 8.98202 26.1842 9.00641 26.1706 9.03044C26.154 9.05955 26.1363 9.08813 26.1174 9.11591C26.074 9.18025 26.0233 9.24185 25.9659 9.29925L26.0801 9.16806C26.0451 9.21441 26.0069 9.25825 25.9659 9.29925L19.2992 15.9659Z" fill="white"/>
</svg>
