<svg width="25" height="25" viewBox="0 0 25 25" fill="none" xmlns="http://www.w3.org/2000/svg">
<path d="M20.06 7H4.94C4.6907 7 4.4516 7.09904 4.27532 7.27532C4.09904 7.4516 4 7.6907 4 7.94V9.25H21V7.94C21 7.6907 20.901 7.4516 20.7247 7.27532C20.5484 7.09904 20.3093 7 20.06 7Z" fill="white"/>
<path d="M4 17.06C4 17.3093 4.09904 17.5484 4.27532 17.7247C4.4516 17.901 4.6907 18 4.94 18H20.06C20.3093 18 20.5484 17.901 20.7247 17.7247C20.901 17.5484 21 17.3093 21 17.06V10.75H4V17.06ZM7 14.25H9C9.19891 14.25 9.38968 14.329 9.53033 14.4697C9.67098 14.6103 9.75 14.8011 9.75 15C9.75 15.1989 9.67098 15.3897 9.53033 15.5303C9.38968 15.671 9.19891 15.75 9 15.75H7C6.80109 15.75 6.61032 15.671 6.46967 15.5303C6.32902 15.3897 6.25 15.1989 6.25 15C6.25 14.8011 6.32902 14.6103 6.46967 14.4697C6.61032 14.329 6.80109 14.25 7 14.25Z" fill="white"/>
</svg>
