<svg width="100" height="100" viewBox="0 0 100 100" fill="none" xmlns="http://www.w3.org/2000/svg">
<path d="M27.2737 50C27.2737 37.4506 37.4547 27.2707 50.0054 27.2707C54.5145 27.2707 58.7163 28.5871 62.249 30.8469C62.8524 31.2308 63.6423 30.792 63.6423 30.079V0.910487C63.6423 0.40588 63.2364 0 62.7317 0H32.1228C14.5036 0 0.0109777 14.1839 6.78962e-06 31.8012C-0.0109641 48.7714 13.2748 62.6481 30.0055 63.5805C30.7405 63.6244 31.2123 62.8126 30.8173 62.1874C28.5792 58.6661 27.2737 54.4866 27.2737 50Z" fill="#686EFF"/>
<path d="M69.1941 37.8128C71.4432 41.3341 72.7377 45.5136 72.7377 50.0002C72.7377 62.5496 62.5567 72.7295 50.006 72.7295C45.4969 72.7295 41.2951 71.4131 37.7624 69.1533C37.159 68.7694 36.3691 69.2082 36.3691 69.9212V99.2762C36.3691 99.6821 36.6983 100 37.0932 100H67.8776C85.4969 100 99.9895 85.8163 100 68.199C100.011 51.2288 86.7256 37.3521 69.995 36.4197C69.2709 36.3758 68.7992 37.1876 69.1941 37.8128Z" fill="#686EFF"/>
</svg>
