<svg width="100" height="101" viewBox="0 0 100 101" fill="none" xmlns="http://www.w3.org/2000/svg">
<path d="M27.7645 50.1908C27.7645 37.6464 37.8621 27.4705 50.3099 27.4705C54.782 27.4705 58.9494 28.7863 62.4531 31.0452C63.0516 31.429 63.835 30.9904 63.835 30.2776V1.12058C63.835 0.616169 63.4324 0.210449 62.9319 0.210449H32.5739C15.099 0.210449 0.725243 14.3887 0.714362 31.9992C0.703481 48.9627 13.8804 62.8339 30.4739 63.766C31.2029 63.8098 31.6708 62.9984 31.2791 62.3733C29.0593 58.8535 27.7645 54.6756 27.7645 50.1908Z" fill="#686EFF"/>
<path d="M69.3411 38.0081C71.5717 41.528 72.8556 45.7058 72.8556 50.1906C72.8556 62.7351 62.7581 72.911 50.3102 72.911C45.8381 72.911 41.6707 71.5951 38.167 69.3362C37.5686 68.9525 36.7852 69.3911 36.7852 70.1038V99.4473C36.7852 99.853 37.1116 100.171 37.5033 100.171H68.0354C85.5102 100.171 99.884 85.9927 99.8949 68.3823C99.9058 51.4188 86.7289 37.5475 70.1354 36.6155C69.4172 36.5716 68.9494 37.3831 69.3411 38.0081Z" fill="#686EFF"/>
</svg>
