<svg width="398" height="75" viewBox="0 0 398 75" fill="none" xmlns="http://www.w3.org/2000/svg">
<path d="M180.957 13.1848H191.459L193.123 21.0758H193.562C195.785 16.9767 200.338 11.8496 211.053 13.1848V25.1081C197.675 23.0119 193.123 30.3288 193.123 41.0905V63.1748H180.957V13.1848Z" fill="white"/>
<path d="M311.886 13.1875V42.4285C311.886 53.1902 305.576 64.0454 290.521 64.0454H290.428C275.28 64.0454 269.05 53.1902 269.05 42.4285V13.1875H281.217V41.347C281.217 47.6892 283.906 52.0419 290.521 52.0419C297.044 52.0419 299.719 47.7025 299.719 41.347V13.1875H311.886Z" fill="white"/>
<path d="M321.016 13.1605H331.532L333.196 21.0649H333.622C336.111 15.8176 341.822 12.3594 347.625 12.3594C355.545 12.3594 360.99 15.7374 363.159 21.8927H363.559C365.835 16.7388 371.772 12.3594 379.679 12.3594C390.461 12.3594 397.396 20.197 397.396 30.8252V63.1772H385.323V34.4971C385.323 27.4472 381.662 22.7873 375.818 22.7873C369.283 22.7873 365.236 27.4472 365.236 34.4971V63.1772H353.163V34.4971C353.163 27.4472 349.502 22.7873 343.659 22.7873C337.229 22.7873 333.169 27.4472 333.169 34.4971V63.1772H321.003V13.1605H321.016Z" fill="white"/>
<path d="M259.918 13.1875V42.4285C259.918 53.1902 253.608 64.0454 238.553 64.0454H238.46C223.312 64.0454 217.083 53.1902 217.083 42.4285V13.1875H229.249V41.347C229.249 47.6892 231.938 52.0419 238.553 52.0419C245.076 52.0419 247.751 47.7025 247.751 41.347V13.1875H259.918Z" fill="white"/>
<path d="M171.825 24.1495V13.1875H159.645V0.957031L148.131 2.61268V13.1741H140.091V24.1362H148.131V48.023C148.131 57.8901 153.429 66.7959 171.825 62.323V51.0806C162.587 53.7243 159.645 51.0005 159.645 44.3912V24.1495H171.825Z" fill="white"/>
<path d="M105.682 47.4896C106.999 51.7489 109.103 53.8051 115.252 53.8051C119.925 53.8051 122.161 51.5353 122.161 48.9717C122.161 46.7953 120.564 44.8459 116.53 44.0581C116.53 44.0581 111.432 42.8965 109.622 42.4826C99.5984 40.1193 94.9661 35.0455 94.9661 28.2226C94.9661 19.5304 103.246 12.3203 114.507 12.3203C129.375 12.3203 133.888 21.4665 134.514 27.2078L122.534 28.5965C121.961 25.4454 120.563 22.2943 114.627 22.2943C110.913 22.2943 107.931 24.3639 107.931 27.1277C107.931 29.491 109.848 31.3069 112.71 31.8009C112.71 31.8009 118.301 33.1228 120.151 33.5501C130.321 35.8466 135.658 40.7602 135.658 47.8768C135.658 55.7812 129.069 63.8725 115.372 63.8725C99.6383 63.8859 94.021 54.7664 93.3555 48.3041L105.682 47.4896Z" fill="white"/>
<path d="M20.1825 38C20.1825 28.7135 27.7165 21.1803 37.004 21.1803C40.3407 21.1803 43.4501 22.1545 46.0642 23.8267C46.5108 24.1108 47.0953 23.7861 47.0953 23.2584V1.67376C47.0953 1.30035 46.7949 1 46.4215 1H23.7709C10.7326 1 0.0081235 11.4961 5.02432e-06 24.5329C-0.00811345 37.0908 9.82336 47.3596 22.204 48.0496C22.748 48.0821 23.0971 47.4813 22.8048 47.0186C21.1486 44.4129 20.1825 41.3201 20.1825 38Z" fill="#686EFF"/>
<path d="M51.2031 28.9814C52.8674 31.5872 53.8253 34.68 53.8253 38.0001C53.8253 47.2866 46.2914 54.8197 37.0039 54.8197C33.6672 54.8197 30.5578 53.8456 27.9436 52.1734C27.4971 51.8893 26.9126 52.214 26.9126 52.7416V74.4643C26.9126 74.7647 27.1562 75.0001 27.4484 75.0001H50.2289C63.2671 75.0001 73.9916 64.504 73.9998 51.4672C74.0079 38.9092 64.1764 28.6405 51.7957 27.9505C51.2599 27.918 50.9108 28.5187 51.2031 28.9814Z" fill="#686EFF"/>
</svg>
