<svg width="21" height="22" viewBox="0 0 21 22" fill="none" xmlns="http://www.w3.org/2000/svg">
<rect x="0.744531" y="1.29336" width="12.0504" height="12.0504" rx="1.4" fill="#181B1C" stroke="#ECECEC" stroke-width="1.2"/>
<path d="M6.74939 5.22951L4.76182 9.99966C4.72649 10.0939 4.67349 10.1675 4.60282 10.2205C4.53215 10.2735 4.45265 10.3 4.36431 10.3C4.23475 10.3 4.13758 10.2647 4.0728 10.194C4.00802 10.1174 3.97269 10.0232 3.9668 9.91132C3.9668 9.8701 3.97563 9.82299 3.9933 9.76999L6.23704 4.34615C6.27826 4.24603 6.33715 4.16948 6.41371 4.11647C6.49616 4.06347 6.58449 4.03992 6.67872 4.04581C6.76705 4.04581 6.8495 4.07231 6.92606 4.12531C7.00262 4.17831 7.05856 4.25192 7.0939 4.34615L9.31113 9.69049C9.33469 9.74938 9.34647 9.80827 9.34647 9.86716C9.34647 9.99672 9.3023 10.1027 9.21396 10.1852C9.13152 10.2617 9.03729 10.3 8.93129 10.3C8.84295 10.3 8.7605 10.2735 8.68395 10.2205C8.61328 10.1616 8.56028 10.088 8.52494 9.99966L6.51971 5.25601L6.74939 5.22951ZM5.11517 8.74529L5.51268 7.89726H8.01259L8.16276 8.74529H5.11517Z" fill="#ECECEC"/>
<rect x="8.10586" y="8.65518" width="12.0504" height="12.0504" rx="1.4" fill="#181B1C" stroke="#ECECEC" stroke-width="1.2"/>
<path d="M14.3514 17.453C13.4314 17.453 12.6881 17.3297 12.1214 17.083C11.5548 16.8297 11.1381 16.4863 10.8714 16.053C10.6114 15.6197 10.4814 15.1363 10.4814 14.603C10.4814 14.123 10.5648 13.713 10.7314 13.373C10.8981 13.033 11.1214 12.7763 11.4014 12.603C11.6881 12.423 12.0114 12.333 12.3714 12.333C12.7714 12.333 13.0914 12.4463 13.3314 12.673C13.5714 12.8997 13.6914 13.2097 13.6914 13.603C13.6914 14.0097 13.5648 14.343 13.3114 14.603C13.0581 14.8563 12.6681 14.983 12.1414 14.983C11.9748 14.983 11.8181 14.963 11.6714 14.923C11.5314 14.8763 11.3981 14.823 11.2714 14.763C11.2914 15.0897 11.3981 15.3997 11.5914 15.693C11.7914 15.9797 12.1114 16.213 12.5514 16.393C12.9914 16.573 13.5914 16.663 14.3514 16.663C15.1448 16.663 15.7481 16.5697 16.1614 16.383C16.5814 16.1963 16.7914 15.943 16.7914 15.623C16.7914 15.503 16.7514 15.393 16.6714 15.293C16.5048 15.3663 16.3348 15.4197 16.1614 15.453C15.9948 15.4797 15.8148 15.493 15.6214 15.493H13.1514V14.753H15.6514C15.3781 14.6463 15.1548 14.493 14.9814 14.293C14.8081 14.0863 14.7214 13.8397 14.7214 13.553C14.7214 13.1663 14.8648 12.8663 15.1514 12.653C15.4381 12.4397 15.7848 12.333 16.1914 12.333C16.5648 12.333 16.8681 12.3997 17.1014 12.533C17.3348 12.6663 17.5048 12.8397 17.6114 13.053C17.7248 13.2663 17.7814 13.493 17.7814 13.733C17.7814 13.9663 17.7348 14.1797 17.6414 14.373C17.5548 14.5663 17.4381 14.7363 17.2914 14.883C17.3914 14.9763 17.4714 15.0863 17.5314 15.213C17.5914 15.3397 17.6214 15.483 17.6214 15.643C17.6214 15.843 17.5781 16.0497 17.4914 16.263C17.4048 16.4763 17.2448 16.673 17.0114 16.853C16.7848 17.033 16.4548 17.1797 16.0214 17.293C15.5948 17.3997 15.0381 17.453 14.3514 17.453ZM12.3214 13.043C12.0681 13.043 11.8514 13.1297 11.6714 13.303C11.4914 13.4763 11.3714 13.723 11.3114 14.043C11.4048 14.1097 11.5148 14.1663 11.6414 14.213C11.7748 14.2597 11.9248 14.283 12.0914 14.283C12.3581 14.283 12.5581 14.2263 12.6914 14.113C12.8314 13.9997 12.9014 13.843 12.9014 13.643C12.9014 13.4497 12.8481 13.303 12.7414 13.203C12.6348 13.0963 12.4948 13.043 12.3214 13.043ZM16.5714 14.483C16.5848 14.4897 16.5981 14.493 16.6114 14.493C16.7114 14.4063 16.7914 14.303 16.8514 14.183C16.9181 14.063 16.9514 13.923 16.9514 13.763C16.9514 13.5697 16.8914 13.403 16.7714 13.263C16.6581 13.123 16.4748 13.053 16.2214 13.053C16.0014 13.053 15.8281 13.103 15.7014 13.203C15.5814 13.303 15.5214 13.4363 15.5214 13.603C15.5214 13.8297 15.6248 14.0097 15.8314 14.143C16.0381 14.2763 16.2848 14.3897 16.5714 14.483Z" fill="#ECECEC"/>
</svg>
