<svg width="24" height="25" viewBox="0 0 24 25" fill="none" xmlns="http://www.w3.org/2000/svg">
<rect y="0.496094" width="24" height="24" rx="4" fill="url(#paint0_linear)"/>
<path d="M10.4913 14.1679C12.022 12.3193 13.5333 10.4612 15.0579 8.60816C15.1775 8.46221 15.2327 8.45985 15.3678 8.59506C15.8811 9.10916 16.3939 9.62378 16.9064 10.1384C17.0295 10.2618 17.0316 10.3451 16.9102 10.4691C15.0492 12.3596 13.2089 14.2738 11.3364 16.1517C10.8201 16.6318 10.0765 16.6053 9.58208 16.1014C8.73265 15.2359 7.88397 14.3697 7.03428 13.5044C6.72408 13.1884 6.41133 12.875 6.10087 12.559C5.96702 12.4228 5.96651 12.3552 6.09858 12.2218C6.57648 11.7391 7.05515 11.2573 7.53407 10.7754C7.65011 10.6588 7.72467 10.6664 7.82799 10.7979C8.72018 11.9186 9.58615 13.0592 10.4913 14.1679Z" fill="white"/>
<defs>
<linearGradient id="paint0_linear" x1="11.4402" y1="-20.241" x2="11.4402" y2="24.4961" gradientUnits="userSpaceOnUse">
<stop stop-color="#B61A09"/>
<stop offset="1" stop-color="#FF6D2E"/>
</linearGradient>
</defs>
</svg>
