<svg width="25" height="25" viewBox="0 0 25 25" fill="none" xmlns="http://www.w3.org/2000/svg">
<path d="M13.9102 12.4999L21.7102 4.70994C21.8985 4.52164 22.0043 4.26624 22.0043 3.99994C22.0043 3.73364 21.8985 3.47825 21.7102 3.28994C21.5219 3.10164 21.2665 2.99585 21.0002 2.99585C20.7339 2.99585 20.4785 3.10164 20.2902 3.28994L12.5002 11.0899L4.71019 3.28994C4.61695 3.1967 4.50626 3.12274 4.38443 3.07228C4.26261 3.02182 4.13204 2.99585 4.00019 2.99585C3.86833 2.99585 3.73776 3.02182 3.61594 3.07228C3.49411 3.12274 3.38342 3.1967 3.29019 3.28994C3.10188 3.47825 2.99609 3.73364 2.99609 3.99994C2.99609 4.26624 3.10188 4.52164 3.29019 4.70994L11.0902 12.4999L3.29019 20.2899C3.10188 20.4782 2.99609 20.7336 2.99609 20.9999C2.99609 21.2662 3.10188 21.5216 3.29019 21.7099C3.47849 21.8982 3.73388 22.004 4.00019 22.004C4.26649 22.004 4.52188 21.8982 4.71019 21.7099L12.5002 13.9099L20.2902 21.7099C20.4785 21.8982 20.7339 22.004 21.0002 22.004C21.2665 22.004 21.5219 21.8982 21.7102 21.7099C21.8985 21.5216 22.0043 21.2662 22.0043 20.9999C22.0043 20.7336 21.8985 20.4782 21.7102 20.2899L13.9102 12.4999Z" fill="white"/>
</svg>
