<svg width="24" height="24" viewBox="0 0 24 24" fill="none" xmlns="http://www.w3.org/2000/svg">
<path d="M7.21967 7.21967C7.51256 6.92678 7.98744 6.92678 8.28033 7.21967L12.285 11.224L16.2907 7.21967C16.557 6.9534 16.9737 6.9292 17.2673 7.14705L17.3514 7.21967C17.6443 7.51256 17.6443 7.98744 17.3514 8.28033L13.346 12.285L17.3514 16.2907C17.6177 16.557 17.6419 16.9737 17.424 17.2673L17.3514 17.3514C17.0585 17.6443 16.5836 17.6443 16.2907 17.3514L12.285 13.346L8.28033 17.3514C8.01406 17.6177 7.5974 17.6419 7.30379 17.424L7.21967 17.3514C6.92678 17.0585 6.92678 16.5836 7.21967 16.2907L11.224 12.285L7.21967 8.28033C6.9534 8.01406 6.9292 7.5974 7.14705 7.30379L7.21967 7.21967Z" fill="#ECECEC"/>
</svg>
