<svg width="99" height="99" viewBox="0 0 99 99" fill="none" xmlns="http://www.w3.org/2000/svg">
<path d="M27.001 49.5C27.001 37.0761 37.0802 26.998 49.5054 26.998C53.9693 26.998 58.1292 28.3012 61.6265 30.5384C62.2239 30.9185 63.0059 30.4841 63.0059 29.7782V0.901382C63.0059 0.401821 62.604 0 62.1044 0H31.8016C14.3585 0 0.0108679 14.042 6.72173e-06 31.4832C-0.0108545 48.2837 13.1421 62.0216 29.7054 62.9447C30.4331 62.9881 30.9001 62.1845 30.5091 61.5655C28.2934 58.0794 27.001 53.9417 27.001 49.5Z" fill="#9BADBE" fill-opacity="0.5"/>
<path d="M68.5014 37.4345C70.7279 40.9206 72.0096 45.0583 72.0096 49.5C72.0096 61.9239 61.9304 72.002 49.5051 72.002C45.0412 72.002 40.8813 70.6988 37.384 68.4616C36.7867 68.0815 36.0047 68.5159 36.0047 69.2218V98.2832C36.0047 98.6851 36.3305 99 36.7215 99H67.198C84.6411 99 98.9888 84.958 98.9996 67.5168C99.0105 50.7163 85.8576 36.9784 69.2943 36.0553C68.5774 36.0119 68.1104 36.8155 68.5014 37.4345Z" fill="#9BADBE" fill-opacity="0.5"/>
</svg>
