<svg width="50" height="50" viewBox="0 0 50 50" fill="none" xmlns="http://www.w3.org/2000/svg">
<path d="M13.6368 25C13.6368 18.7253 18.7274 13.6354 25.0027 13.6354C27.2572 13.6354 29.3582 14.2935 31.1245 15.4234C31.4262 15.6154 31.8211 15.396 31.8211 15.0395V0.455243C31.8211 0.20294 31.6182 0 31.3658 0H16.0614C7.25178 0 0.00548885 7.09193 3.39481e-06 15.9006C-0.00548206 24.3857 6.63741 31.324 15.0027 31.7903C15.3703 31.8122 15.6061 31.4063 15.4087 31.0937C14.2896 29.333 13.6368 27.2433 13.6368 25Z" fill="white"/>
<path d="M34.5967 18.9063C35.7212 20.667 36.3685 22.7567 36.3685 25C36.3685 31.2747 31.278 36.3646 25.0026 36.3646C22.7481 36.3646 20.6471 35.7065 18.8808 34.5766C18.5791 34.3846 18.1842 34.604 18.1842 34.9605V49.638C18.1842 49.8409 18.3487 50 18.5462 50H33.9384C42.748 50 49.9943 42.9081 49.9998 34.0994C50.0053 25.6143 43.3624 18.676 34.9971 18.2097C34.6351 18.1878 34.3992 18.5937 34.5967 18.9063Z" fill="white"/>
</svg>
