<svg width="15" height="16" viewBox="0 0 15 16" fill="none" xmlns="http://www.w3.org/2000/svg">
<path d="M4.09105 8C4.09105 6.1176 5.61821 4.59061 7.50081 4.59061C8.17717 4.59061 8.80745 4.78806 9.33735 5.12703C9.42786 5.18462 9.54634 5.1188 9.54634 5.01185V0.636573C9.54634 0.560882 9.48545 0.5 9.40975 0.5H4.81843C2.17553 0.5 0.00164666 2.62758 1.01844e-06 5.27018C-0.00164462 7.81571 1.99122 9.89721 4.50082 10.0371C4.61108 10.0437 4.68184 9.92189 4.6226 9.8281C4.28689 9.29991 4.09105 8.67299 4.09105 8Z" fill="white"/>
<path d="M10.379 6.1719C10.7164 6.70009 10.9105 7.32701 10.9105 8C10.9105 9.88241 9.38339 11.4094 7.50078 11.4094C6.82442 11.4094 6.19414 11.2119 5.66425 10.873C5.57374 10.8154 5.45525 10.8812 5.45525 10.9882V15.3914C5.45525 15.4523 5.50462 15.5 5.56386 15.5H10.1815C12.8244 15.5 14.9983 13.3724 14.9999 10.7298C15.0016 8.18429 13.0087 6.10279 10.4991 5.96292C10.3905 5.95634 10.3198 6.07811 10.379 6.1719Z" fill="white"/>
</svg>
