<svg width="25" height="25" viewBox="0 0 25 25" fill="none" xmlns="http://www.w3.org/2000/svg">
<path fill-rule="evenodd" clip-rule="evenodd" d="M5 4C4.44772 4 4 4.44772 4 5V20C4 20.5523 4.44772 21 5 21H20C20.5523 21 21 20.5523 21 20V5C21 4.44772 20.5523 4 20 4H5ZM12.5006 9.99978C11.12 9.99978 10.0001 11.1196 10.0001 12.5C10.0001 12.9935 10.1437 13.4533 10.3899 13.8406C10.4333 13.9094 10.3815 13.9987 10.3006 13.9939C8.46023 13.8913 6.99879 12.3649 7 10.4981C7.00121 8.56022 8.59539 7 10.5335 7H13.9005C13.956 7 14.0007 7.04465 14.0007 7.10015V10.3087C14.0007 10.3871 13.9138 10.4354 13.8474 10.3932C13.4588 10.1446 12.9966 9.99978 12.5006 9.99978ZM15.0011 12.5C15.0011 12.0065 14.8587 11.5467 14.6113 11.1594C14.5678 11.0906 14.6197 11.0013 14.6994 11.0061C16.5397 11.1087 18.0012 12.6351 18 14.5019C17.9988 16.4398 16.4046 18 14.4664 18H11.0802C11.0367 18 11.0005 17.965 11.0005 17.9204V14.6913C11.0005 14.6129 11.0874 14.5646 11.1538 14.6068C11.5424 14.8554 12.0046 15.0002 12.5006 15.0002C13.8812 15.0002 15.0011 13.8804 15.0011 12.5Z" fill="white"/>
</svg>
