<svg width="9" height="10" viewBox="0 0 9 10" fill="none" xmlns="http://www.w3.org/2000/svg">
<path d="M2.45463 5C2.45463 3.87056 3.37092 2.95437 4.50049 2.95437C4.9063 2.95437 5.28447 3.07284 5.60241 3.27622C5.65671 3.31077 5.7278 3.27128 5.7278 3.20711V0.581944C5.7278 0.536529 5.69127 0.5 5.64585 0.5H2.89106C1.30532 0.5 0.000987993 1.77655 6.11066e-07 3.36211C-0.000986771 4.88942 1.19473 6.13833 2.70049 6.22225C2.76665 6.2262 2.8091 6.15314 2.77356 6.09686C2.57213 5.77995 2.45463 5.4038 2.45463 5Z" fill="white"/>
<path d="M6.2274 3.90314C6.42981 4.22005 6.54632 4.59621 6.54632 5C6.54632 6.12944 5.63003 7.04564 4.50047 7.04564C4.09465 7.04564 3.71649 6.92716 3.39855 6.72378C3.34424 6.68923 3.27315 6.72872 3.27315 6.79289V9.43484C3.27315 9.47137 3.30277 9.5 3.33832 9.5H6.10891C7.69465 9.5 8.99898 8.22345 8.99997 6.63789C9.00095 5.11058 7.80523 3.86167 6.29948 3.77775C6.23431 3.77381 6.19185 3.84686 6.2274 3.90314Z" fill="white"/>
</svg>
