<svg width="16" height="17" viewBox="0 0 16 17" fill="none" xmlns="http://www.w3.org/2000/svg">
<path d="M12.7605 3.89269H10.566V3.40113C10.566 2.46191 9.80235 1.69824 8.86313 1.69824H7.00224C6.06302 1.69824 5.29935 2.46191 5.29935 3.40113V3.89269H3.1049C2.86352 3.89269 2.66602 4.09019 2.66602 4.33158C2.66602 4.57296 2.86352 4.77046 3.1049 4.77046H3.54379V12.7758C3.54379 13.9301 4.47863 14.8649 5.6329 14.8649H10.2325C11.3867 14.8649 12.3216 13.9301 12.3216 12.7758V4.77046H12.7605C13.0018 4.77046 13.1993 4.57296 13.1993 4.33158C13.1993 4.09019 13.0018 3.89269 12.7605 3.89269ZM6.17713 3.40113C6.17713 2.94469 6.54579 2.57602 7.00224 2.57602H8.86313C9.31957 2.57602 9.68824 2.94469 9.68824 3.40113V3.89269H6.17713V3.40113ZM11.4438 12.7758C11.4438 13.4429 10.8996 13.9871 10.2325 13.9871H5.6329C4.96579 13.9871 4.42157 13.4429 4.42157 12.7758V4.77046H11.4438V12.7758Z" fill="#7F7E86"/>
<path d="M6.61662 6.52637C6.37523 6.52637 6.17773 6.72387 6.17773 6.96526V11.793C6.17773 12.0344 6.37523 12.2319 6.61662 12.2319C6.85801 12.2319 7.05551 12.0344 7.05551 11.793V6.96526C7.05551 6.72387 6.85801 6.52637 6.61662 6.52637Z" fill="#7F7E86"/>
<path d="M9.24944 6.52637C9.00805 6.52637 8.81055 6.72387 8.81055 6.96526V11.793C8.81055 12.0344 9.00805 12.2319 9.24944 12.2319C9.49082 12.2319 9.68832 12.0344 9.68832 11.793V6.96526C9.68832 6.72387 9.49082 6.52637 9.24944 6.52637Z" fill="#7F7E86"/>
</svg>
