<svg width="50" height="50" viewBox="0 0 50 50" fill="none" xmlns="http://www.w3.org/2000/svg">
<g clip-path="url(#clip0)">
<path d="M25 2C29.549 2 33.9958 3.34893 37.7781 5.8762C41.5605 8.40347 44.5084 11.9956 46.2492 16.1983C47.9901 20.401 48.4455 25.0255 47.5581 29.4871C46.6706 33.9486 44.4801 38.0468 41.2635 41.2635C38.0469 44.4801 33.9487 46.6706 29.4871 47.5581C25.0255 48.4455 20.401 47.99 16.1983 46.2492C11.9956 44.5084 8.40348 41.5604 5.87621 37.7781C3.34894 33.9958 2.00001 29.549 2.00001 25C2.00001 18.9 4.42322 13.0499 8.73656 8.73654C13.0499 4.42321 18.9 2 25 2ZM25 0C20.0555 0 15.222 1.46622 11.1108 4.21326C6.99953 6.96029 3.79521 10.8648 1.90302 15.4329C0.0108321 20.0011 -0.484251 25.0277 0.480379 29.8773C1.44501 34.7268 3.82603 39.1814 7.32234 42.6777C10.8187 46.174 15.2732 48.555 20.1228 49.5196C24.9723 50.4843 29.9989 49.9892 34.5671 48.097C39.1353 46.2048 43.0397 43.0005 45.7868 38.8893C48.5338 34.778 50 29.9445 50 25C50 18.3696 47.3661 12.0107 42.6777 7.32233C37.9893 2.63392 31.6304 0 25 0V0Z" fill="white"/>
<path d="M26.4099 25.0002L33.7099 17.7102C33.8982 17.5219 34.004 17.2665 34.004 17.0002C34.004 16.7339 33.8982 16.4785 33.7099 16.2902C33.5216 16.1019 33.2662 15.9961 32.9999 15.9961C32.7336 15.9961 32.4782 16.1019 32.2899 16.2902L24.9999 23.5902L17.7099 16.2902C17.6167 16.1969 17.506 16.123 17.3842 16.0725C17.2624 16.0221 17.1318 15.9961 16.9999 15.9961C16.8681 15.9961 16.7375 16.0221 16.6157 16.0725C16.4939 16.123 16.3832 16.1969 16.2899 16.2902C16.1967 16.3834 16.1227 16.4941 16.0723 16.6159C16.0218 16.7378 15.9958 16.8683 15.9958 17.0002C15.9958 17.132 16.0218 17.2626 16.0723 17.3844C16.1227 17.5063 16.1967 17.6169 16.2899 17.7102L23.5899 25.0002L16.2899 32.2902C16.1962 32.3831 16.1218 32.4938 16.071 32.6156C16.0203 32.7375 15.9941 32.8682 15.9941 33.0002C15.9941 33.1322 16.0203 33.2629 16.071 33.3848C16.1218 33.5066 16.1962 33.6172 16.2899 33.7102C16.3829 33.8039 16.4935 33.8783 16.6154 33.9291C16.7372 33.9798 16.8679 34.006 16.9999 34.006C17.132 34.006 17.2627 33.9798 17.3845 33.9291C17.5064 33.8783 17.617 33.8039 17.7099 33.7102L24.9999 26.4102L32.2899 33.7102C32.3829 33.8039 32.4935 33.8783 32.6154 33.9291C32.7372 33.9798 32.8679 34.006 32.9999 34.006C33.132 34.006 33.2627 33.9798 33.3845 33.9291C33.5064 33.8783 33.617 33.8039 33.7099 33.7102C33.8037 33.6172 33.8781 33.5066 33.9288 33.3848C33.9796 33.2629 34.0057 33.1322 34.0057 33.0002C34.0057 32.8682 33.9796 32.7375 33.9288 32.6156C33.8781 32.4938 33.8037 32.3831 33.7099 32.2902L26.4099 25.0002Z" fill="white"/>
</g>
<defs>
<clipPath id="clip0">
<rect width="50" height="50" fill="white"/>
</clipPath>
</defs>
</svg>