<svg width="20" height="20" viewBox="0 0 20 20" fill="none" xmlns="http://www.w3.org/2000/svg">
<path fill-rule="evenodd" clip-rule="evenodd" d="M0.75 12C1.16421 12 1.5 12.3358 1.5 12.75V16.75C1.5 17.0815 1.6317 17.3995 1.86612 17.6339C2.10054 17.8683 2.41848 18 2.75 18H16.75C17.0815 18 17.3995 17.8683 17.6339 17.6339C17.8683 17.3995 18 17.0815 18 16.75V12.75C18 12.3358 18.3358 12 18.75 12C19.1642 12 19.5 12.3358 19.5 12.75V16.75C19.5 17.4793 19.2103 18.1788 18.6945 18.6945C18.1788 19.2103 17.4793 19.5 16.75 19.5H2.75C2.02065 19.5 1.32118 19.2103 0.805456 18.6945C0.289731 18.1788 0 17.4793 0 16.75V12.75C0 12.3358 0.335786 12 0.75 12Z" fill="white"/>
<path fill-rule="evenodd" clip-rule="evenodd" d="M4.21967 7.21967C4.51256 6.92678 4.98744 6.92678 5.28033 7.21967L9.75 11.6893L14.2197 7.21967C14.5126 6.92678 14.9874 6.92678 15.2803 7.21967C15.5732 7.51256 15.5732 7.98744 15.2803 8.28033L10.2803 13.2803C9.98744 13.5732 9.51256 13.5732 9.21967 13.2803L4.21967 8.28033C3.92678 7.98744 3.92678 7.51256 4.21967 7.21967Z" fill="white"/>
<path fill-rule="evenodd" clip-rule="evenodd" d="M9.75 0C10.1642 0 10.5 0.335786 10.5 0.75V12.75C10.5 13.1642 10.1642 13.5 9.75 13.5C9.33579 13.5 9 13.1642 9 12.75V0.75C9 0.335786 9.33579 0 9.75 0Z" fill="white"/>
</svg>
