<svg width="50" height="50" viewBox="0 0 50 50" fill="none" xmlns="http://www.w3.org/2000/svg">
<g clip-path="url(#clip0)">
<path d="M25 2C29.549 2 33.9958 3.34893 37.7781 5.8762C41.5605 8.40347 44.5084 11.9956 46.2492 16.1983C47.9901 20.401 48.4455 25.0255 47.5581 29.4871C46.6706 33.9486 44.4801 38.0468 41.2635 41.2635C38.0469 44.4801 33.9487 46.6706 29.4871 47.5581C25.0255 48.4455 20.401 47.99 16.1983 46.2492C11.9956 44.5084 8.40348 41.5604 5.87621 37.7781C3.34894 33.9958 2.00001 29.549 2.00001 25C2.00001 18.9 4.42322 13.0499 8.73656 8.73654C13.0499 4.42321 18.9 2 25 2ZM25 0C20.0555 0 15.222 1.46622 11.1108 4.21326C6.99953 6.96029 3.79521 10.8648 1.90302 15.4329C0.0108321 20.0011 -0.484251 25.0277 0.480379 29.8773C1.44501 34.7268 3.82603 39.1814 7.32234 42.6777C10.8187 46.174 15.2732 48.555 20.1228 49.5196C24.9723 50.4843 29.9989 49.9892 34.5671 48.097C39.1353 46.2048 43.0397 43.0005 45.7868 38.8893C48.5338 34.778 50 29.9445 50 25C50 18.3696 47.3661 12.0107 42.6777 7.32233C37.9893 2.63392 31.6304 0 25 0V0Z" fill="white"/>
<path d="M19 37.25C18.7348 37.25 18.4804 37.1446 18.2929 36.9571C18.1054 36.7696 18 36.5152 18 36.25V13.75C18 13.4848 18.1054 13.2304 18.2929 13.0429C18.4804 12.8554 18.7348 12.75 19 12.75C19.2652 12.75 19.5196 12.8554 19.7071 13.0429C19.8946 13.2304 20 13.4848 20 13.75V36.25C20 36.5152 19.8946 36.7696 19.7071 36.9571C19.5196 37.1446 19.2652 37.25 19 37.25Z" fill="white"/>
<path d="M31 37.25C30.7348 37.25 30.4804 37.1446 30.2929 36.9571C30.1054 36.7696 30 36.5152 30 36.25V13.75C30 13.4848 30.1054 13.2304 30.2929 13.0429C30.4804 12.8554 30.7348 12.75 31 12.75C31.2652 12.75 31.5196 12.8554 31.7071 13.0429C31.8946 13.2304 32 13.4848 32 13.75V36.25C32 36.5152 31.8946 36.7696 31.7071 36.9571C31.5196 37.1446 31.2652 37.25 31 37.25Z" fill="white"/>
</g>
<defs>
<clipPath id="clip0">
<rect width="50" height="50" fill="white"/>
</clipPath>
</defs>
</svg>
