<svg width="50" height="50" viewBox="0 0 50 50" fill="none" xmlns="http://www.w3.org/2000/svg">
<g clip-path="url(#clip0)">
<path d="M22.52 34.6798C22.3731 34.68 22.2279 34.6479 22.0948 34.5857C21.9618 34.5234 21.844 34.4327 21.75 34.3198L13.61 24.5598C13.5253 24.4593 13.4612 24.3432 13.4214 24.2179C13.3816 24.0927 13.3668 23.9609 13.378 23.8299C13.3891 23.699 13.4259 23.5715 13.4863 23.4548C13.5467 23.3381 13.6295 23.2345 13.73 23.1498C13.9329 22.9787 14.1954 22.8953 14.4599 22.9178C14.5908 22.9289 14.7182 22.9657 14.8349 23.0261C14.9516 23.0865 15.0553 23.1693 15.14 23.2698L22.5 32.0998L34.76 16.7798C34.8316 16.6558 34.9289 16.5487 35.0454 16.4656C35.1619 16.3825 35.295 16.3254 35.4355 16.2981C35.5759 16.2708 35.7207 16.274 35.8598 16.3075C35.999 16.341 36.1293 16.4039 36.2421 16.4921C36.3548 16.5802 36.4473 16.6916 36.5133 16.8186C36.5793 16.9456 36.6173 17.0852 36.6247 17.2282C36.6321 17.3711 36.6087 17.5139 36.5561 17.6471C36.5036 17.7802 36.423 17.9005 36.32 17.9998L23.32 34.2798C23.2269 34.3945 23.1096 34.4872 22.9765 34.5511C22.8434 34.6151 22.6977 34.6488 22.55 34.6498L22.52 34.6798Z" fill="white"/>
<path d="M25 2C29.549 2 33.9958 3.34893 37.7781 5.8762C41.5604 8.40347 44.5084 11.9956 46.2492 16.1983C47.99 20.401 48.4455 25.0255 47.5581 29.4871C46.6706 33.9486 44.4801 38.0468 41.2635 41.2635C38.0468 44.4801 33.9486 46.6706 29.4871 47.5581C25.0255 48.4455 20.401 47.99 16.1983 46.2492C11.9956 44.5084 8.40347 41.5604 5.87619 37.7781C3.34892 33.9958 2 29.549 2 25C2 18.9 4.4232 13.0499 8.73654 8.73654C13.0499 4.42321 18.9 2 25 2ZM25 0C20.0555 0 15.222 1.46622 11.1107 4.21326C6.99951 6.96029 3.7952 10.8648 1.90301 15.4329C0.0108168 20.0011 -0.484267 25.0277 0.480364 29.8773C1.44499 34.7268 3.82601 39.1814 7.32233 42.6777C10.8186 46.174 15.2732 48.555 20.1227 49.5196C24.9723 50.4843 29.9989 49.9892 34.5671 48.097C39.1352 46.2048 43.0397 43.0005 45.7867 38.8893C48.5338 34.778 50 29.9445 50 25C50 18.3696 47.3661 12.0107 42.6777 7.32233C37.9893 2.63392 31.6304 0 25 0V0Z" fill="white"/>
</g>
<defs>
<clipPath id="clip0">
<rect width="50" height="50" fill="white"/>
</clipPath>
</defs>
</svg>
