<svg width="36" height="36" viewBox="0 0 36 36" fill="none" xmlns="http://www.w3.org/2000/svg">
<g clip-path="url(#clip0)">
<path d="M18 2C21.1645 2 24.2579 2.93838 26.8891 4.69649C29.5203 6.45459 31.5711 8.95345 32.7821 11.8771C33.9931 14.8007 34.3099 18.0177 33.6926 21.1214C33.0752 24.2251 31.5513 27.0761 29.3137 29.3137C27.0761 31.5513 24.2251 33.0752 21.1214 33.6926C18.0177 34.3099 14.8007 33.9931 11.8771 32.7821C8.95344 31.5711 6.45458 29.5203 4.69648 26.8891C2.93838 24.2579 1.99999 21.1645 1.99999 18C1.99999 13.7565 3.6857 9.68687 6.68628 6.68629C9.68687 3.68571 13.7565 2 18 2ZM18 0C14.4399 0 10.9598 1.05568 7.99973 3.03355C5.03964 5.01141 2.73254 7.82263 1.37016 11.1117C0.00778389 14.4008 -0.348676 18.02 0.345858 21.5116C1.04039 25.0033 2.75473 28.2106 5.27207 30.7279C7.78942 33.2453 10.9967 34.9596 14.4884 35.6541C17.98 36.3487 21.5992 35.9922 24.8883 34.6298C28.1774 33.2675 30.9886 30.9604 32.9664 28.0003C34.9443 25.0402 36 21.5601 36 18C36 13.2261 34.1036 8.64773 30.7279 5.27208C27.3523 1.89642 22.7739 0 18 0V0Z" fill="white"/>
<path d="M25.71 18.33C25.617 18.2363 25.5064 18.1619 25.3846 18.1111C25.2627 18.0603 25.132 18.0342 25 18.0342C24.868 18.0342 24.7373 18.0603 24.6154 18.1111C24.4936 18.1619 24.383 18.2363 24.29 18.33L19 23.62V10C19 9.73478 18.8946 9.48043 18.7071 9.29289C18.5196 9.10536 18.2652 9 18 9C17.7348 9 17.4804 9.10536 17.2929 9.29289C17.1054 9.48043 17 9.73478 17 10V23.62L11.71 18.33C11.6174 18.2368 11.5074 18.1627 11.3862 18.112C11.2649 18.0612 11.1349 18.0349 11.0035 18.0344C10.8721 18.034 10.7419 18.0594 10.6204 18.1093C10.4988 18.1591 10.3882 18.2324 10.295 18.325C10.2018 18.4176 10.1277 18.5276 10.077 18.6488C10.0262 18.7701 9.99991 18.9001 9.99944 19.0315C9.99898 19.1629 10.0244 19.2931 10.0743 19.4146C10.1241 19.5362 10.1974 19.6468 10.29 19.74L17.29 26.74C17.383 26.8337 17.4936 26.9081 17.6154 26.9589C17.7373 27.0097 17.868 27.0358 18 27.0358C18.132 27.0358 18.2627 27.0097 18.3846 26.9589C18.5064 26.9081 18.617 26.8337 18.71 26.74L25.71 19.74C25.8962 19.5526 26.0008 19.2992 26.0008 19.035C26.0008 18.7708 25.8962 18.5174 25.71 18.33Z" fill="white"/>
</g>
<defs>
<clipPath id="clip0">
<rect width="36" height="36" fill="white"/>
</clipPath>
</defs>
</svg>
