<svg width="50" height="50" viewBox="0 0 50 50" fill="none" xmlns="http://www.w3.org/2000/svg">
<g clip-path="url(#clip0)">
<path d="M25 2C29.549 2 33.9958 3.34893 37.7781 5.8762C41.5604 8.40347 44.5084 11.9956 46.2492 16.1983C47.99 20.401 48.4455 25.0255 47.5581 29.4871C46.6706 33.9486 44.4801 38.0468 41.2635 41.2635C38.0469 44.4801 33.9486 46.6706 29.4871 47.5581C25.0255 48.4455 20.401 47.99 16.1983 46.2492C11.9956 44.5084 8.40347 41.5604 5.8762 37.7781C3.34893 33.9958 2 29.549 2 25C2 18.9 4.42321 13.0499 8.73655 8.73654C13.0499 4.42321 18.9 2 25 2ZM25 0C20.0555 0 15.222 1.46622 11.1107 4.21326C6.99952 6.96029 3.79521 10.8648 1.90302 15.4329C0.0108244 20.0011 -0.484259 25.0277 0.480372 29.8773C1.445 34.7268 3.82602 39.1814 7.32233 42.6777C10.8186 46.174 15.2732 48.555 20.1227 49.5196C24.9723 50.4843 29.9989 49.9892 34.5671 48.097C39.1352 46.2048 43.0397 43.0005 45.7867 38.8893C48.5338 34.778 50 29.9445 50 25C50 18.3696 47.3661 12.0107 42.6777 7.32233C37.9893 2.63392 31.6304 0 25 0V0Z" fill="white"/>
<path d="M35.43 25.7302C35.2426 25.5439 34.9892 25.4394 34.725 25.4394C34.4608 25.4394 34.2074 25.5439 34.02 25.7302L26.02 33.7302V13.9302C26.02 13.665 25.9146 13.4106 25.7271 13.2231C25.5396 13.0355 25.2852 12.9302 25.02 12.9302C24.7548 12.9302 24.5004 13.0355 24.3129 13.2231C24.1254 13.4106 24.02 13.665 24.02 13.9302V33.7402L16.02 25.7402C15.8287 25.5763 15.5826 25.4907 15.3309 25.5005C15.0793 25.5102 14.8405 25.6145 14.6624 25.7926C14.4843 25.9707 14.38 26.2094 14.3703 26.4611C14.3606 26.7128 14.4462 26.9589 14.61 27.1502L24.33 36.8702C24.423 36.9639 24.5336 37.0383 24.6554 37.0891C24.7773 37.1398 24.908 37.166 25.04 37.166C25.172 37.166 25.3027 37.1398 25.4246 37.0891C25.5464 37.0383 25.657 36.9639 25.75 36.8702L35.47 27.1502C35.5612 27.0546 35.6325 26.9419 35.6798 26.8186C35.7272 26.6953 35.7497 26.5639 35.746 26.4318C35.7422 26.2998 35.7124 26.1698 35.6582 26.0494C35.6039 25.929 35.5264 25.8205 35.43 25.7302Z" fill="white"/>
</g>
<defs>
<clipPath id="clip0">
<rect width="50" height="50" fill="white"/>
</clipPath>
</defs>
</svg>
