<svg width="36" height="36" viewBox="0 0 36 36" fill="none" xmlns="http://www.w3.org/2000/svg">
<path d="M18 2C21.1645 2 24.2579 2.93838 26.8891 4.69649C29.5203 6.45459 31.5711 8.95345 32.7821 11.8771C33.9931 14.8007 34.3099 18.0177 33.6926 21.1214C33.0752 24.2251 31.5514 27.0761 29.3137 29.3137C27.0761 31.5513 24.2251 33.0752 21.1215 33.6926C18.0178 34.3099 14.8007 33.9931 11.8771 32.7821C8.95345 31.5711 6.4546 29.5203 4.69649 26.8891C2.93839 24.2579 2.00001 21.1645 2.00001 18C2.00001 13.7565 3.68572 9.68687 6.6863 6.68629C9.68688 3.68571 13.7565 2 18 2V2ZM18 0C14.4399 0 10.9598 1.05568 7.99974 3.03355C5.03966 5.01141 2.73255 7.82263 1.37018 11.1117C0.00779915 14.4008 -0.348661 18.02 0.345873 21.5116C1.04041 25.0033 2.75474 28.2106 5.27209 30.7279C7.78943 33.2453 10.9967 34.9596 14.4884 35.6541C17.98 36.3487 21.5992 35.9922 24.8883 34.6298C28.1774 33.2675 30.9886 30.9603 32.9665 28.0003C34.9443 25.0402 36 21.5601 36 18C36 13.2261 34.1036 8.64773 30.7279 5.27208C27.3523 1.89642 22.7739 0 18 0V0Z" fill="white"/>
<path d="M14 26.5C13.7348 26.5 13.4804 26.3946 13.2929 26.2071C13.1054 26.0196 13 25.7652 13 25.5V10.5C13 10.2348 13.1054 9.98043 13.2929 9.79289C13.4804 9.60536 13.7348 9.5 14 9.5C14.2652 9.5 14.5196 9.60536 14.7071 9.79289C14.8946 9.98043 15 10.2348 15 10.5V25.5C15 25.7652 14.8946 26.0196 14.7071 26.2071C14.5196 26.3946 14.2652 26.5 14 26.5Z" fill="white"/>
<path d="M22 26.5C21.7348 26.5 21.4804 26.3946 21.2929 26.2071C21.1054 26.0196 21 25.7652 21 25.5V10.5C21 10.2348 21.1054 9.98043 21.2929 9.79289C21.4804 9.60536 21.7348 9.5 22 9.5C22.2652 9.5 22.5196 9.60536 22.7071 9.79289C22.8946 9.98043 23 10.2348 23 10.5V25.5C23 25.7652 22.8946 26.0196 22.7071 26.2071C22.5196 26.3946 22.2652 26.5 22 26.5Z" fill="white"/>
</svg>
