<svg width="36" height="36" viewBox="0 0 36 36" fill="none" xmlns="http://www.w3.org/2000/svg">
<g clip-path="url(#clip0)">
<path d="M16.21 25.2499C16.0631 25.2501 15.9179 25.218 15.7849 25.1558C15.6518 25.0935 15.534 25.0028 15.44 24.8899L9.58001 17.8899C9.41027 17.6857 9.32861 17.4224 9.35299 17.158C9.37737 16.8935 9.50579 16.6496 9.71001 16.4799C9.91422 16.3101 10.1775 16.2285 10.4419 16.2529C10.7064 16.2772 10.9503 16.4057 11.12 16.6099L16.2 22.6999L24.81 11.9399C24.975 11.7338 25.2148 11.6014 25.477 11.5714C25.7393 11.5414 26.0028 11.6164 26.21 11.7799C26.3135 11.8617 26.3997 11.9632 26.4638 12.0784C26.5279 12.1937 26.5686 12.3205 26.5834 12.4516C26.5983 12.5826 26.5871 12.7154 26.5505 12.8421C26.5139 12.9688 26.4525 13.087 26.37 13.1899L17 24.8799C16.907 24.9946 16.7896 25.0873 16.6565 25.1512C16.5234 25.2152 16.3777 25.2489 16.23 25.2499H16.21Z" fill="white"/>
<path d="M18 2C21.1645 2 24.2579 2.93838 26.8891 4.69649C29.5203 6.45459 31.5711 8.95345 32.7821 11.8771C33.9931 14.8007 34.3099 18.0177 33.6926 21.1214C33.0752 24.2251 31.5513 27.0761 29.3137 29.3137C27.0761 31.5513 24.2251 33.0752 21.1214 33.6926C18.0177 34.3099 14.8007 33.9931 11.8771 32.7821C8.95344 31.5711 6.45458 29.5203 4.69648 26.8891C2.93838 24.2579 1.99999 21.1645 1.99999 18C1.99999 13.7565 3.6857 9.68687 6.68628 6.68629C9.68687 3.68571 13.7565 2 18 2ZM18 0C14.4399 0 10.9598 1.05568 7.99973 3.03355C5.03964 5.01141 2.73254 7.82263 1.37016 11.1117C0.00778389 14.4008 -0.348676 18.02 0.345858 21.5116C1.04039 25.0033 2.75473 28.2106 5.27207 30.7279C7.78942 33.2453 10.9967 34.9596 14.4884 35.6541C17.98 36.3487 21.5992 35.9922 24.8883 34.6298C28.1774 33.2675 30.9886 30.9604 32.9664 28.0003C34.9443 25.0402 36 21.5601 36 18C36 13.2261 34.1036 8.64773 30.7279 5.27208C27.3523 1.89642 22.7739 0 18 0V0Z" fill="white"/>
</g>
<defs>
<clipPath id="clip0">
<rect width="36" height="36" fill="white"/>
</clipPath>
</defs>
</svg>
