<svg width="36" height="36" viewBox="0 0 36 36" fill="none" xmlns="http://www.w3.org/2000/svg">
<path d="M18 2C21.1645 2 24.2579 2.93838 26.8891 4.69649C29.5203 6.45459 31.5711 8.95345 32.7821 11.8771C33.9931 14.8007 34.3099 18.0177 33.6926 21.1214C33.0752 24.2251 31.5514 27.0761 29.3137 29.3137C27.0761 31.5513 24.2251 33.0752 21.1215 33.6926C18.0178 34.3099 14.8007 33.9931 11.8771 32.7821C8.95345 31.5711 6.4546 29.5203 4.69649 26.8891C2.93839 24.2579 2.00001 21.1645 2.00001 18C2.00001 13.7565 3.68572 9.68687 6.6863 6.68629C9.68688 3.68571 13.7565 2 18 2V2ZM18 0C14.4399 0 10.9598 1.05568 7.99974 3.03355C5.03966 5.01141 2.73255 7.82263 1.37018 11.1117C0.00779915 14.4008 -0.348661 18.02 0.345873 21.5116C1.04041 25.0033 2.75474 28.2106 5.27209 30.7279C7.78943 33.2453 10.9967 34.9596 14.4884 35.6541C17.98 36.3487 21.5992 35.9922 24.8883 34.6298C28.1774 33.2675 30.9886 30.9603 32.9665 28.0003C34.9443 25.0402 36 21.5601 36 18C36 13.2261 34.1036 8.64773 30.7279 5.27208C27.3523 1.89642 22.7739 0 18 0V0Z" fill="white"/>
<path d="M19.41 18.0002L24.71 12.7102C24.8032 12.6169 24.8772 12.5063 24.9277 12.3844C24.9781 12.2626 25.0041 12.132 25.0041 12.0002C25.0041 11.8683 24.9781 11.7378 24.9277 11.6159C24.8772 11.4941 24.8032 11.3834 24.71 11.2902C24.6168 11.1969 24.5061 11.123 24.3842 11.0725C24.2624 11.0221 24.1319 10.9961 24 10.9961C23.8681 10.9961 23.7376 11.0221 23.6158 11.0725C23.4939 11.123 23.3832 11.1969 23.29 11.2902L18 16.5902L12.71 11.2902C12.5217 11.1019 12.2663 10.9961 12 10.9961C11.7337 10.9961 11.4783 11.1019 11.29 11.2902C11.1017 11.4785 10.9959 11.7339 10.9959 12.0002C10.9959 12.2665 11.1017 12.5219 11.29 12.7102L16.59 18.0002L11.29 23.2902C11.1963 23.3831 11.1219 23.4937 11.0711 23.6156C11.0203 23.7375 10.9942 23.8682 10.9942 24.0002C10.9942 24.1322 11.0203 24.2629 11.0711 24.3848C11.1219 24.5066 11.1963 24.6172 11.29 24.7102C11.383 24.8039 11.4936 24.8783 11.6154 24.9291C11.7373 24.9798 11.868 25.006 12 25.006C12.132 25.006 12.2627 24.9798 12.3846 24.9291C12.5064 24.8783 12.617 24.8039 12.71 24.7102L18 19.4102L23.29 24.7102C23.383 24.8039 23.4936 24.8783 23.6154 24.9291C23.7373 24.9798 23.868 25.006 24 25.006C24.132 25.006 24.2627 24.9798 24.3846 24.9291C24.5064 24.8783 24.617 24.8039 24.71 24.7102C24.8037 24.6172 24.8781 24.5066 24.9289 24.3848C24.9797 24.2629 25.0058 24.1322 25.0058 24.0002C25.0058 23.8682 24.9797 23.7375 24.9289 23.6156C24.8781 23.4937 24.8037 23.3831 24.71 23.2902L19.41 18.0002Z" fill="white"/>
</svg>
