<svg width="77" height="77" viewBox="0 0 77 77" fill="none" xmlns="http://www.w3.org/2000/svg">
<g filter="url(#filter0_d)">
<path d="M73 34.5C73 53.5538 57.5538 69 38.5 69C19.4462 69 4 53.5538 4 34.5C4 15.4462 19.4462 3.51424e-05 38.5 3.89258e-05C57.5538 4.27093e-05 73 15.4462 73 34.5Z" fill="url(#paint0_linear)"/>
</g>
<mask id="mask0" mask-type="alpha" maskUnits="userSpaceOnUse" x="4" y="0" width="69" height="69">
<path d="M73 34.5C73 53.5538 57.5538 69 38.5 69C19.4462 69 4 53.5538 4 34.5C4 15.4462 19.4462 3.51424e-05 38.5 3.89258e-05C57.5538 4.27093e-05 73 15.4462 73 34.5Z" fill="url(#paint1_linear)"/>
</mask>
<g mask="url(#mask0)">
<mask id="mask1" mask-type="alpha" maskUnits="userSpaceOnUse" x="0" y="0" width="69" height="69">
<path d="M69 34.5C69 53.5538 53.5538 69 34.5 69C15.4462 69 5.94515e-07 53.5538 1.32789e-06 34.5C2.06126e-06 15.4462 15.4462 3.51424e-05 34.5 3.89258e-05C53.5538 4.27093e-05 69 15.4462 69 34.5Z" fill="url(#paint2_linear)"/>
</mask>
<g mask="url(#mask1)">
</g>
<g clip-path="url(#clip0)">
<g opacity="0.6">
<path fill-rule="evenodd" clip-rule="evenodd" d="M61.2229 23.8889C61.2229 17.8751 56.3478 13 50.334 13C45.5486 13 41.4841 16.087 40.0234 20.3783C44.2754 22.3572 47.2229 26.6677 47.2229 31.6667C47.2229 35.4041 45.5754 38.7567 42.967 41.0378C49.9436 43.8691 55.1198 50.2142 56.301 57.8775C63.7153 57.2928 69.0007 55.4899 69.0007 51.1521C69.0007 43.3074 64.3747 36.5454 57.7076 33.4569C59.8688 31.4669 61.2229 28.6138 61.2229 25.4444V23.8889Z" fill="url(#paint3_linear)" fill-opacity="0.5"/>
</g>
<path d="M34.7778 19.2222C41.6507 19.2222 47.2222 24.7937 47.2222 31.6666C47.2222 35.404 45.5747 38.7566 42.9662 41.0377C50.9355 44.2719 56.5556 52.0907 56.5556 61.2222C56.5556 67.4444 46.8053 68.9999 34.7778 68.9999C22.7502 68.9999 13 67.4444 13 61.2222C13 52.0907 18.6201 44.2719 26.59 41.036C23.9809 38.7566 22.3333 35.404 22.3333 31.6666C22.3333 24.7937 27.9049 19.2222 34.7778 19.2222Z" fill="url(#paint4_linear)" fill-opacity="0.5"/>
</g>
</g>
<defs>
<filter id="filter0_d" x="0" y="0" width="77" height="77" filterUnits="userSpaceOnUse" color-interpolation-filters="sRGB">
<feFlood flood-opacity="0" result="BackgroundImageFix"/>
<feColorMatrix in="SourceAlpha" type="matrix" values="0 0 0 0 0 0 0 0 0 0 0 0 0 0 0 0 0 0 127 0"/>
<feOffset dy="4"/>
<feGaussianBlur stdDeviation="2"/>
<feColorMatrix type="matrix" values="0 0 0 0 0 0 0 0 0 0 0 0 0 0 0 0 0 0 0.25 0"/>
<feBlend mode="normal" in2="BackgroundImageFix" result="effect1_dropShadow"/>
<feBlend mode="normal" in="SourceGraphic" in2="effect1_dropShadow" result="shape"/>
</filter>
<linearGradient id="paint0_linear" x1="39.42" y1="69" x2="39.42" y2="3.91085e-05" gradientUnits="userSpaceOnUse">
<stop offset="0.09375" stop-color="#3B4046"/>
<stop offset="1" stop-color="#2D3037"/>
</linearGradient>
<linearGradient id="paint1_linear" x1="39.42" y1="69" x2="39.42" y2="3.91085e-05" gradientUnits="userSpaceOnUse">
<stop offset="0.09375" stop-color="#3B4046"/>
<stop offset="1" stop-color="#2D3037"/>
</linearGradient>
<linearGradient id="paint2_linear" x1="35.42" y1="69" x2="35.42" y2="3.91085e-05" gradientUnits="userSpaceOnUse">
<stop offset="0.09375" stop-color="#3B4046"/>
<stop offset="1" stop-color="#2D3037"/>
</linearGradient>
<linearGradient id="paint3_linear" x1="38.9221" y1="13" x2="91.8898" y2="67.0241" gradientUnits="userSpaceOnUse">
<stop stop-color="white" stop-opacity="0.4"/>
<stop offset="1" stop-color="white" stop-opacity="0"/>
</linearGradient>
<linearGradient id="paint4_linear" x1="22.8681" y1="19.2222" x2="81.2915" y2="79.7047" gradientUnits="userSpaceOnUse">
<stop stop-color="white" stop-opacity="0.4"/>
<stop offset="1" stop-color="white" stop-opacity="0"/>
</linearGradient>
<clipPath id="clip0">
<rect width="56" height="56" fill="white" transform="translate(13 13)"/>
</clipPath>
</defs>
</svg>
