<svg width="100" height="100" viewBox="0 0 100 100" fill="none" xmlns="http://www.w3.org/2000/svg">
<path d="M50 3.46868e-05C40.1109 3.46868e-05 30.444 2.93248 22.2215 8.42655C13.999 13.9206 7.59042 21.7295 3.80604 30.8658C0.0216642 40.0021 -0.968502 50.0555 0.960758 59.7545C2.89002 69.4536 7.65205 78.3627 14.6447 85.3553C21.6373 92.3479 30.5464 97.11 40.2455 99.0392C49.9445 100.968 59.9979 99.9783 69.1342 96.1939C78.2705 92.4096 86.0794 86.0009 91.5734 77.7785C97.0675 69.556 100 59.8891 100 50C100.008 43.4317 98.7197 36.9265 96.2097 30.8567C93.6997 24.7869 90.017 19.2719 85.3726 14.6274C80.7281 9.98295 75.2131 6.30028 69.1433 3.79029C63.0735 1.2803 56.5683 -0.00770635 50 3.46868e-05ZM54.8823 73.7059C54.3717 74.5323 53.6644 75.2194 52.8235 75.7059C51.9875 76.2048 51.0324 76.469 50.0588 76.4706C48.5979 76.456 47.2022 75.8639 46.1765 74.8235C45.6373 74.3216 45.2115 73.7104 44.9275 73.0307C44.6434 72.3511 44.5077 71.6186 44.5294 70.8823C44.5233 70.1569 44.6663 69.4379 44.9497 68.7701C45.233 68.1022 45.6506 67.4997 46.1765 67C47.2537 66.0408 48.6458 65.5108 50.0882 65.5108C51.5306 65.5108 52.9227 66.0408 54 67C55.0403 68.0257 55.6325 69.4214 55.647 70.8823C55.634 71.8729 55.3709 72.8441 54.8823 73.7059ZM66.647 42.5294C66.0616 44.0404 65.1818 45.42 64.0588 46.5882C62.868 47.8151 61.5235 48.8828 60.0588 49.7647C58.8413 50.4897 57.7156 51.3587 56.7059 52.3529C55.8623 53.2784 55.2034 54.3565 54.7647 55.5294C54.332 56.999 54.1335 58.5275 54.1765 60.0588V60.7059H45.7059V60.0588C45.6471 57.6557 45.9444 55.2572 46.5882 52.9412C47.0411 51.3217 47.8671 49.8309 49 48.5882C50.1299 47.4407 51.3939 46.4335 52.7647 45.5882C53.7559 44.9782 54.6822 44.2686 55.5294 43.4706C56.3265 42.7313 56.9841 41.8546 57.4706 40.8824C57.9521 39.8937 58.1939 38.8055 58.1765 37.7059C58.2821 36.4862 58.0044 35.2639 57.3823 34.2094C56.7602 33.155 55.8246 32.3209 54.7059 31.8235C53.6334 31.3031 52.4568 31.0327 51.2647 31.0327C50.0726 31.0327 48.896 31.3031 47.8235 31.8235C46.7479 32.3589 45.8342 33.171 45.1765 34.1765C44.4393 35.3399 44.0326 36.6819 44 38.0588H35.2941C35.2935 35.2215 36.1104 32.444 37.6471 30.0588C39.091 27.9076 41.137 26.2299 43.5294 25.2353C45.9684 24.1255 48.6145 23.5442 51.2941 23.5294C54.2072 23.4852 57.0958 24.067 59.7647 25.2353C62.1273 26.2569 64.1297 27.9629 65.5137 30.1332C66.8977 32.3035 67.5998 34.8387 67.5294 37.4118C67.5755 39.1646 67.2549 40.9077 66.5882 42.5294H66.647Z" fill="#9BADBE" fill-opacity="0.5"/>
</svg>
