<svg width="25" height="25" viewBox="0 0 25 25" fill="none" xmlns="http://www.w3.org/2000/svg">
<rect x="3.5" y="3.5" width="18" height="18" rx="9" fill="white"/>
<path d="M11.016 13.678V11.536C11.7533 11.508 12.304 11.3867 12.668 11.172C13.0413 10.948 13.228 10.5747 13.228 10.052V9.856C13.228 9.50133 13.1207 9.23067 12.906 9.044C12.7007 8.85733 12.43 8.764 12.094 8.764C11.73 8.764 11.4267 8.876 11.184 9.1C10.9507 9.324 10.792 9.60867 10.708 9.954L9 9.24C9.084 8.96 9.20533 8.68933 9.364 8.428C9.52267 8.15733 9.728 7.91933 9.98 7.714C10.2413 7.49933 10.5493 7.32667 10.904 7.196C11.268 7.06533 11.688 7 12.164 7C12.6493 7 13.0927 7.07 13.494 7.21C13.8953 7.35 14.2407 7.546 14.53 7.798C14.8193 8.05 15.0387 8.35333 15.188 8.708C15.3467 9.06267 15.426 9.45467 15.426 9.884C15.426 10.276 15.3607 10.6307 15.23 10.948C15.0993 11.2653 14.922 11.5453 14.698 11.788C14.474 12.0213 14.2127 12.2127 13.914 12.362C13.6153 12.5113 13.3027 12.614 12.976 12.67V13.678H11.016ZM12.024 17.108C11.576 17.108 11.254 17.0053 11.058 16.8C10.8713 16.5947 10.778 16.3427 10.778 16.044V15.708C10.778 15.4093 10.8713 15.1573 11.058 14.952C11.254 14.7467 11.576 14.644 12.024 14.644C12.472 14.644 12.7893 14.7467 12.976 14.952C13.172 15.1573 13.27 15.4093 13.27 15.708V16.044C13.27 16.3427 13.172 16.5947 12.976 16.8C12.7893 17.0053 12.472 17.108 12.024 17.108Z" fill="#2C2C2C"/>
</svg>
