<svg width="24" height="25" viewBox="0 0 24 25" fill="none" xmlns="http://www.w3.org/2000/svg">
<path d="M11.75 6.56885C12.1642 6.56885 12.5 6.90094 12.5 7.31061V11.5139H16.75C17.1297 11.5139 17.4435 11.793 17.4932 12.155L17.5 12.2557C17.5 12.6653 17.1642 12.9974 16.75 12.9974H12.499L12.5 17.2007C12.5 17.5762 12.2178 17.8866 11.8518 17.9357L11.75 17.9425C11.3358 17.9425 11 17.6104 11 17.2007L10.999 12.9974H6.75C6.3703 12.9974 6.05651 12.7184 6.00685 12.3563L6 12.2557C6 11.846 6.33579 11.5139 6.75 11.5139H11V7.31061C11 6.93508 11.2822 6.62474 11.6482 6.57562L11.75 6.56885Z" fill="url(#paint0_linear)"/>
<defs>
<linearGradient id="paint0_linear" x1="11.75" y1="6.56885" x2="11.75" y2="17.9425" gradientUnits="userSpaceOnUse">
<stop stop-color="#FF6D2E"/>
<stop offset="1" stop-color="#AB3D1F"/>
</linearGradient>
</defs>
</svg>
