<svg width="14" height="13" viewBox="0 0 14 13" fill="none" xmlns="http://www.w3.org/2000/svg">
<path d="M6.6084 0C7.07664 0 7.45622 0.379585 7.45622 0.847826V5.65217H12.2606C12.6898 5.65217 13.0445 5.97113 13.1007 6.38495L13.1084 6.5C13.1084 6.96824 12.7288 7.34783 12.2606 7.34783H7.45509L7.45622 12.1522C7.45622 12.5814 7.13727 12.9361 6.72344 12.9923L6.6084 13C6.14016 13 5.76057 12.6204 5.76057 12.1522L5.75944 7.34783H0.956225C0.527003 7.34783 0.172278 7.02887 0.116138 6.61504L0.108398 6.5C0.108398 6.03176 0.487983 5.65217 0.956225 5.65217H5.76057V0.847826C5.76057 0.418605 6.07953 0.0638796 6.49335 0.00773944L6.6084 0Z" fill="#7F7E86"/>
</svg>
