<svg width="17" height="17" viewBox="0 0 17 17" fill="none" xmlns="http://www.w3.org/2000/svg">
<path d="M13.444 4.39723H11.2743V3.91122C11.2743 2.98259 10.5192 2.22754 9.59058 2.22754H7.75069C6.82206 2.22754 6.06701 2.98259 6.06701 3.91122V4.39723H3.89732C3.65865 4.39723 3.46338 4.5925 3.46338 4.83117C3.46338 5.06983 3.65865 5.26511 3.89732 5.26511H4.33126V13.1801C4.33126 14.3214 5.25554 15.2457 6.3968 15.2457H10.9445C12.0857 15.2457 13.01 14.3214 13.01 13.1801V5.26511H13.444C13.6826 5.26511 13.8779 5.06983 13.8779 4.83117C13.8779 4.5925 13.6826 4.39723 13.444 4.39723ZM6.93488 3.91122C6.93488 3.45992 7.29939 3.09542 7.75069 3.09542H9.59058C10.0419 3.09542 10.4064 3.45992 10.4064 3.91122V4.39723H6.93488V3.91122ZM12.1421 13.1801C12.1421 13.8397 11.6041 14.3778 10.9445 14.3778H6.3968C5.73721 14.3778 5.19913 13.8397 5.19913 13.1801V5.26511H12.1421V13.1801Z" fill="#7F7E86"/>
<path d="M7.369 7C7.13033 7 6.93506 7.19527 6.93506 7.43394V12.2073C6.93506 12.4459 7.13033 12.6412 7.369 12.6412C7.60766 12.6412 7.80294 12.4459 7.80294 12.2073V7.43394C7.80294 7.19527 7.60766 7 7.369 7Z" fill="#7F7E86"/>
<path d="M9.97251 7C9.73385 7 9.53857 7.19527 9.53857 7.43394V12.2073C9.53857 12.4459 9.73385 12.6412 9.97251 12.6412C10.2112 12.6412 10.4065 12.4459 10.4065 12.2073V7.43394C10.4065 7.19527 10.2112 7 9.97251 7Z" fill="#7F7E86"/>
</svg>
