<svg width="24" height="25" viewBox="0 0 24 25" fill="none" xmlns="http://www.w3.org/2000/svg">
<path fill-rule="evenodd" clip-rule="evenodd" d="M14.7375 5.26856C15.5826 4.4235 16.9537 4.4235 17.7988 5.26856L19.3662 6.83527C20.2113 7.68105 20.2113 9.0522 19.3662 9.89726L9.26303 20.0004C8.85674 20.4067 8.30612 20.6348 7.73168 20.6348H4.72166C4.3233 20.6348 4 20.3115 4 19.9131V16.9024C4 16.3286 4.22804 15.778 4.63434 15.3717L14.7375 5.26856ZM16.7784 6.28898C16.4962 6.00753 16.0401 6.00753 15.7579 6.28898L14.4019 7.64497L16.9898 10.2328L18.3458 8.87684C18.6272 8.59467 18.6272 8.13858 18.3458 7.85642L16.7784 6.28898ZM15.9694 11.2532L13.3815 8.66539L5.65476 16.3922C5.51908 16.5278 5.44331 16.7111 5.44331 16.9024V19.1915H7.73168C7.92364 19.1915 8.10694 19.1157 8.24261 18.98L15.9694 11.2532Z" fill="url(#paint0_linear)"/>
<defs>
<linearGradient id="paint0_linear" x1="12" y1="4.63477" x2="12" y2="20.6348" gradientUnits="userSpaceOnUse">
<stop stop-color="#FF6D2E"/>
<stop offset="1" stop-color="#AB3D1F"/>
</linearGradient>
</defs>
</svg>
