<svg width="24" height="24" viewBox="0 0 24 24" fill="none" xmlns="http://www.w3.org/2000/svg">
<path opacity="0.3" d="M20.9585 8.0253C20.9543 8.01891 20.9543 8.00826 20.9522 8.00186C20.982 7.91664 21.0012 7.82502 21.0012 7.72914C21.0012 7.254 20.6155 6.86621 20.1382 6.86621C19.8357 6.86621 19.5693 7.02388 19.4159 7.26039H19.4138C17.7881 9.73411 14.9905 11.2767 11.9969 11.2767C8.99476 11.2767 6.22701 9.74689 4.6013 7.29235C4.45215 7.0388 4.17729 6.86621 3.86195 6.86621C3.38468 6.86621 2.99902 7.25186 2.99902 7.72914C2.99902 7.86337 3.03311 7.99121 3.08851 8.10414C3.08851 8.10627 3.08638 8.10627 3.08638 8.1084C3.09277 8.11905 3.1013 8.12971 3.10769 8.14036C3.13326 8.1851 3.16309 8.22985 3.19718 8.27033C4.00897 9.50399 5.04448 10.5395 6.28667 11.3406L4.78453 13.1517C4.45002 13.4862 4.45002 14.0317 4.78453 14.3662C5.11905 14.7007 5.66451 14.7007 5.99902 14.3662L7.88468 12.1716C8.90741 12.5977 9.99405 12.8747 11.1446 12.96V16.2824C11.1446 16.7533 11.526 17.1347 11.9969 17.1347C12.4678 17.1347 12.8492 16.7533 12.8492 16.2824V12.96C14.021 12.8747 15.129 12.5764 16.1517 12.1503L18.2931 14.5807C18.6276 14.9152 19.1688 14.9152 19.5033 14.5807C19.8399 14.2441 19.8378 13.6986 19.499 13.3662L17.7284 11.3193C18.977 10.5033 19.9891 9.52956 20.7924 8.28311C20.8456 8.22132 20.8904 8.15314 20.9245 8.07857C20.9351 8.05939 20.9479 8.04235 20.9585 8.0253Z" fill="white"/>
</svg>
