<svg width="25" height="24" viewBox="0 0 25 24" fill="none" xmlns="http://www.w3.org/2000/svg">
<path opacity="0.3" fill-rule="evenodd" clip-rule="evenodd" d="M4.16097 12.5896C4.63995 13.3312 5.20583 14.0733 5.85274 14.7634C7.66245 16.6937 9.72796 17.8333 12.0156 17.8333C14.3033 17.8333 16.3688 16.6937 18.1785 14.7634C18.8254 14.0733 19.3913 13.3312 19.8703 12.5896C20.0062 12.3791 20.1268 12.1814 20.2317 12C20.1268 11.8186 20.0062 11.6209 19.8703 11.4104C19.3913 10.6688 18.8254 9.92665 18.1785 9.23662C16.3688 7.30626 14.3033 6.16667 12.0156 6.16667C9.72796 6.16667 7.66245 7.30626 5.85274 9.23662C5.20583 9.92665 4.63995 10.6688 4.16097 11.4104C4.02502 11.6209 3.90445 11.8186 3.79955 12C3.90445 12.1814 4.02502 12.3791 4.16097 12.5896ZM2.1036 11.6273C2.22074 11.393 2.4406 11.0022 2.7609 10.5062C3.29104 9.68537 3.91656 8.86502 4.63684 8.09672C6.73338 5.86041 9.19912 4.5 12.0156 4.5C14.8321 4.5 17.2979 5.86041 19.3944 8.09672C20.1147 8.86502 20.7402 9.68537 21.2703 10.5062C21.5907 11.0022 21.8105 11.393 21.9276 11.6273C22.045 11.8619 22.045 12.1381 21.9276 12.3727C21.8105 12.607 21.5907 12.9978 21.2703 13.4938C20.7402 14.3146 20.1147 15.135 19.3944 15.9033C17.2979 18.1396 14.8321 19.5 12.0156 19.5C9.19912 19.5 6.73338 18.1396 4.63684 15.9033C3.91656 15.135 3.29104 14.3146 2.7609 13.4938C2.4406 12.9978 2.22074 12.607 2.1036 12.3727C1.9863 12.1381 1.9863 11.8619 2.1036 11.6273Z" fill="white"/>
<path opacity="0.3" fill-rule="evenodd" clip-rule="evenodd" d="M12.015 15.3337C10.174 15.3337 8.68164 13.8413 8.68164 12.0003C8.68164 10.1594 10.174 8.66699 12.015 8.66699C13.8559 8.66699 15.3483 10.1594 15.3483 12.0003C15.3483 13.8413 13.8559 15.3337 12.015 15.3337ZM12.015 13.667C12.9354 13.667 13.6816 12.9208 13.6816 12.0003C13.6816 11.0799 12.9354 10.3337 12.015 10.3337C11.0945 10.3337 10.3483 11.0799 10.3483 12.0003C10.3483 12.9208 11.0945 13.667 12.015 13.667Z" fill="white"/>
</svg>
