<svg width="15" height="17" viewBox="0 0 15 17" fill="none" xmlns="http://www.w3.org/2000/svg">
<path d="M3.68052 1.63603L3.68053 1.63603C7.20011 2.98436 10.5008 4.92842 13.4584 7.39696L13.907 6.85954L13.4584 7.39696C14.121 7.94998 14.121 9.05971 13.4584 9.61273L13.907 10.1501L13.4584 9.61273C10.5008 12.0813 7.2001 14.0254 3.68054 15.3736L3.68047 15.3736L3.02413 15.6252C3.02411 15.6252 3.02408 15.6252 3.02406 15.6252C2.26458 15.916 1.34176 15.3856 1.21715 14.3607L0.522271 14.4452L1.21715 14.3607C0.74897 10.51 0.74897 6.49965 1.21715 2.64902L0.522271 2.56453L1.21715 2.64902C1.34177 1.62411 2.26465 1.09362 3.02412 1.38456C3.02412 1.38456 3.02412 1.38456 3.02413 1.38456L3.68052 1.63603Z" stroke="#7F7E86" stroke-width="1.4"/>
</svg>
