<svg width="16" height="18" viewBox="0 0 16 18" fill="none" xmlns="http://www.w3.org/2000/svg">
<path fill-rule="evenodd" clip-rule="evenodd" d="M12.7501 1.76562C11.8388 1.76562 11.1001 2.50436 11.1001 3.41563C11.1001 3.70406 11.1741 3.9752 11.3042 4.21111C11.3116 4.22236 11.3187 4.23387 11.3256 4.24564C11.3324 4.25731 11.3388 4.2691 11.345 4.28098C11.6355 4.75183 12.1562 5.06563 12.7501 5.06563C13.6614 5.06563 14.4001 4.32689 14.4001 3.41563C14.4001 2.50436 13.6614 1.76562 12.7501 1.76562ZM10.4849 5.60458C11.0577 6.19716 11.8609 6.56563 12.7501 6.56563C14.4898 6.56563 15.9001 5.15532 15.9001 3.41563C15.9001 1.67593 14.4898 0.265625 12.7501 0.265625C11.0104 0.265625 9.6001 1.67593 9.6001 3.41563C9.6001 3.72601 9.64499 4.02592 9.72864 4.3092L5.41497 6.82656C4.84222 6.2341 4.03913 5.86572 3.15 5.86572C1.4103 5.86572 0 7.27603 0 9.01572C0 10.7554 1.4103 12.1657 3.15 12.1657C4.0393 12.1657 4.84252 11.7972 5.41529 11.2046L9.72964 13.7186C9.64535 14.0029 9.6001 14.304 9.6001 14.6156C9.6001 16.3553 11.0104 17.7656 12.7501 17.7656C14.4898 17.7656 15.9001 16.3553 15.9001 14.6156C15.9001 12.8759 14.4898 11.4656 12.7501 11.4656C11.8621 11.4656 11.06 11.833 10.4874 12.4241L6.17151 9.90913C6.25513 9.6259 6.3 9.32605 6.3 9.01572C6.3 8.70523 6.25508 8.40524 6.17138 8.12187L10.4849 5.60458ZM4.5524 8.14594C4.55917 8.15931 4.56638 8.17256 4.57404 8.18568C4.58176 8.19892 4.58983 8.21183 4.59823 8.22442C4.72686 8.45935 4.8 8.72899 4.8 9.01572C4.8 9.30237 4.7269 9.57195 4.59833 9.80683C4.58981 9.8196 4.58163 9.83271 4.5738 9.84615C4.5662 9.85918 4.55904 9.87236 4.55231 9.88564C4.26118 10.354 3.742 10.6657 3.15 10.6657C2.23873 10.6657 1.5 9.92699 1.5 9.01572C1.5 8.10445 2.23873 7.36572 3.15 7.36572C3.74206 7.36572 4.26129 7.67756 4.5524 8.14594ZM11.1001 14.6156C11.1001 14.3454 11.165 14.0904 11.2801 13.8654C11.2995 13.8402 11.3174 13.8135 11.3338 13.7854C11.3496 13.7583 11.3635 13.7306 11.3755 13.7026C11.6712 13.2583 12.1764 12.9656 12.7501 12.9656C13.6614 12.9656 14.4001 13.7043 14.4001 14.6156C14.4001 15.5268 13.6614 16.2656 12.7501 16.2656C11.8388 16.2656 11.1001 15.5268 11.1001 14.6156Z" fill="#7F7E86"/>
</svg>
