<svg width="20" height="16" viewBox="0 0 20 16" fill="none" xmlns="http://www.w3.org/2000/svg">
<path d="M12.2879 1.49054C12.1955 0.751684 11.3227 0.407245 10.7506 0.883931L6.02437 4.82249C5.93975 4.893 5.8331 4.93162 5.72296 4.93162H2.06184C1.41175 4.93162 0.884766 5.45862 0.884766 6.10869V10.3461C0.884766 10.9963 1.41175 11.5232 2.06184 11.5232H5.72296C5.8331 11.5232 5.93975 11.5618 6.02437 11.6323L10.7506 15.5709C11.3227 16.0476 12.1955 15.7031 12.2879 14.9643L12.3781 14.2425C12.8774 10.248 12.8774 6.20684 12.3781 2.21231L12.2879 1.49054Z" fill="white"/>
<path d="M17.2777 2.52468C17.6479 2.40221 18.0475 2.60312 18.1699 2.97344C18.7165 4.62602 19.012 6.39209 19.012 8.22568C19.012 10.0594 18.7165 11.8254 18.1699 13.478C18.0475 13.8483 17.6479 14.0492 17.2777 13.9268C16.9073 13.8042 16.7064 13.4048 16.8289 13.0344C17.3287 11.5232 17.5995 9.90673 17.5995 8.22568C17.5995 6.54463 17.3287 4.92826 16.8289 3.41698C16.7064 3.04665 16.9073 2.64716 17.2777 2.52468Z" fill="white"/>
<path d="M15.5119 4.41159C15.3774 4.04548 14.9715 3.85773 14.6054 3.99226C14.2393 4.12677 14.0516 4.53262 14.1861 4.89873C14.567 5.93543 14.7753 7.05632 14.7753 8.22746C14.7753 9.19888 14.632 10.1356 14.3658 11.0183C14.3511 11.0674 14.3358 11.1165 14.3203 11.1652C14.2783 11.2968 14.2335 11.4272 14.1861 11.5562C14.0516 11.9223 14.2393 12.3282 14.6054 12.4628C14.9715 12.5972 15.3774 12.4095 15.5119 12.0433C15.5664 11.8953 15.6177 11.7457 15.6659 11.5947C15.6838 11.5386 15.7012 11.4824 15.7183 11.426C16.0237 10.4125 16.1878 9.33853 16.1878 8.22746C16.1878 6.88767 15.9493 5.60201 15.5119 4.41159Z" fill="white"/>
</svg>
