<svg width="621" height="923" viewBox="0 0 621 923" fill="none" xmlns="http://www.w3.org/2000/svg">
<rect width="621" height="1344" rx="80" fill="#27384E"/>
<rect x="26" y="117" width="564" height="1138" rx="20" fill="url(#paint0_linear)"/>
<rect x="66" y="265" width="484" height="137" rx="20" fill="#27384E"/>
<path d="M165.473 188.807C164.768 186.091 162.643 184.318 158.871 184.318C154.928 184.318 152.132 186.398 152.132 189.489C152.132 191.966 153.632 193.614 156.905 194.341L159.859 194.989C161.541 195.364 162.325 196.114 162.325 197.205C162.325 198.557 160.882 199.614 158.655 199.614C156.621 199.614 155.314 198.739 154.905 197.023L151.621 197.523C152.189 200.614 154.757 202.352 158.678 202.352C162.893 202.352 165.814 200.114 165.814 196.955C165.814 194.489 164.246 192.966 161.041 192.227L158.268 191.591C156.348 191.136 155.518 190.489 155.53 189.307C155.518 187.966 156.973 187.011 158.905 187.011C161.018 187.011 161.996 188.182 162.393 189.352L165.473 188.807ZM177.697 184.545H174.118V180.364H170.72V184.545H168.163V187.273H170.72V197.58C170.709 200.75 173.129 202.284 175.811 202.227C176.891 202.216 177.618 202.011 178.016 201.864L177.402 199.057C177.175 199.102 176.754 199.205 176.209 199.205C175.107 199.205 174.118 198.841 174.118 196.875V187.273H177.697V184.545ZM181.456 202H184.854V191.341C184.854 189.057 186.615 187.409 189.024 187.409C189.729 187.409 190.524 187.534 190.797 187.614V184.364C190.456 184.318 189.786 184.284 189.354 184.284C187.308 184.284 185.558 185.443 184.922 187.318H184.74V184.545H181.456V202ZM204.794 194.761C204.805 197.727 202.601 199.136 200.692 199.136C198.589 199.136 197.135 197.614 197.135 195.239V184.545H193.737V195.648C193.737 199.977 196.112 202.227 199.464 202.227C202.089 202.227 203.874 200.841 204.68 198.977H204.862V202H208.203V184.545H204.794V194.761ZM223.825 194.761C223.837 197.727 221.632 199.136 219.723 199.136C217.621 199.136 216.166 197.614 216.166 195.239V184.545H212.768V195.648C212.768 199.977 215.143 202.227 218.496 202.227C221.121 202.227 222.905 200.841 223.712 198.977H223.893V202H227.234V184.545H223.825V194.761ZM231.8 202H235.197V191.239C235.197 188.886 236.845 187.25 238.777 187.25C240.663 187.25 241.97 188.5 241.97 190.398V202H245.357V190.875C245.357 188.773 246.641 187.25 248.857 187.25C250.652 187.25 252.129 188.25 252.129 190.614V202H255.527V190.295C255.527 186.307 253.3 184.318 250.141 184.318C247.629 184.318 245.743 185.523 244.902 187.386H244.72C243.959 185.477 242.357 184.318 240.027 184.318C237.72 184.318 236.004 185.466 235.277 187.386H235.061V184.545H231.8V202ZM262.32 202.216C263.558 202.216 264.592 201.205 264.592 199.943C264.592 198.705 263.558 197.682 262.32 197.682C261.07 197.682 260.047 198.705 260.047 199.943C260.047 201.205 261.07 202.216 262.32 202.216ZM276.496 202.352C280.621 202.352 283.291 199.875 283.666 196.477H280.359C279.928 198.364 278.462 199.477 276.518 199.477C273.643 199.477 271.791 197.08 271.791 193.273C271.791 189.534 273.678 187.182 276.518 187.182C278.678 187.182 279.996 188.545 280.359 190.182H283.666C283.303 186.659 280.428 184.318 276.462 184.318C271.541 184.318 268.359 188.023 268.359 193.352C268.359 198.614 271.428 202.352 276.496 202.352ZM294.652 202.352C299.572 202.352 302.788 198.75 302.788 193.352C302.788 187.92 299.572 184.318 294.652 184.318C289.732 184.318 286.516 187.92 286.516 193.352C286.516 198.75 289.732 202.352 294.652 202.352ZM294.663 199.5C291.447 199.5 289.947 196.693 289.947 193.341C289.947 190 291.447 187.159 294.663 187.159C297.857 187.159 299.357 190 299.357 193.341C299.357 196.693 297.857 199.5 294.663 199.5ZM306.581 202H309.979V191.239C309.979 188.886 311.626 187.25 313.558 187.25C315.445 187.25 316.751 188.5 316.751 190.398V202H320.138V190.875C320.138 188.773 321.422 187.25 323.638 187.25C325.433 187.25 326.911 188.25 326.911 190.614V202H330.308V190.295C330.308 186.307 328.081 184.318 324.922 184.318C322.411 184.318 320.524 185.523 319.683 187.386H319.501C318.74 185.477 317.138 184.318 314.808 184.318C312.501 184.318 310.786 185.466 310.058 187.386H309.842V184.545H306.581V202ZM343.726 177.636H340.692L333.192 205.5H336.226L343.726 177.636ZM351.692 202.386C354.578 202.386 356.203 200.92 356.851 199.614H356.987V202H360.305V190.409C360.305 185.33 356.305 184.318 353.533 184.318C350.374 184.318 347.464 185.591 346.328 188.773L349.521 189.5C350.021 188.261 351.294 187.068 353.578 187.068C355.771 187.068 356.896 188.216 356.896 190.193V190.273C356.896 191.511 355.624 191.489 352.487 191.852C349.18 192.239 345.794 193.102 345.794 197.068C345.794 200.5 348.374 202.386 351.692 202.386ZM352.43 199.659C350.51 199.659 349.124 198.795 349.124 197.114C349.124 195.295 350.737 194.648 352.703 194.386C353.805 194.239 356.419 193.943 356.908 193.455V195.705C356.908 197.773 355.26 199.659 352.43 199.659ZM372.183 202.352C376.308 202.352 378.979 199.875 379.354 196.477H376.047C375.615 198.364 374.149 199.477 372.206 199.477C369.331 199.477 367.479 197.08 367.479 193.273C367.479 189.534 369.365 187.182 372.206 187.182C374.365 187.182 375.683 188.545 376.047 190.182H379.354C378.99 186.659 376.115 184.318 372.149 184.318C367.229 184.318 364.047 188.023 364.047 193.352C364.047 198.614 367.115 202.352 372.183 202.352ZM391.135 184.545H387.555V180.364H384.158V184.545H381.601V187.273H384.158V197.58C384.146 200.75 386.567 202.284 389.249 202.227C390.328 202.216 391.055 202.011 391.453 201.864L390.839 199.057C390.612 199.102 390.192 199.205 389.646 199.205C388.544 199.205 387.555 198.841 387.555 196.875V187.273H391.135V184.545ZM394.893 202H398.291V184.545H394.893V202ZM396.609 181.852C397.78 181.852 398.757 180.943 398.757 179.83C398.757 178.716 397.78 177.795 396.609 177.795C395.428 177.795 394.462 178.716 394.462 179.83C394.462 180.943 395.428 181.852 396.609 181.852ZM417.794 184.545H414.146L409.737 197.977H409.555L405.135 184.545H401.487L407.828 202H411.464L417.794 184.545ZM425.536 202.386C428.422 202.386 430.047 200.92 430.695 199.614H430.831V202H434.149V190.409C434.149 185.33 430.149 184.318 427.376 184.318C424.217 184.318 421.308 185.591 420.172 188.773L423.365 189.5C423.865 188.261 425.138 187.068 427.422 187.068C429.615 187.068 430.74 188.216 430.74 190.193V190.273C430.74 191.511 429.467 191.489 426.331 191.852C423.024 192.239 419.638 193.102 419.638 197.068C419.638 200.5 422.217 202.386 425.536 202.386ZM426.274 199.659C424.354 199.659 422.967 198.795 422.967 197.114C422.967 195.295 424.581 194.648 426.547 194.386C427.649 194.239 430.263 193.943 430.751 193.455V195.705C430.751 197.773 429.104 199.659 426.274 199.659ZM446.822 184.545H443.243V180.364H439.845V184.545H437.288V187.273H439.845V197.58C439.834 200.75 442.254 202.284 444.936 202.227C446.016 202.216 446.743 202.011 447.141 201.864L446.527 199.057C446.3 199.102 445.879 199.205 445.334 199.205C444.232 199.205 443.243 198.841 443.243 196.875V187.273H446.822V184.545ZM457.916 202.352C461.723 202.352 464.416 200.477 465.189 197.636L461.973 197.057C461.359 198.705 459.882 199.545 457.95 199.545C455.041 199.545 453.087 197.659 452.996 194.295H465.405V193.091C465.405 186.784 461.632 184.318 457.678 184.318C452.814 184.318 449.609 188.023 449.609 193.386C449.609 198.807 452.768 202.352 457.916 202.352ZM453.007 191.75C453.143 189.273 454.939 187.125 457.7 187.125C460.337 187.125 462.064 189.08 462.075 191.75H453.007Z" fill="#686EFF"/>
<defs>
<linearGradient id="paint0_linear" x1="308" y1="117" x2="308" y2="1255" gradientUnits="userSpaceOnUse">
<stop stop-color="#0C1021"/>
<stop offset="1" stop-color="#27384E"/>
</linearGradient>
</defs>
</svg>
