<svg width="77" height="100" viewBox="0 0 77 100" fill="none" xmlns="http://www.w3.org/2000/svg">
<path d="M70.9412 0H5.52941C4.06292 0 2.65649 0.582561 1.61953 1.61953C0.582561 2.65649 0 4.06292 0 5.52941V94.4706C0 95.9371 0.582561 97.3435 1.61953 98.3805C2.65649 99.4174 4.06292 100 5.52941 100H70.9412C72.4077 100 73.8141 99.4174 74.8511 98.3805C75.888 97.3435 76.4706 95.9371 76.4706 94.4706V5.52941C76.4706 4.06292 75.888 2.65649 74.8511 1.61953C73.8141 0.582561 72.4077 0 70.9412 0ZM50 75H14.7059V66.1765H50V75ZM61.7647 54.4118H14.7059V45.5882H61.7647V54.4118ZM61.7647 33.8235H14.7059V25H61.7647V33.8235Z" fill="#9BADBE" fill-opacity="0.5"/>
</svg>
