<svg width="103" height="28" viewBox="0 0 86 18" fill="none" xmlns="http://www.w3.org/2000/svg">
<path d="M24.6865 3.44564H27.6462L28.1151 5.66937H28.2389C28.8653 4.51423 30.1482 3.06937 33.1679 3.44564V6.8057C29.398 6.21496 28.1151 8.2769 28.1151 11.3096V17.5331H24.6865V3.44564Z" fill="white"/>
<path d="M61.5829 3.44727V11.6875C61.5829 14.7202 59.8049 17.7793 55.5623 17.7793H55.5361C51.2673 17.7793 49.5117 14.7202 49.5117 11.6875V3.44727H52.9403V11.3827C52.9403 13.17 53.698 14.3966 55.5623 14.3966C57.4004 14.3966 58.1544 13.1738 58.1544 11.3827V3.44727H61.5829Z" fill="white"/>
<path d="M64.1561 3.43865H67.1195L67.5884 5.66615H67.7084C68.4099 4.18742 70.0191 3.21289 71.6546 3.21289C73.8866 3.21289 75.4208 4.16485 76.0322 5.89943H76.1448C76.7862 4.44705 78.4592 3.21289 80.6874 3.21289C83.7259 3.21289 85.6802 5.42158 85.6802 8.41666V17.5336H82.2779V9.45139C82.2779 7.4647 81.2463 6.15153 79.5996 6.15153C77.7578 6.15153 76.6174 7.4647 76.6174 9.45139V17.5336H73.2151V9.45139C73.2151 7.4647 72.1836 6.15153 70.5368 6.15153C68.725 6.15153 67.5809 7.4647 67.5809 9.45139V17.5336H64.1523V3.43865H64.1561Z" fill="white"/>
<path d="M46.9384 3.44727V11.6875C46.9384 14.7202 45.1603 17.7793 40.9178 17.7793H40.8915C36.6227 17.7793 34.8672 14.7202 34.8672 11.6875V3.44727H38.2957V11.3827C38.2957 13.17 39.0535 14.3966 40.9178 14.3966C42.7559 14.3966 43.5098 13.1738 43.5098 11.3827V3.44727H46.9384Z" fill="white"/>
<path d="M22.1131 6.53575V3.4466H18.6808V0L15.4361 0.466571V3.44284H13.1704V6.53199H15.4361V13.2634C15.4361 16.044 16.9291 18.5537 22.1131 17.2932V14.1251C19.5098 14.8701 18.6808 14.1025 18.6808 12.24V6.53575H22.1131Z" fill="white"/>
<path d="M3.47356 13.112C3.84493 14.3123 4.43761 14.8918 6.17064 14.8918C7.48729 14.8918 8.11749 14.2521 8.11749 13.5297C8.11749 12.9164 7.66735 12.367 6.53075 12.145C6.53075 12.145 5.09406 11.8177 4.5839 11.701C1.75929 11.035 0.453889 9.60523 0.453889 7.68251C0.453889 5.23301 2.7871 3.20117 5.96058 3.20117C10.1506 3.20117 11.4222 5.7786 11.5986 7.39655L8.22252 7.78786C8.06122 6.89987 7.66735 6.01188 5.99434 6.01188C4.94777 6.01188 4.10751 6.5951 4.10751 7.37397C4.10751 8.03996 4.64767 8.55168 5.45417 8.6909C5.45417 8.6909 7.02965 9.06341 7.55106 9.18381C10.4169 9.83099 11.9212 11.2157 11.9212 13.2212C11.9212 15.4487 10.0643 17.7288 6.2044 17.7288C1.77054 17.7326 0.187557 15.1627 0 13.3416L3.47356 13.112Z" fill="white"/>
</svg>
