<svg width="86" height="18" viewBox="0 0 86 18" fill="none" xmlns="http://www.w3.org/2000/svg">
<path d="M24.6863 3.44661H27.646L28.1149 5.67035H28.2387C28.8651 4.51521 30.148 3.07035 33.1677 3.44661V6.80667C29.3978 6.21594 28.1149 8.27788 28.1149 11.3106V17.534H24.6863V3.44661Z" fill="white"/>
<path d="M61.5827 3.44629V11.6865C61.5827 14.7192 59.8046 17.7783 55.5621 17.7783H55.5358C51.267 17.7783 49.5115 14.7192 49.5115 11.6865V3.44629H52.94V11.3818C52.94 13.169 53.6978 14.3957 55.5621 14.3957C57.4001 14.3957 58.1541 13.1728 58.1541 11.3818V3.44629H61.5827Z" fill="white"/>
<path d="M64.1559 3.43914H67.1193L67.5882 5.66664H67.7083C68.4097 4.18791 70.019 3.21338 71.6545 3.21338C73.8864 3.21338 75.4206 4.16533 76.0321 5.89992H76.1446C76.786 4.44753 78.4591 3.21338 80.6872 3.21338C83.7257 3.21338 85.68 5.42206 85.68 8.41715V17.5341H82.2777V9.45188C82.2777 7.46519 81.2462 6.15202 79.5994 6.15202C77.7576 6.15202 76.6172 7.46519 76.6172 9.45188V17.5341H73.2149V9.45188C73.2149 7.46519 72.1834 6.15202 70.5366 6.15202C68.7248 6.15202 67.5807 7.46519 67.5807 9.45188V17.5341H64.1522V3.43914H64.1559Z" fill="white"/>
<path d="M46.9382 3.44629V11.6865C46.9382 14.7192 45.1602 17.7783 40.9176 17.7783H40.8914C36.6226 17.7783 34.867 14.7192 34.867 11.6865V3.44629H38.2956V11.3818C38.2956 13.169 39.0533 14.3957 40.9176 14.3957C42.7557 14.3957 43.5097 13.1728 43.5097 11.3818V3.44629H46.9382Z" fill="white"/>
<path d="M22.113 6.53575V3.4466H18.6807V0L15.436 0.466571V3.44284H13.1703V6.53199H15.436V13.2634C15.436 16.044 16.9289 18.5537 22.113 17.2932V14.1251C19.5097 14.8701 18.6807 14.1025 18.6807 12.24V6.53575H22.113Z" fill="white"/>
<path d="M3.47356 13.113C3.84493 14.3133 4.43761 14.8928 6.17064 14.8928C7.48729 14.8928 8.11749 14.2531 8.11749 13.5307C8.11749 12.9174 7.66735 12.368 6.53075 12.146C6.53075 12.146 5.09406 11.8187 4.5839 11.702C1.75929 11.036 0.453889 9.60621 0.453889 7.68348C0.453889 5.23399 2.7871 3.20215 5.96058 3.20215C10.1506 3.20215 11.4222 5.77958 11.5986 7.39752L8.22252 7.78884C8.06122 6.90085 7.66735 6.01286 5.99434 6.01286C4.94777 6.01286 4.10751 6.59607 4.10751 7.37495C4.10751 8.04094 4.64767 8.55266 5.45417 8.69188C5.45417 8.69188 7.02965 9.06438 7.55106 9.18479C10.4169 9.83197 11.9212 11.2166 11.9212 13.2221C11.9212 15.4496 10.0643 17.7298 6.2044 17.7298C1.77054 17.7336 0.187557 15.1637 0 13.3425L3.47356 13.113Z" fill="white"/>
</svg>
