<svg width="24" height="24" viewBox="0 0 24 24" fill="none" xmlns="http://www.w3.org/2000/svg">
<path d="M15.8578 4.25678C15.8578 3.83073 15.5508 3.48535 15.172 3.48535H6.21204C4.73626 3.48535 3.5149 4.73447 3.5149 6.31392V18.6568C3.5149 20.2362 4.73626 21.4854 6.21204 21.4854H15.172C15.5508 21.4854 15.8578 21.14 15.8578 20.7139C15.8578 20.2879 15.5508 19.9425 15.172 19.9425H6.21204C5.46606 19.9425 4.88633 19.3496 4.88633 18.6568L4.88633 6.31392C4.88633 5.62111 5.46606 5.02821 6.21204 5.02821H15.172C15.5508 5.02821 15.8578 4.68283 15.8578 4.25678ZM20.3351 12.0778L20.2604 11.9913L16.1461 7.87701C15.8448 7.57575 15.3564 7.57575 15.0551 7.87701C14.7813 8.15089 14.7564 8.57946 14.9804 8.88146L15.0551 8.96798L17.8513 11.7655L10.1492 11.7654C9.9168 11.7654 9.72441 12.0508 9.69135 12.4228L9.68633 12.5368C9.68633 12.9241 9.85759 13.2447 10.0808 13.2998L10.1492 13.3082L17.8523 13.3085L15.0551 16.1056C14.7813 16.3795 14.7564 16.808 14.9804 17.11L15.0551 17.1965C15.329 17.4704 15.7576 17.4953 16.0596 17.2712L16.1461 17.1965L20.2604 13.0823C20.5343 12.8084 20.5592 12.3798 20.3351 12.0778Z" fill="url(#paint0_linear)"/>
<defs>
<linearGradient id="paint0_linear" x1="20.4863" y1="12.4854" x2="3.5149" y2="12.4854" gradientUnits="userSpaceOnUse">
<stop stop-color="#FF6D2E"/>
<stop offset="1" stop-color="#DB441C"/>
</linearGradient>
</defs>
</svg>
