<svg width="24" height="24" viewBox="0 0 24 24" fill="none" xmlns="http://www.w3.org/2000/svg">
<path fill-rule="evenodd" clip-rule="evenodd" d="M14.9091 13.7585C14.9091 12.3611 16.0487 11.2282 17.4545 11.2282C18.8604 11.2282 20 12.3611 20 13.7585V16.4696C20 17.8671 18.8604 19 17.4545 19C16.0487 19 14.9091 17.8671 14.9091 16.4696V13.7585ZM17.4545 12.6741C16.8521 12.6741 16.3636 13.1596 16.3636 13.7585V16.4696C16.3636 17.0686 16.8521 17.5541 17.4545 17.5541C18.057 17.5541 18.5455 17.0686 18.5455 16.4696V13.7585C18.5455 13.1596 18.057 12.6741 17.4545 12.6741Z" fill="url(#paint0_linear)"/>
<path fill-rule="evenodd" clip-rule="evenodd" d="M4 13.7585C4 12.3611 5.13964 11.2282 6.54545 11.2282C7.95127 11.2282 9.09091 12.3611 9.09091 13.7585V16.4696C9.09091 17.8671 7.95127 19 6.54545 19C5.13964 19 4 17.8671 4 16.4696V13.7585ZM6.54545 12.6741C5.94296 12.6741 5.45455 13.1596 5.45455 13.7585V16.4696C5.45455 17.0686 5.94296 17.5541 6.54545 17.5541C7.14795 17.5541 7.63636 17.0686 7.63636 16.4696V13.7585C7.63636 13.1596 7.14795 12.6741 6.54545 12.6741Z" fill="url(#paint1_linear)"/>
<path fill-rule="evenodd" clip-rule="evenodd" d="M4.72727 12.1319C5.12893 12.1319 5.45455 12.4556 5.45455 12.8548V15.5659C5.45455 15.9652 5.12893 16.2889 4.72727 16.2889C4.32561 16.2889 4 15.9652 4 15.5659V12.8548C4 12.4556 4.32561 12.1319 4.72727 12.1319Z" fill="url(#paint2_linear)"/>
<path fill-rule="evenodd" clip-rule="evenodd" d="M19.2727 12.1319C19.6744 12.1319 20 12.4556 20 12.8548V15.5659C20 15.9652 19.6744 16.2889 19.2727 16.2889C18.8711 16.2889 18.5455 15.9652 18.5455 15.5659V12.8548C18.5455 12.4556 18.8711 12.1319 19.2727 12.1319Z" fill="url(#paint3_linear)"/>
<path fill-rule="evenodd" clip-rule="evenodd" d="M19.2727 13.5792C19.6744 13.5792 20 13.2555 20 12.8563C20 10.5331 19.1756 8.29047 17.6862 6.62484C16.1943 4.95643 14.1512 4 12 4C9.84877 4 7.80571 4.95643 6.31384 6.62484C4.82444 8.29047 4 10.5331 4 12.8563C4 13.2555 4.32561 13.5792 4.72727 13.5792C5.12893 13.5792 5.45455 13.2555 5.45455 12.8563C5.45455 10.8652 6.16257 8.9704 7.40098 7.58545C8.6369 6.20328 10.2935 5.44592 12 5.44592C13.7065 5.44592 15.3631 6.20328 16.599 7.58545C17.8374 8.9704 18.5455 10.8652 18.5455 12.8563C18.5455 13.2555 18.8711 13.5792 19.2727 13.5792Z" fill="url(#paint4_linear)"/>
<defs>
<linearGradient id="paint0_linear" x1="12" y1="13.5789" x2="12" y2="3.99965" gradientUnits="userSpaceOnUse">
<stop stop-color="#FF6D2E"/>
<stop offset="1" stop-color="#DB441C"/>
</linearGradient>
<linearGradient id="paint1_linear" x1="12" y1="13.5789" x2="12" y2="3.99965" gradientUnits="userSpaceOnUse">
<stop stop-color="#FF6D2E"/>
<stop offset="1" stop-color="#DB441C"/>
</linearGradient>
<linearGradient id="paint2_linear" x1="12" y1="13.5789" x2="12" y2="3.99965" gradientUnits="userSpaceOnUse">
<stop stop-color="#FF6D2E"/>
<stop offset="1" stop-color="#DB441C"/>
</linearGradient>
<linearGradient id="paint3_linear" x1="12" y1="13.5789" x2="12" y2="3.99965" gradientUnits="userSpaceOnUse">
<stop stop-color="#FF6D2E"/>
<stop offset="1" stop-color="#DB441C"/>
</linearGradient>
<linearGradient id="paint4_linear" x1="12" y1="13.5789" x2="12" y2="3.99965" gradientUnits="userSpaceOnUse">
<stop stop-color="#FF6D2E"/>
<stop offset="1" stop-color="#DB441C"/>
</linearGradient>
</defs>
</svg>
