<svg width="25" height="24" viewBox="0 0 25 24" fill="none" xmlns="http://www.w3.org/2000/svg">
<path fill-rule="evenodd" clip-rule="evenodd" d="M17.7873 11.748C17.4421 11.748 17.1624 11.9989 17.121 12.3224C16.8241 14.5143 14.8701 16.2044 12.4984 16.2044C10.1337 16.2044 8.18314 14.5242 7.87934 12.3422C7.83101 12.0055 7.54792 11.748 7.19234 11.748C6.78498 11.748 6.45356 12.0847 6.50535 12.471C6.84712 15.1051 9.0462 17.188 11.808 17.4884C11.808 17.4884 11.808 18.5976 11.808 19.3436C11.808 19.7067 12.1187 20.0038 12.4984 20.0038C12.8782 20.0038 13.1889 19.7067 13.1889 19.3436V17.4917C15.9541 17.1913 18.1498 15.1084 18.4915 12.4743C18.5433 12.088 18.2119 11.7513 17.8045 11.7513L17.7873 11.748Z" fill="white"/>
<path d="M12.4986 14.8835C10.4066 14.8835 8.70117 13.2561 8.70117 11.2524V6.63107C8.70117 4.63068 10.4031 3 12.4986 3C14.5942 3 16.2961 4.62738 16.2961 6.63107V11.2524C16.2961 13.2561 14.5907 14.8835 12.4986 14.8835ZM12.4986 4.32039C11.1661 4.32039 10.0821 5.35689 10.0821 6.63107V11.2524C10.0821 12.5266 11.1661 13.5631 12.4986 13.5631C13.8312 13.5631 14.9152 12.5266 14.9152 11.2524V6.63107C14.9152 5.35689 13.8312 4.32039 12.4986 4.32039Z" fill="white"/>
</svg>
