<svg width="71" height="67" viewBox="0 0 71 67" fill="none" xmlns="http://www.w3.org/2000/svg">
<path fill-rule="evenodd" clip-rule="evenodd" d="M68.6429 25.6096C50.3572 7.32392 20.6429 7.32392 2.35721 25.6096L1.21436 24.4668C20.1531 5.528 50.847 5.528 69.7858 24.4668L68.6429 25.6096ZM59.6606 34.5901C46.3544 21.2839 24.6401 21.2839 11.334 34.5901L12.4769 35.7329C25.1299 23.0799 45.783 23.0799 58.5177 35.7329L59.6606 34.5901ZM21.459 44.717C29.2141 36.9619 41.7855 36.9619 49.5406 44.717L48.3977 45.8598C41.2957 38.7578 29.7039 38.7578 22.6018 45.8598L21.459 44.717ZM32.7214 55.8988L31.5786 54.7559C33.701 52.6335 37.2929 52.6335 39.4153 54.7559L38.2725 55.8988C36.8031 54.3477 34.2724 54.3477 32.7214 55.8988Z" fill="#EEEEEE"/>
<path d="M2.35721 25.6096L1.86224 26.1046L2.35721 26.5996L2.85219 26.1046L2.35721 25.6096ZM68.6429 25.6096L68.1479 26.1046L68.6429 26.5996L69.1379 26.1046L68.6429 25.6096ZM1.21436 24.4668L0.719381 23.9718L0.224406 24.4668L0.71938 24.9617L1.21436 24.4668ZM69.7858 24.4668L70.2807 24.9617L70.7757 24.4668L70.2807 23.9718L69.7858 24.4668ZM11.334 34.5901L10.839 34.0951L10.3441 34.5901L10.839 35.085L11.334 34.5901ZM59.6606 34.5901L60.1555 35.085L60.6505 34.5901L60.1555 34.0951L59.6606 34.5901ZM12.4769 35.7329L11.9819 36.2279L12.4769 36.7229L12.9718 36.2279L12.4769 35.7329ZM58.5177 35.7329L58.0243 36.2295L58.5193 36.7213L59.0127 36.2279L58.5177 35.7329ZM49.5406 44.717L50.0356 45.212L50.5305 44.717L50.0356 44.222L49.5406 44.717ZM21.459 44.717L20.964 44.222L20.469 44.717L20.964 45.212L21.459 44.717ZM48.3977 45.8598L47.9028 46.3548L48.3977 46.8498L48.8927 46.3548L48.3977 45.8598ZM22.6018 45.8598L22.1068 46.3548L22.6018 46.8498L23.0968 46.3548L22.6018 45.8598ZM31.5786 54.7559L31.0836 54.2609L30.5886 54.7559L31.0836 55.2509L31.5786 54.7559ZM32.7214 55.8988L32.2264 56.3937L32.7214 56.8887L33.2164 56.3937L32.7214 55.8988ZM39.4153 54.7559L39.9103 55.2509L40.4053 54.7559L39.9103 54.2609L39.4153 54.7559ZM38.2725 55.8988L37.7643 56.3802L38.2589 56.9023L38.7674 56.3937L38.2725 55.8988ZM2.85219 26.1046C20.8645 8.09227 50.1356 8.09227 68.1479 26.1046L69.1379 25.1147C50.5788 6.55558 20.4213 6.55558 1.86224 25.1147L2.85219 26.1046ZM0.71938 24.9617L1.86224 26.1046L2.85219 25.1147L1.70933 23.9718L0.71938 24.9617ZM70.2807 23.9718C51.0686 4.75966 19.9315 4.75966 0.719381 23.9718L1.70933 24.9617C20.3747 6.29635 50.6254 6.29635 69.2908 24.9617L70.2807 23.9718ZM69.1379 26.1046L70.2807 24.9617L69.2908 23.9718L68.1479 25.1147L69.1379 26.1046ZM11.829 35.085C24.8617 22.0523 46.1328 22.0523 59.1656 35.085L60.1555 34.0951C46.576 20.5156 24.4185 20.5156 10.839 34.0951L11.829 35.085ZM12.9718 35.2379L11.829 34.0951L10.839 35.085L11.9819 36.2279L12.9718 35.2379ZM59.0111 35.2364C46.0043 22.3129 24.9092 22.3106 11.9819 35.2379L12.9718 36.2279C25.3507 23.8491 45.5617 23.8468 58.0243 36.2295L59.0111 35.2364ZM59.1656 34.0951L58.0227 35.2379L59.0127 36.2279L60.1555 35.085L59.1656 34.0951ZM50.0356 44.222C42.0071 36.1935 28.9925 36.1935 20.964 44.222L21.9539 45.212C29.4357 37.7302 41.5639 37.7302 49.0456 45.212L50.0356 44.222ZM48.8927 46.3548L50.0356 45.212L49.0456 44.222L47.9028 45.3649L48.8927 46.3548ZM23.0968 46.3548C29.9255 39.5261 41.0741 39.5261 47.9028 46.3548L48.8927 45.3649C41.5173 37.9895 29.4823 37.9895 22.1068 45.3649L23.0968 46.3548ZM20.964 45.212L22.1068 46.3548L23.0968 45.3649L21.9539 44.222L20.964 45.212ZM31.0836 55.2509L32.2264 56.3937L33.2164 55.4038L32.0735 54.2609L31.0836 55.2509ZM39.9103 54.2609C37.5145 51.8651 33.4794 51.8651 31.0836 54.2609L32.0735 55.2509C33.9226 53.4018 37.0713 53.4018 38.9203 55.2509L39.9103 54.2609ZM38.7674 56.3937L39.9103 55.2509L38.9203 54.2609L37.7775 55.4038L38.7674 56.3937ZM33.2164 56.3937C34.5017 55.1084 36.5782 55.1282 37.7643 56.3802L38.7806 55.4173C37.0279 53.5672 34.0432 53.587 32.2264 55.4038L33.2164 56.3937Z" fill="#EEEEEE"/>
<path d="M59.2088 11.9028L44.2477 24.5732L43.4492 25.2494L44.3789 25.7294L51.3331 29.32L22.6869 55.6582L34.2552 34.8977L34.6444 34.1993L33.9006 33.9058L21.2635 28.9204L44.8762 7.5803L59.2088 11.9028Z" fill="#F1A36B" stroke="#222222" stroke-width="1.4"/>
</svg>