<svg width="16" height="16" viewBox="0 0 16 16" fill="none" xmlns="http://www.w3.org/2000/svg">
<g opacity="0.9">
<path d="M15.7 8C15.7 12.2526 12.2526 15.7 8 15.7C3.7474 15.7 0.299993 12.2526 0.299993 8C0.299993 3.74741 3.7474 0.300001 8 0.300001C12.2526 0.300002 15.7 3.74741 15.7 8Z" fill="black" fill-opacity="0.2" stroke="white" stroke-width="0.6"/>
<g clip-path="url(#clip0)">
<path d="M11.0231 8.68158C11.4363 8.3367 11.4363 7.66383 11.0231 7.31895C9.77435 6.27671 8.37993 5.45522 6.89205 4.88522L6.62024 4.78109C6.10021 4.58187 5.55093 4.96138 5.48053 5.5404C5.28383 7.15817 5.28383 8.84236 5.48053 10.4601C5.55093 11.0392 6.10021 11.4186 6.62024 11.2194L6.89205 11.1153C8.37993 10.5453 9.77435 9.72381 11.0231 8.68158Z" fill="white"/>
</g>
</g>
<defs>
<clipPath id="clip0">
<rect width="6.66667" height="8" fill="white" transform="translate(5.33301 4)"/>
</clipPath>
</defs>
</svg>
