<svg width="70" height="70" viewBox="0 0 70 70" fill="none" xmlns="http://www.w3.org/2000/svg">
<g filter="url(#filter0_d)">
<circle cx="35" cy="35" r="25" fill="#E66625"/>
<path d="M44.4732 33.9371L29.6598 25.2952C29.5618 25.2349 29.4497 25.2021 29.3349 25.2003C29.2202 25.1984 29.107 25.2276 29.0072 25.2847C28.9073 25.3418 28.8243 25.4249 28.7668 25.5252C28.7093 25.6256 28.6793 25.7397 28.68 25.8557V43.1524C28.6807 43.2665 28.711 43.3784 28.7678 43.4769C28.8247 43.5754 28.9061 43.6571 29.004 43.7139C29.1019 43.7706 29.2128 43.8004 29.3256 43.8002C29.4384 43.8 29.5492 43.7699 29.6469 43.7129L44.4732 35.0711C44.5724 35.0142 44.6549 34.9318 44.7123 34.8322C44.7697 34.7326 44.8 34.6193 44.8 34.5041C44.8 34.3888 44.7697 34.2756 44.7123 34.1759C44.6549 34.0763 44.5724 33.9939 44.4732 33.9371Z" fill="white"/>
</g>
<defs>
<filter id="filter0_d" x="0" y="0" width="70" height="70" filterUnits="userSpaceOnUse" color-interpolation-filters="sRGB">
<feFlood flood-opacity="0" result="BackgroundImageFix"/>
<feColorMatrix in="SourceAlpha" type="matrix" values="0 0 0 0 0 0 0 0 0 0 0 0 0 0 0 0 0 0 127 0"/>
<feOffset/>
<feGaussianBlur stdDeviation="5"/>
<feColorMatrix type="matrix" values="0 0 0 0 0 0 0 0 0 0 0 0 0 0 0 0 0 0 0.25 0"/>
<feBlend mode="normal" in2="BackgroundImageFix" result="effect1_dropShadow"/>
<feBlend mode="normal" in="SourceGraphic" in2="effect1_dropShadow" result="shape"/>
</filter>
</defs>
</svg>
