<svg width="9" height="9" viewBox="0 0 9 9" fill="none" xmlns="http://www.w3.org/2000/svg">
<path d="M3.20364 5.30219C3.23933 5.34744 3.30851 5.34647 3.3457 5.30244C3.45058 5.17826 3.5501 5.06048 3.64912 4.94245C4.34546 4.11167 5.04161 3.28088 5.73777 2.44992C6.02294 2.10945 6.30831 1.76917 6.59293 1.42814C6.69795 1.30242 6.72875 1.2985 6.8436 1.41111C7.21579 1.77627 7.58743 2.14219 7.9587 2.50828C8.04646 2.5949 8.04665 2.64821 7.9587 2.73632C6.78942 3.9072 5.61976 5.0777 4.45011 6.24801C4.28998 6.40833 4.12856 6.56735 3.96844 6.72766C3.54949 7.14708 3.00603 7.15063 2.58782 6.73403C1.82896 5.97826 1.07139 5.22118 0.313079 4.46486C0.227358 4.37936 0.13904 4.29649 0.0548045 4.2095C-0.0181135 4.13411 -0.0184846 4.08304 0.05499 4.01009C0.411973 3.65596 0.769697 3.30259 1.12835 2.94996C1.20535 2.87419 1.2599 2.88373 1.33541 2.97764C1.95809 3.75249 2.58077 4.52734 3.20364 5.30219Z" fill="url(#paint0_linear)"/>
<defs>
<linearGradient id="paint0_linear" x1="4.19763" y1="-3.60732" x2="4.19763" y2="7.04436" gradientUnits="userSpaceOnUse">
<stop stop-color="#B61A09"/>
<stop offset="1" stop-color="#FF6D2E"/>
</linearGradient>
</defs>
</svg>
