<svg width="25" height="25" viewBox="0 0 25 25" fill="none" xmlns="http://www.w3.org/2000/svg">
<path d="M20.5 6.09039C18.0568 4.71857 15.302 3.99805 12.5 3.99805C9.69804 3.99805 6.94316 4.71857 4.5 6.09039C4.34133 6.18177 4.2108 6.31495 4.12263 6.47541C4.03447 6.63588 3.99205 6.81747 4 7.00039V7.75039C3.98842 10.5493 4.69251 13.3048 6.04542 15.7551C7.39832 18.2053 9.35512 20.2691 11.73 21.7504L11.98 21.9004C12.132 21.9882 12.3045 22.0344 12.48 22.0344C12.6555 22.0344 12.828 21.9882 12.98 21.9004L13.23 21.7504C15.6152 20.2722 17.5817 18.2073 18.942 15.7529C20.3022 13.2985 21.0108 10.5365 21 7.73039V7.00039C21.0079 6.81747 20.9655 6.63588 20.8774 6.47541C20.7892 6.31495 20.6587 6.18177 20.5 6.09039ZM12.5 6.50039C12.8956 6.50039 13.2822 6.61769 13.6111 6.83746C13.94 7.05722 14.1964 7.36958 14.3478 7.73503C14.4991 8.10048 14.5387 8.50261 14.4616 8.89057C14.3844 9.27854 14.1939 9.6349 13.9142 9.91461C13.6345 10.1943 13.2781 10.3848 12.8902 10.462C12.5022 10.5391 12.1001 10.4995 11.7346 10.3482C11.3692 10.1968 11.0568 9.94043 10.8371 9.61153C10.6173 9.28264 10.5 8.89596 10.5 8.50039C10.5 7.96996 10.7107 7.46125 11.0858 7.08618C11.4609 6.71111 11.9696 6.50039 12.5 6.50039ZM17 16.0004C17 16.133 16.9473 16.2602 16.8536 16.3539C16.7598 16.4477 16.6326 16.5004 16.5 16.5004H8.5C8.36739 16.5004 8.24021 16.4477 8.14644 16.3539C8.05268 16.2602 8 16.133 8 16.0004V14.5004C8 13.7047 8.31607 12.9417 8.87868 12.3791C9.44129 11.8165 10.2043 11.5004 11 11.5004H14C14.7956 11.5004 15.5587 11.8165 16.1213 12.3791C16.6839 12.9417 17 13.7047 17 14.5004V16.0004Z" fill="white"/>
</svg>
