<svg width="25" height="25" viewBox="0 0 25 25" fill="none" xmlns="http://www.w3.org/2000/svg">
<path d="M20.06 4H4.94C4.6907 4 4.4516 4.09904 4.27532 4.27532C4.09904 4.4516 4 4.6907 4 4.94V20.06C4 20.3093 4.09904 20.5484 4.27532 20.7247C4.4516 20.901 4.6907 21 4.94 21H20.06C20.3093 21 20.5484 20.901 20.7247 20.7247C20.901 20.5484 21 20.3093 21 20.06V4.94C21 4.6907 20.901 4.4516 20.7247 4.27532C20.5484 4.09904 20.3093 4 20.06 4ZM12.5 7C12.8956 7 13.2822 7.1173 13.6111 7.33706C13.94 7.55682 14.1964 7.86918 14.3478 8.23463C14.4991 8.60009 14.5387 9.00222 14.4616 9.39018C14.3844 9.77814 14.1939 10.1345 13.9142 10.4142C13.6345 10.6939 13.2781 10.8844 12.8902 10.9616C12.5022 11.0387 12.1001 10.9991 11.7346 10.8478C11.3692 10.6964 11.0568 10.44 10.8371 10.1111C10.6173 9.78224 10.5 9.39556 10.5 9C10.5 8.46957 10.7107 7.96086 11.0858 7.58579C11.4609 7.21071 11.9696 7 12.5 7ZM17 16.5C17 16.6326 16.9473 16.7598 16.8536 16.8536C16.7598 16.9473 16.6326 17 16.5 17H8.5C8.36739 17 8.24021 16.9473 8.14645 16.8536C8.05268 16.7598 8 16.6326 8 16.5V15C8 14.2044 8.31607 13.4413 8.87868 12.8787C9.44129 12.3161 10.2044 12 11 12H14C14.7956 12 15.5587 12.3161 16.1213 12.8787C16.6839 13.4413 17 14.2044 17 15V16.5Z" fill="white"/>
</svg>
