<svg width="31" height="36" viewBox="0 0 31 36" fill="none" xmlns="http://www.w3.org/2000/svg">
<path fill-rule="evenodd" clip-rule="evenodd" d="M15.3043 0C17.6864 0 19.8429 0.977002 21.4039 2.5566C22.9649 4.1362 23.9304 6.31839 23.9304 8.72878C23.9304 11.3503 22.7883 13.7019 20.9802 15.3019C23.9008 16.9419 26.3176 18.9486 28.009 21.4908C29.6507 23.9582 30.6087 26.9301 30.6087 30.1284C30.6087 31.0447 30.2966 31.8099 29.7247 32.446C29.0896 33.1525 28.143 33.7003 26.9593 34.1281C24.1254 35.1523 19.9539 35.4783 15.3043 35.4783C10.6547 35.4783 6.48326 35.1523 3.64938 34.1281C2.46567 33.7003 1.51909 33.1525 0.883957 32.446C0.312108 31.8099 0 31.0447 0 30.1284C0 26.9301 0.958033 23.9582 2.5997 21.4907C4.29116 18.9484 6.70815 16.9413 9.55045 15.7735C7.82029 13.7018 6.67826 11.3502 6.67826 8.72878C6.67826 6.31839 7.64377 4.1362 9.20478 2.5566C10.7658 0.977002 12.9223 0 15.3043 0Z" fill="url(#paint0_linear)" fill-opacity="0.5"/>
<defs>
<linearGradient id="paint0_linear" x1="6.93478" y1="1.33418e-06" x2="48.5913" y2="42.5206" gradientUnits="userSpaceOnUse">
<stop stop-color="white" stop-opacity="0.4"/>
<stop offset="1" stop-color="white" stop-opacity="0"/>
</linearGradient>
</defs>
</svg>
