<svg width="24" height="24" viewBox="0 0 24 24" fill="none" xmlns="http://www.w3.org/2000/svg">
<path fill-rule="evenodd" clip-rule="evenodd" d="M7.44286 6.64643C7.44286 5.18484 8.6277 4 10.0893 4C10.9078 4 11.6395 4.37162 12.125 4.95534C12.6105 4.37162 13.3422 4 14.1607 4C15.6223 4 16.8071 5.18484 16.8071 6.64643C16.8071 7.17109 16.6545 7.66009 16.3911 8.07143H17.0107C18.2475 8.07143 19.25 9.07399 19.25 10.3107V11.9393C19.25 12.5941 18.8083 13.1457 18.2067 13.3126C18.324 14.8 18.256 16.2971 18.0037 17.7693C17.8531 18.6485 17.139 19.322 16.2526 19.421L15.5079 19.5042C13.2596 19.7555 10.9904 19.7555 8.74203 19.5042L7.99739 19.421C7.11095 19.322 6.39692 18.6485 6.24628 17.7693C5.99399 16.2971 5.92604 14.8 6.04335 13.3126C5.44167 13.1457 5 12.5941 5 11.9393V10.3107C5 9.07399 6.00256 8.07143 7.23929 8.07143H7.85888C7.59554 7.66009 7.44286 7.17109 7.44286 6.64643ZM11.5143 6.64643C11.5143 5.85942 10.8763 5.22143 10.0893 5.22143C9.30228 5.22143 8.66429 5.85942 8.66429 6.64643C8.66429 7.43344 9.30228 8.07143 10.0893 8.07143C10.8763 8.07143 11.5143 7.43344 11.5143 6.64643ZM14.1607 8.07143C14.9477 8.07143 15.5857 7.43344 15.5857 6.64643C15.5857 5.85942 14.9477 5.22143 14.1607 5.22143C13.3737 5.22143 12.7357 5.85942 12.7357 6.64643C12.7357 7.43344 13.3737 8.07143 14.1607 8.07143ZM6.22143 10.3107C6.22143 9.74856 6.67714 9.29286 7.23929 9.29286H11.5143V12.1429H6.425C6.31257 12.1429 6.22143 12.0517 6.22143 11.9393V10.3107ZM12.7357 13.3643H16.9855C17.0997 14.7653 17.0375 16.176 16.7998 17.5631C16.7411 17.9059 16.4626 18.1686 16.117 18.2072L15.3723 18.2904C14.4959 18.3883 13.6161 18.4466 12.7357 18.465V13.3643ZM12.7357 12.1429H17.825C17.9375 12.1429 18.0286 12.0517 18.0286 11.9393V10.3107C18.0286 9.74856 17.5729 9.29286 17.0107 9.29286H12.7357V12.1429ZM11.5143 13.3643V18.465C10.6339 18.4466 9.75414 18.3883 8.8777 18.2904L8.13306 18.2072C7.78736 18.1686 7.50891 17.9059 7.45016 17.5631C7.21248 16.176 7.15032 14.7653 7.26455 13.3643H11.5143Z" fill="url(#paint0_linear)"/>
<defs>
<linearGradient id="paint0_linear" x1="12.1728" y1="-9.55921" x2="12.1728" y2="19.6927" gradientUnits="userSpaceOnUse">
<stop stop-color="#B61A09"/>
<stop offset="1" stop-color="#FF6D2E"/>
</linearGradient>
</defs>
</svg>
