<svg width="24" height="24" viewBox="0 0 24 24" fill="none" xmlns="http://www.w3.org/2000/svg">
<path d="M0 12C0 5.37258 5.37258 0 12 0C18.6274 0 24 5.37258 24 12C24 18.6274 18.6274 24 12 24C5.37258 24 0 18.6274 0 12Z" fill="#2E4259"/>
<path d="M17.2103 11.6731L8.60897 6.65529C8.55207 6.62026 8.48694 6.60122 8.42032 6.60015C8.3537 6.59907 8.28801 6.61599 8.23002 6.64916C8.17203 6.68233 8.12385 6.73055 8.09045 6.78884C8.05706 6.84712 8.03966 6.91337 8.04005 6.98073V17.024C8.04044 17.0902 8.05802 17.1552 8.09103 17.2124C8.12405 17.2696 8.17133 17.317 8.22817 17.35C8.285 17.3829 8.34939 17.4002 8.4149 17.4001C8.48042 17.4 8.54475 17.3825 8.60149 17.3494L17.2103 12.3316C17.2679 12.2986 17.3158 12.2507 17.3491 12.1929C17.3825 12.135 17.4 12.0693 17.4 12.0023C17.4 11.9354 17.3825 11.8697 17.3491 11.8118C17.3158 11.754 17.2679 11.7061 17.2103 11.6731Z" fill="white"/>
</svg>
