<svg width="18" height="11" viewBox="0 0 18 11" fill="none" xmlns="http://www.w3.org/2000/svg">
<path d="M11.4497 0.725305C11.7729 0.402112 12.2969 0.402112 12.6201 0.725305L17.0339 5.1391C17.3571 5.46229 17.3571 5.98629 17.0339 6.30948L12.6201 10.7233C12.2969 11.0465 11.7729 11.0465 11.4497 10.7233C11.1265 10.4001 11.1265 9.87608 11.4497 9.55289L14.4504 6.55188H1.00044C0.581463 6.55188 0.235206 6.24053 0.180406 5.83659L0.172852 5.72429C0.172852 5.26723 0.543375 4.8967 1.00044 4.8967H14.4504L11.4497 1.89569C11.1559 1.60188 11.1292 1.14211 11.3696 0.818125L11.4497 0.725305Z" fill="white"/>
</svg>
