<svg width="20" height="20" viewBox="0 0 20 20" fill="none" xmlns="http://www.w3.org/2000/svg">
<path d="M0 10C0 4.47715 4.47715 0 10 0C15.5228 0 20 4.47715 20 10C20 15.5228 15.5228 20 10 20C4.47715 20 0 15.5228 0 10Z" fill="#E66625"/>
<path d="M4.18446 9.55177L8.17275 14.3377C8.24775 14.4278 8.34166 14.5002 8.44782 14.5498C8.55397 14.5994 8.66976 14.6251 8.78694 14.6249C8.9054 14.6231 9.02199 14.595 9.12823 14.5426C9.23447 14.4902 9.3277 14.4147 9.40114 14.3218L15.7824 6.34519C15.8582 6.26487 15.9165 6.16967 15.9536 6.06564C15.9907 5.9616 16.0058 5.851 15.998 5.74082C15.9901 5.63065 15.9594 5.52331 15.9079 5.4256C15.8564 5.3279 15.7851 5.24196 15.6987 5.17323C15.6122 5.1045 15.5124 5.05448 15.4056 5.02633C15.2988 4.99819 15.1873 4.99253 15.0782 5.00972C14.9691 5.02691 14.8647 5.06657 14.7718 5.1262C14.6788 5.18582 14.5992 5.26411 14.5381 5.35609L8.76301 12.535L5.41285 8.53077C5.27746 8.36788 5.0829 8.26544 4.87198 8.24599C4.66106 8.22654 4.45105 8.29168 4.28816 8.42708C4.12526 8.56247 4.02282 8.75703 4.00338 8.96795C3.98393 9.17887 4.04907 9.38888 4.18446 9.55177Z" fill="white"/>
</svg>
