<svg width="14" height="14" viewBox="0 0 14 14" fill="none" xmlns="http://www.w3.org/2000/svg">
<circle cx="7" cy="7" r="7" fill="url(#paint0_linear)"/>
<path d="M6.37978 8.04989C7.35723 6.9613 8.32233 5.86716 9.29588 4.77595C9.37225 4.69001 9.40752 4.68862 9.49381 4.76824C9.82157 5.07097 10.149 5.37402 10.4763 5.67706C10.5549 5.74974 10.5562 5.79881 10.4787 5.87179C9.29035 6.98507 8.11514 8.11223 6.91945 9.21809C6.58973 9.50077 6.1149 9.48519 5.79916 9.18847C5.25673 8.67882 4.71478 8.1687 4.17219 7.6592C3.9741 7.47312 3.77438 7.28857 3.57613 7.10249C3.49066 7.02225 3.49033 6.98244 3.57467 6.9039C3.87985 6.61968 4.18551 6.33592 4.49134 6.05217C4.56544 5.9835 4.61306 5.98798 4.67903 6.06544C5.24877 6.72538 5.80176 7.39705 6.37978 8.04989Z" fill="white"/>
<defs>
<linearGradient id="paint0_linear" x1="7.04698" y1="-12.0966" x2="7.04698" y2="14" gradientUnits="userSpaceOnUse">
<stop stop-color="#B61A09"/>
<stop offset="1" stop-color="#FF6D2E"/>
</linearGradient>
</defs>
</svg>
