<svg width="29" height="29" viewBox="0 0 29 29" fill="none" xmlns="http://www.w3.org/2000/svg">
<circle cx="14.3002" cy="14.3002" r="14.3002" fill="white"/>
<path d="M12.5486 17.7626C14.5454 15.5387 16.517 13.3035 18.5059 11.0743C18.6619 10.8987 18.7339 10.8959 18.9102 11.0585C19.5798 11.677 20.2487 12.2961 20.9173 12.9151C21.078 13.0636 21.0807 13.1638 20.9223 13.3129C18.4946 15.5872 16.0937 17.8899 13.6511 20.1491C12.9775 20.7266 12.0075 20.6947 11.3624 20.0886C10.2543 19.0474 9.14718 18.0053 8.03872 16.9644C7.63405 16.5843 7.22605 16.2073 6.82104 15.8271C6.64642 15.6632 6.64576 15.5819 6.81806 15.4214C7.4415 14.8408 8.06595 14.2611 8.69072 13.6814C8.8421 13.5412 8.93937 13.5503 9.07415 13.7085C10.2381 15.0567 11.3678 16.4289 12.5486 17.7626Z" fill="#47494B"/>
</svg>
