<svg width="100" height="100" viewBox="0 0 100 100" fill="none" xmlns="http://www.w3.org/2000/svg">
<path d="M94.4706 0H5.52941C4.06292 0 2.65649 0.582561 1.61953 1.61953C0.582561 2.65649 0 4.06292 0 5.52941V94.4706C0 95.9371 0.582561 97.3435 1.61953 98.3805C2.65649 99.4174 4.06292 100 5.52941 100H94.4706C95.9371 100 97.3435 99.4174 98.3805 98.3805C99.4174 97.3435 100 95.9371 100 94.4706V5.52941C100 4.06292 99.4174 2.65649 98.3805 1.61953C97.3435 0.582561 95.9371 0 94.4706 0ZM76.4706 80.8824H19.1176V19.1176H76.4706V27.9412H27.9412V72.0588H76.4706V80.8824ZM80.8824 52.5294L67.6471 61.8824V54.0588H41.1765V45.9412H67.6471V38.1176L80.8824 47.4706C81.3212 47.731 81.6848 48.1012 81.9373 48.5446C82.1899 48.9881 82.3227 49.4897 82.3227 50C82.3227 50.5103 82.1899 51.0119 81.9373 51.4554C81.6848 51.8988 81.3212 52.269 80.8824 52.5294Z" fill="#9BADBE" fill-opacity="0.5"/>
</svg>
