<svg width="24" height="24" viewBox="0 0 24 24" fill="none" xmlns="http://www.w3.org/2000/svg">
<path d="M10.2703 4.00195C6.8073 4.00195 4 6.80925 4 10.2722C4 13.7352 6.8073 16.5425 10.2703 16.5425C11.7681 16.5425 13.1433 16.0173 14.2217 15.141L18.8927 19.812C19.146 20.0653 19.5567 20.0653 19.81 19.812C20.0633 19.5587 20.0633 19.148 19.81 18.8946L15.139 14.2237C16.0153 13.1453 16.5405 11.7701 16.5405 10.2722C16.5405 6.80925 13.7332 4.00195 10.2703 4.00195ZM10.2703 5.29925C13.0168 5.29925 15.2432 7.52573 15.2432 10.2722C15.2432 13.0187 13.0168 15.2452 10.2703 15.2452C7.52378 15.2452 5.2973 13.0187 5.2973 10.2722C5.2973 7.52573 7.52378 5.29925 10.2703 5.29925Z" fill="url(#paint0_linear)"/>
<defs>
<linearGradient id="paint0_linear" x1="12" y1="4.00195" x2="12" y2="20.002" gradientUnits="userSpaceOnUse">
<stop stop-color="#F04029"/>
<stop offset="0.5" stop-color="#FC7231"/>
<stop offset="1" stop-color="#ED4833" stop-opacity="0.9375"/>
</linearGradient>
</defs>
</svg>
