<svg width="25" height="24" viewBox="0 0 25 24" fill="none" xmlns="http://www.w3.org/2000/svg">
<path d="M18.5882 9.66941C18.6974 9.66941 18.8022 9.71279 18.8794 9.79001C18.9566 9.86724 19 9.97197 19 10.0812V18.5882C19 18.6974 18.9566 18.8022 18.8794 18.8794C18.8022 18.9566 18.6974 19 18.5882 19H10.0812C9.97197 19 9.86724 18.9566 9.79001 18.8794C9.71279 18.8022 9.66941 18.6974 9.66941 18.5882V15.5H15.0882C15.1974 15.5 15.3022 15.4566 15.3794 15.3794C15.4566 15.3022 15.5 15.1974 15.5 15.0882V9.66941H18.5882ZM5 5.41176V13.9188C5 14.028 5.04338 14.1328 5.1206 14.21C5.19782 14.2872 5.30256 14.3306 5.41176 14.3306H13.9188C14.028 14.3306 14.1328 14.2872 14.21 14.21C14.2872 14.1328 14.3306 14.028 14.3306 13.9188V5.41176C14.3306 5.30256 14.2872 5.19782 14.21 5.1206C14.1328 5.04338 14.028 5 13.9188 5H5.41176C5.30256 5 5.19782 5.04338 5.1206 5.1206C5.04338 5.19782 5 5.30256 5 5.41176Z" fill="white"/>
</svg>
