<svg width="25" height="24" viewBox="0 0 25 24" fill="none" xmlns="http://www.w3.org/2000/svg">
<path fill-rule="evenodd" clip-rule="evenodd" d="M11.9108 11.8808C11.9814 11.989 12.0817 12.0746 12.1996 12.1273L19.0976 15.1164C18.4716 16.2503 17.5631 17.2032 16.4604 17.8826C15.3577 18.5621 14.0981 18.9451 12.8038 18.9945C11.5095 19.0439 10.2244 18.7581 9.07311 18.1647C7.9218 17.5712 6.94336 16.6904 6.23265 15.6075C5.52195 14.5247 5.10311 13.2766 5.01673 11.9842C4.93036 10.6919 5.17939 9.39911 5.73967 8.23131C6.29995 7.06351 7.15247 6.0603 8.21457 5.31895C9.27667 4.5776 10.5123 4.12327 11.8017 4V11.5171C11.8023 11.6463 11.8402 11.7725 11.9108 11.8808ZM19.5843 13.896L13.1285 11.0749V4C15.0043 4.16818 16.7488 5.03355 18.0177 6.42523C19.2866 7.81691 19.9876 9.63376 19.9823 11.5171C19.9808 12.3265 19.8463 13.1301 19.5843 13.896Z" fill="white"/>
</svg>
