<svg width="24" height="24" viewBox="0 0 24 24" fill="none" xmlns="http://www.w3.org/2000/svg">
<path fill-rule="evenodd" clip-rule="evenodd" d="M12.9653 4.73432C12.6882 4.53245 12.3122 4.53245 12.0343 4.73432L6.95822 8.42662V17.6668C6.95822 18.1038 7.31289 18.4585 7.74988 18.4585H9.3332V13.7086C9.3332 12.3968 10.3964 11.3336 11.7082 11.3336H13.2915C14.6033 11.3336 15.6665 12.3968 15.6665 13.7086V18.4585H17.2498C17.6868 18.4585 18.0414 18.1038 18.0414 17.6668V8.42662L12.9653 4.73432ZM19.6247 9.57769L20.7426 10.3907C21.0956 10.648 21.5912 10.5696 21.8485 10.2158C22.1058 9.86268 22.0274 9.36711 21.6736 9.10982L13.8971 3.45421C13.0635 2.8486 11.9362 2.8486 11.1026 3.45421L3.3261 9.10982C2.97223 9.36711 2.89465 9.86268 3.15114 10.2158C3.40843 10.5696 3.90401 10.648 4.25709 10.3907L5.37491 9.57769V17.6668C5.37491 18.9786 6.43811 20.0418 7.74988 20.0418H17.2498C18.5616 20.0418 19.6247 18.9786 19.6247 17.6668V9.57769ZM14.0831 18.4585V13.7086C14.0831 13.2716 13.7285 12.9169 13.2915 12.9169H11.7082C11.2712 12.9169 10.9165 13.2716 10.9165 13.7086V18.4585H14.0831Z" fill="#7F7E86"/>
</svg>
