<svg width="24" height="24" viewBox="0 0 24 24" fill="none" xmlns="http://www.w3.org/2000/svg">
<path d="M20.23 8.63098C20.66 8.63098 21 8.94098 21 9.32098V18.281C21 19.761 19.75 20.981 18.17 20.981H5.83C4.25 20.981 3 19.761 3 18.281V9.31098C3 8.93098 3.35 8.62098 3.77 8.62098C4.19 8.62098 4.54 8.93098 4.54 9.31098V18.271C4.54 19.021 5.13 19.601 5.83 19.601H18.17C18.86 19.601 19.46 19.021 19.46 18.271V9.31098C19.46 8.94098 19.8 8.63098 20.23 8.63098ZM11.49 14.651L11.4 14.581L7.29 10.471C6.99 10.171 6.99 9.68098 7.29 9.38098C7.56 9.11098 7.99 9.08098 8.29 9.31098L8.38 9.38098L11.18 12.181V4.48098C11.18 4.25098 11.47 4.06098 11.84 4.02098L11.95 4.00098C12.34 4.00098 12.66 4.17098 12.71 4.39098L12.72 4.46098V12.161L15.52 9.36098C15.79 9.09098 16.22 9.06098 16.52 9.29098L16.61 9.36098C16.88 9.63098 16.91 10.061 16.68 10.361L16.61 10.451L12.5 14.561C12.22 14.851 11.79 14.871 11.49 14.651Z" fill="url(#paint0_linear)"/>
<defs>
<linearGradient id="paint0_linear" x1="12" y1="4.00098" x2="12" y2="20.981" gradientUnits="userSpaceOnUse">
<stop stop-color="#F04029"/>
<stop offset="0.5" stop-color="#FC7231"/>
<stop offset="1" stop-color="#ED4833" stop-opacity="0.9375"/>
</linearGradient>
</defs>
</svg>
