<svg width="24" height="24" viewBox="0 0 24 24" fill="none" xmlns="http://www.w3.org/2000/svg">
<path fill-rule="evenodd" clip-rule="evenodd" d="M20.7426 10.4356L19.6247 9.62261V17.7118C19.6247 19.0235 18.5616 20.0867 17.2498 20.0867H15V14.982C15 14.4297 14.5523 13.982 14 13.982H11C10.4477 13.982 10 14.4297 10 14.982V20.0867H7.74988C6.43811 20.0867 5.37491 19.0235 5.37491 17.7118V9.62261L4.25709 10.4356C3.90401 10.6929 3.40843 10.6146 3.15114 10.2607C2.89465 9.9076 2.97223 9.41203 3.3261 9.15474L11.1026 3.49914C11.9362 2.89352 13.0635 2.89352 13.8971 3.49914L21.6736 9.15474C22.0274 9.41203 22.1058 9.9076 21.8485 10.2607C21.5912 10.6146 21.0956 10.6929 20.7426 10.4356Z" fill="url(#paint0_linear)"/>
<defs>
<linearGradient id="paint0_linear" x1="12.5" y1="3.04492" x2="12.5" y2="20.0867" gradientUnits="userSpaceOnUse">
<stop stop-color="#F04029"/>
<stop offset="0.5" stop-color="#FC7231"/>
<stop offset="1" stop-color="#ED4833" stop-opacity="0.9375"/>
</linearGradient>
</defs>
</svg>
