<svg width="25" height="24" viewBox="0 0 25 24" fill="none" xmlns="http://www.w3.org/2000/svg">
<path d="M12.5 4C11.0166 4 9.56659 4.43987 8.33323 5.26398C7.09986 6.08809 6.13856 7.25943 5.57091 8.62987C5.00325 10.0003 4.85472 11.5083 5.14411 12.9632C5.4335 14.418 6.14781 15.7544 7.1967 16.8033C8.2456 17.8522 9.58197 18.5665 11.0368 18.8559C12.4917 19.1453 13.9997 18.9968 15.3701 18.4291C16.7406 17.8614 17.9119 16.9001 18.736 15.6668C19.5601 14.4334 20 12.9834 20 11.5C19.9977 9.51159 19.2067 7.60529 17.8007 6.19928C16.3947 4.79326 14.4884 4.00234 12.5 4ZM18.6765 11.5C18.6743 12.1289 18.5761 12.7537 18.3853 13.3529L13.1618 11.0588V5.36765C14.6751 5.53072 16.0748 6.24682 17.0926 7.37855C18.1103 8.51028 18.6744 9.97795 18.6765 11.5ZM12.5 17.6765C10.9318 17.6583 9.42923 17.0442 8.29716 15.9588C7.1651 14.8734 6.48831 13.3981 6.40412 11.832C6.31992 10.266 6.83462 8.72651 7.84379 7.52602C8.85296 6.32552 10.281 5.55388 11.8382 5.36765V11.5441C11.8389 11.673 11.8767 11.799 11.9471 11.907C12.0175 12.015 12.1176 12.1004 12.2353 12.1529L17.8559 14.5882C17.3132 15.5282 16.5324 16.3085 15.5921 16.8507C14.6519 17.3929 13.5854 17.6777 12.5 17.6765Z" fill="#9BADBE"/>
</svg>
