<svg width="25" height="25" viewBox="0 0 25 25" fill="none" xmlns="http://www.w3.org/2000/svg">
<path fill-rule="evenodd" clip-rule="evenodd" d="M19.7718 10.8235L18.5718 12.5L19.7365 14.1765C19.8171 14.2886 19.8703 14.418 19.8917 14.5544C19.9132 14.6908 19.9023 14.8303 19.86 14.9618C19.5633 15.8487 19.1023 16.6718 18.5012 17.3882C18.4064 17.4954 18.287 17.5778 18.1533 17.6286C18.0196 17.6793 17.8755 17.6967 17.7336 17.6794L15.7306 17.45L14.9189 19.3471C14.8639 19.4778 14.7783 19.5933 14.6693 19.684C14.5602 19.7746 14.431 19.8376 14.2924 19.8676C13.8559 19.9502 13.413 19.9945 12.9689 20C12.5118 19.9849 12.057 19.9288 11.61 19.8324C11.4715 19.8023 11.3422 19.7393 11.2331 19.6487C11.1241 19.5581 11.0385 19.4425 10.9836 19.3118L10.1718 17.4147L8.16887 17.6441C8.0269 17.6614 7.88284 17.644 7.74912 17.5933C7.61539 17.5425 7.496 17.4601 7.40122 17.3529C6.80392 16.647 6.34314 15.8362 6.0424 14.9618C6.00012 14.8303 5.98926 14.6908 6.01072 14.5544C6.03217 14.418 6.08534 14.2886 6.16593 14.1765L7.36593 12.5L6.16593 10.8235C6.08534 10.7114 6.03217 10.582 6.01072 10.4456C5.98926 10.3092 6.00012 10.1697 6.0424 10.0383C6.36499 9.08053 6.87826 8.19808 7.55122 7.44414C7.60113 7.3924 7.66172 7.35217 7.72878 7.32627C7.79583 7.30036 7.86773 7.2894 7.93946 7.29414L10.1718 7.55002L10.9483 5.65296C11.0043 5.52389 11.0904 5.41009 11.1994 5.32106C11.3084 5.23204 11.4371 5.17037 11.5747 5.1412C12.4708 4.95293 13.3963 4.95293 14.2924 5.1412C14.4401 5.16849 14.5785 5.23307 14.6943 5.32881C14.8101 5.42454 14.8996 5.54827 14.9542 5.68826L15.7659 7.58531L17.7689 7.3559C17.9108 7.33859 18.0549 7.35604 18.1886 7.40677C18.3223 7.45749 18.4417 7.53996 18.5365 7.64708C19.1338 8.35298 19.5946 9.16383 19.8953 10.0383C19.9376 10.1697 19.9485 10.3092 19.927 10.4456C19.9055 10.582 19.8524 10.7114 19.7718 10.8235ZM11.2531 15.0678C11.761 15.4071 12.3581 15.5882 12.9689 15.5882C13.7879 15.5882 14.5734 15.2629 15.1526 14.6837C15.7317 14.1046 16.0571 13.3191 16.0571 12.5C16.0571 11.8892 15.876 11.2921 15.5366 10.7843C15.1973 10.2764 14.715 9.8806 14.1507 9.64686C13.5864 9.41312 12.9654 9.35196 12.3664 9.47112C11.7673 9.59028 11.217 9.88441 10.7852 10.3163C10.3533 10.7482 10.0591 11.2985 9.93997 11.8975C9.82081 12.4966 9.88197 13.1175 10.1157 13.6818C10.3494 14.2461 10.7453 14.7284 11.2531 15.0678ZM14.7333 12.5001C14.7333 13.4747 13.9432 14.2648 12.9686 14.2648C11.9939 14.2648 11.2039 13.4747 11.2039 12.5001C11.2039 11.5255 11.9939 10.7354 12.9686 10.7354C13.9432 10.7354 14.7333 11.5255 14.7333 12.5001Z" fill="white"/>
</svg>
