<svg width="25" height="25" viewBox="0 0 25 25" fill="none" xmlns="http://www.w3.org/2000/svg">
<path fill-rule="evenodd" clip-rule="evenodd" d="M19.7718 10.8235L18.5718 12.5L19.7365 14.1765C19.8171 14.2886 19.8703 14.418 19.8917 14.5544C19.9132 14.6908 19.9023 14.8303 19.86 14.9618C19.5633 15.8487 19.1023 16.6718 18.5012 17.3882C18.4177 17.4808 18.3156 17.5545 18.2015 17.6047C18.0875 17.6549 17.9641 17.6804 17.8394 17.6794H17.7336L15.7306 17.45L14.9189 19.3471C14.8639 19.4778 14.7783 19.5933 14.6693 19.684C14.5602 19.7746 14.431 19.8376 14.2924 19.8676C13.8559 19.9502 13.413 19.9945 12.9689 20C12.5118 19.9849 12.057 19.9288 11.61 19.8324C11.4715 19.8023 11.3422 19.7393 11.2331 19.6487C11.1241 19.5581 11.0385 19.4425 10.9836 19.3118L10.1718 17.4147L8.16887 17.6441H8.06299C7.93837 17.6451 7.81497 17.6196 7.70091 17.5694C7.58685 17.5192 7.48471 17.4455 7.40122 17.3529C6.80392 16.647 6.34314 15.8362 6.0424 14.9618C6.00012 14.8303 5.98926 14.6908 6.01072 14.5544C6.03217 14.418 6.08534 14.2886 6.16593 14.1765L7.36593 12.5L6.16593 10.8235C6.08534 10.7114 6.03217 10.582 6.01072 10.4456C5.98926 10.3092 6.00012 10.1697 6.0424 10.0383C6.36499 9.08053 6.87826 8.19808 7.55122 7.44414C7.59376 7.39739 7.64551 7.35993 7.7032 7.33412C7.7609 7.30831 7.82331 7.2947 7.88652 7.29414H7.93946L10.1718 7.55002L10.9483 5.65296C11.0043 5.52389 11.0904 5.41009 11.1994 5.32106C11.3084 5.23204 11.4371 5.17037 11.5747 5.1412C12.4708 4.95293 13.3963 4.95293 14.2924 5.1412C14.4401 5.16849 14.5785 5.23307 14.6943 5.32881C14.8101 5.42454 14.8996 5.54827 14.9542 5.68826L15.7659 7.58531L17.7689 7.3559H17.8747C17.9993 7.35495 18.1227 7.38041 18.2368 7.4306C18.3509 7.48079 18.453 7.55457 18.5365 7.64708C19.1338 8.35298 19.5946 9.16383 19.8953 10.0383C19.9376 10.1697 19.9485 10.3092 19.927 10.4456C19.9055 10.582 19.8524 10.7114 19.7718 10.8235ZM18.563 14.7677L17.1247 12.7559C17.0689 12.6823 17.0387 12.5924 17.0387 12.5C17.0387 12.4076 17.0689 12.3178 17.1247 12.2441L18.563 10.2324C18.3463 9.66896 18.0491 9.13993 17.6806 8.66178L15.263 8.93531C15.1696 8.94482 15.0755 8.92428 14.9946 8.87667C14.9137 8.82906 14.8501 8.75687 14.813 8.67061L13.8247 6.39414C13.258 6.30001 12.6797 6.30001 12.113 6.39414L11.1247 8.67061C11.0877 8.75687 11.024 8.82906 10.9431 8.87667C10.8622 8.92428 10.7682 8.94482 10.6747 8.93531L8.2571 8.66178C7.88865 9.13993 7.59144 9.66896 7.37475 10.2324L8.81298 12.2441C8.86881 12.3178 8.89902 12.4076 8.89902 12.5C8.89902 12.5924 8.86881 12.6823 8.81298 12.7559L7.37475 14.7677C7.59144 15.3311 7.88865 15.8601 8.2571 16.3382L10.6747 16.0647C10.7682 16.0552 10.8622 16.0757 10.9431 16.1234C11.024 16.171 11.0877 16.2432 11.1247 16.3294L12.113 18.6059C12.6797 18.7 13.258 18.7 13.8247 18.6059L14.813 16.3294C14.8501 16.2432 14.9137 16.171 14.9946 16.1234C15.0755 16.0757 15.1696 16.0552 15.263 16.0647L17.6806 16.3382C18.0491 15.8601 18.3463 15.3311 18.563 14.7677ZM11.2533 9.93226C11.7611 9.59292 12.3582 9.4118 12.969 9.4118C13.7881 9.4118 14.5736 9.73716 15.1527 10.3163C15.7319 10.8955 16.0573 11.681 16.0573 12.5C16.0573 13.1108 15.8761 13.7079 15.5368 14.2158C15.1975 14.7236 14.7151 15.1194 14.1508 15.3532C13.5865 15.5869 12.9656 15.6481 12.3665 15.5289C11.7675 15.4098 11.2172 15.1156 10.7853 14.6837C10.3534 14.2518 10.0593 13.7016 9.94013 13.1025C9.82097 12.5035 9.88213 11.8825 10.1159 11.3182C10.3496 10.7539 10.7454 10.2716 11.2533 9.93226ZM11.9886 13.9673C12.2788 14.1612 12.62 14.2647 12.969 14.2647C13.437 14.2647 13.8859 14.0788 14.2169 13.7479C14.5478 13.4169 14.7337 12.9681 14.7337 12.5C14.7337 12.151 14.6302 11.8098 14.4363 11.5196C14.2424 11.2294 13.9668 11.0032 13.6443 10.8697C13.3219 10.7361 12.9671 10.7011 12.6247 10.7692C12.2824 10.8373 11.968 11.0054 11.7212 11.2522C11.4744 11.499 11.3063 11.8134 11.2382 12.1557C11.1701 12.4981 11.2051 12.8529 11.3386 13.1753C11.4722 13.4978 11.6984 13.7734 11.9886 13.9673Z" fill="#9BADBE"/>
</svg>
