<svg width="25" height="25" viewBox="0 0 25 25" fill="none" xmlns="http://www.w3.org/2000/svg">
<path d="M18.8353 9.94912L12.7687 5.09579C12.6928 5.03384 12.5979 5 12.5 5C12.4021 5 12.3072 5.03384 12.2313 5.09579L6.16467 9.94912C6.11312 9.98904 6.07145 10.0403 6.0429 10.0989C6.01434 10.1575 5.99966 10.2219 6.00001 10.2871V20.0458C6.00001 20.1607 6.04566 20.2709 6.12693 20.3522C6.20819 20.4335 6.31841 20.4791 6.43334 20.4791H18.5667C18.6816 20.4791 18.7918 20.4335 18.8731 20.3522C18.9543 20.2709 19 20.1607 19 20.0458V10.2871C19.0003 10.2219 18.9857 10.1575 18.9571 10.0989C18.9285 10.0403 18.8869 9.98904 18.8353 9.94912ZM10.7667 19.1791V13.9791H14.2333V19.1791H10.7667ZM17.7 19.1791H15.5333V13.1125C15.5333 12.9975 15.4877 12.8873 15.4064 12.806C15.3251 12.7248 15.2149 12.6791 15.1 12.6791H9.9C9.78508 12.6791 9.67485 12.7248 9.59359 12.806C9.51232 12.8873 9.46667 12.9975 9.46667 13.1125V19.1791H7.3V10.7031L12.5 6.54312L17.7 10.7031V19.1791Z" fill="#9BADBE"/>
</svg>
