<svg width="24" height="24" viewBox="0 0 24 24" fill="none" xmlns="http://www.w3.org/2000/svg">
<path d="M4 5.75C4 5.33579 4.33538 5 4.74909 5H19.7964C20.2101 5 20.5455 5.33579 20.5455 5.75C20.5455 6.16421 20.2101 6.5 19.7964 6.5H4.74909C4.33538 6.5 4 6.16421 4 5.75Z" fill="#7F7E86"/>
<path d="M4 11.6595C4 11.2453 4.33538 10.9095 4.74909 10.9095H19.7964C20.2101 10.9095 20.5455 11.2453 20.5455 11.6595C20.5455 12.0737 20.2101 12.4095 19.7964 12.4095H4.74909C4.33538 12.4095 4 12.0737 4 11.6595Z" fill="#7F7E86"/>
<path d="M4.74909 16.819C4.33538 16.819 4 17.1548 4 17.569C4 17.9832 4.33538 18.319 4.74909 18.319H19.7964C20.2101 18.319 20.5455 17.9832 20.5455 17.569C20.5455 17.1548 20.2101 16.819 19.7964 16.819H4.74909Z" fill="#7F7E86"/>
</svg>
