<svg width="25" height="25" viewBox="0 0 25 25" fill="none" xmlns="http://www.w3.org/2000/svg">
<path d="M18.8353 9.95172L12.7687 5.09839C12.6936 5.03486 12.5984 5 12.5 5C12.4016 5 12.3064 5.03486 12.2313 5.09839L6.16467 9.95172C6.11312 9.99164 6.07145 10.0429 6.0429 10.1015C6.01434 10.1601 5.99966 10.2245 6.00001 10.2897V20.0484C6.00001 20.1633 6.04566 20.2735 6.12693 20.3548C6.20819 20.4361 6.31841 20.4817 6.43334 20.4817H18.5667C18.6816 20.4817 18.7918 20.4361 18.8731 20.3548C18.9543 20.2735 19 20.1633 19 20.0484V10.2897C19.0003 10.2245 18.9857 10.1601 18.9571 10.1015C18.9285 10.0429 18.8869 9.99164 18.8353 9.95172ZM14.3373 19.1817H10.6627V13.4791H14.3373V19.1817Z" fill="white"/>
</svg>
