<svg width="25" height="24" viewBox="0 0 25 24" fill="none" xmlns="http://www.w3.org/2000/svg">
<path d="M18.5882 8.29412H15.7059V5.41176C15.7059 5.30256 15.6625 5.19782 15.5853 5.1206C15.5081 5.04338 15.4033 5 15.2941 5H5.41176C5.30256 5 5.19782 5.04338 5.1206 5.1206C5.04338 5.19782 5 5.30256 5 5.41176V15.2941C5 15.4033 5.04338 15.5081 5.1206 15.5853C5.19782 15.6625 5.30256 15.7059 5.41176 15.7059H8.29412V18.5882C8.29412 18.6974 8.3375 18.8022 8.41472 18.8794C8.49194 18.9566 8.59668 19 8.70588 19H18.5882C18.6974 19 18.8022 18.9566 18.8794 18.8794C18.9566 18.8022 19 18.6974 19 18.5882V8.70588C19 8.59668 18.9566 8.49194 18.8794 8.41472C18.8022 8.3375 18.6974 8.29412 18.5882 8.29412ZM6.23529 6.23529H14.4706V14.4706H6.23529V6.23529ZM17.7647 17.7647H9.52941V15.7059H15.2941C15.4033 15.7059 15.5081 15.6625 15.5853 15.5853C15.6625 15.5081 15.7059 15.4033 15.7059 15.2941V9.52941H17.7647V17.7647Z" fill="#9BADBE"/>
</svg>
