<svg width="24" height="24" viewBox="0 0 24 24" fill="none" xmlns="http://www.w3.org/2000/svg">
<path d="M11.5 5.00586C11.9682 5.00586 12.3478 5.3859 12.3478 5.85471V10.6649H17.1522C17.5814 10.6649 17.9361 10.9842 17.9923 11.3986L18 11.5138C18 11.9826 17.6204 12.3626 17.1522 12.3626H12.3467L12.3478 17.1728C12.3478 17.6025 12.0289 17.9577 11.615 18.0139L11.5 18.0216C11.0318 18.0216 10.6522 17.6416 10.6522 17.1728L10.651 12.3626H5.84783C5.4186 12.3626 5.06388 12.0433 5.00774 11.6289L5 11.5138C5 11.0449 5.37958 10.6649 5.84783 10.6649H10.6522V5.85471C10.6522 5.42497 10.9711 5.06982 11.385 5.01361L11.5 5.00586Z" fill="url(#paint0_linear)"/>
<defs>
<linearGradient id="paint0_linear" x1="11.5" y1="5.00586" x2="11.5" y2="18.0216" gradientUnits="userSpaceOnUse">
<stop stop-color="#F04029"/>
<stop offset="0.5" stop-color="#FC7231"/>
<stop offset="1" stop-color="#ED4833" stop-opacity="0.9375"/>
</linearGradient>
</defs>
</svg>
