<svg width="24" height="25" viewBox="0 0 24 25" fill="none" xmlns="http://www.w3.org/2000/svg">
<path d="M20.23 8.67541C20.66 8.67541 21 8.98541 21 9.36541V18.3254C21 19.8054 19.75 21.0254 18.17 21.0254H5.83C4.25 21.0254 3 19.8054 3 18.3254V9.35541C3 8.97541 3.35 8.66541 3.77 8.66541C4.19 8.66541 4.54 8.97541 4.54 9.35541V18.3154C4.54 19.0654 5.13 19.6454 5.83 19.6454H18.17C18.86 19.6454 19.46 19.0654 19.46 18.3154V9.35541C19.46 8.98541 19.8 8.67541 20.23 8.67541ZM11.49 14.6954L11.4 14.6254L7.29 10.5154C6.99 10.2154 6.99 9.72541 7.29 9.42541C7.56 9.15541 7.99 9.12541 8.29 9.35541L8.38 9.42541L11.18 12.2254V4.52541C11.18 4.29541 11.47 4.10541 11.84 4.06541L11.95 4.04541C12.34 4.04541 12.66 4.21541 12.71 4.43541L12.72 4.50541V12.2054L15.52 9.40541C15.79 9.13541 16.22 9.10541 16.52 9.33541L16.61 9.40541C16.88 9.67541 16.91 10.1054 16.68 10.4054L16.61 10.4954L12.5 14.6054C12.22 14.8954 11.79 14.9154 11.49 14.6954Z" fill="#7F7E86"/>
</svg>
