<svg width="82" height="98" viewBox="0 0 82 98" fill="none" xmlns="http://www.w3.org/2000/svg">
<path opacity="0.3" d="M24.0384 63.392C19.5452 63.392 15.5014 62.6827 11.9068 61.264C8.31233 59.8453 5.46667 57.7547 3.36986 54.992C1.27306 52.2293 0.224657 48.9067 0.224657 45.024C0.224657 41.1413 1.19817 37.744 3.14521 34.832C5.16712 31.92 8.34977 29.68 12.6932 28.112V0H71.4411V8.064H50.4356V25.312C56.5763 25.4613 62.0055 26.3947 66.7233 28.112C71.516 29.7547 75.2603 32.4427 77.9562 36.176C80.6521 39.9093 82 44.8747 82 51.072C82 56.0747 81.0639 60.256 79.1918 63.616C77.3196 67.0507 74.6612 70.0373 71.2164 72.576C67.547 75.1893 63.0913 76.9813 57.8493 77.952C52.6822 78.9973 46.0548 79.52 37.9671 79.52H25.274C22.1288 79.52 19.695 79.744 17.9726 80.192C16.2502 80.64 14.7525 81.2747 13.4795 82.096C12.2813 82.9173 11.3452 84.0747 10.6712 85.568C9.99726 87.0613 9.66027 89.04 9.66027 91.504C9.66027 93.744 9.7726 95.76 9.99726 97.552L0.786301 98C0.561644 96.656 0.374429 95.1627 0.224657 93.52C0.0748857 91.952 0 90.5333 0 89.264C0 85.9787 0.599086 83.1787 1.79726 80.864C2.99543 78.624 4.53059 76.7947 6.40274 75.376C8.34977 73.9573 10.5215 72.9493 12.9178 72.352C15.389 71.7547 18.4968 71.456 22.2411 71.456H34.4849C41.1498 71.456 46.6164 71.1573 50.8849 70.56C55.1534 70.0373 58.5982 69.1787 61.2192 67.984C63.8402 66.864 66.0119 65.3707 67.7342 63.504C70.8046 60.2187 72.3397 55.8133 72.3397 50.288C72.3397 45.8827 71.2913 42.4853 69.1945 40.096C67.0977 37.632 64.3644 35.9147 60.9945 34.944C57.6247 33.9733 54.105 33.4133 50.4356 33.264V36.736C50.4356 41.7387 49.9863 45.6587 49.0877 48.496C48.2639 51.3333 47.0658 53.7227 45.4932 55.664C43.1717 58.5013 40.1763 60.5173 36.5068 61.712C32.9123 62.832 28.7562 63.392 24.0384 63.392ZM21.5671 8.064V25.984C24.7123 25.536 28.1945 25.312 32.0137 25.312H40.8877V8.064H21.5671ZM9.88493 44.912C9.88493 48.3467 11.3078 50.96 14.1534 52.752C16.9991 54.4693 20.5936 55.328 24.937 55.328C28.232 55.328 31.0402 54.8427 33.3616 53.872C35.758 52.8267 37.5927 51.072 38.8658 48.608C40.2137 46.0693 40.8877 42.5973 40.8877 38.192V33.152H31.2274C27.4082 33.152 24.1507 33.376 21.4548 33.824C18.8338 34.272 16.5872 35.0187 14.7151 36.064C11.495 37.9307 9.88493 40.88 9.88493 44.912Z" fill="#151513"/>
</svg>
