<svg width="39" height="48" viewBox="0 0 39 48" fill="none" xmlns="http://www.w3.org/2000/svg">
<path opacity="0.3" d="M11.4329 31.2265C9.29589 31.2265 7.3726 30.8863 5.66301 30.2059C3.95342 29.5256 2.6 28.5229 1.60274 27.1979C0.605479 25.873 0.106849 24.2795 0.106849 22.4174C0.106849 20.5553 0.569863 18.9259 1.49589 17.5294C2.45753 16.1328 3.97123 15.0585 6.03699 14.3065V0.824219H33.9781V4.69165H23.9877V12.9636C26.9082 13.0353 29.4904 13.4829 31.7342 14.3065C34.0137 15.0943 35.7945 16.3835 37.0767 18.1739C38.3589 19.9644 39 22.3457 39 25.3179C39 27.7172 38.5548 29.7225 37.6644 31.3339C36.774 32.9812 35.5096 34.4136 33.8712 35.6311C32.126 36.8844 30.0068 37.7438 27.5137 38.2094C25.0562 38.7107 21.9041 38.9614 18.0575 38.9614H12.0205C10.5247 38.9614 9.36712 39.0688 8.54795 39.2836C7.72877 39.4985 7.01644 39.8029 6.41096 40.1968C5.8411 40.5907 5.39589 41.1457 5.07534 41.8619C4.75479 42.5781 4.59452 43.5271 4.59452 44.7088C4.59452 45.7831 4.64794 46.7499 4.75479 47.6094L0.373973 47.8242C0.267123 47.1796 0.178082 46.4635 0.106849 45.6756C0.0356164 44.9236 0 44.2433 0 43.6345C0 42.0589 0.284931 40.716 0.854794 39.6059C1.42466 38.5316 2.15479 37.6543 3.04521 36.9739C3.97123 36.2935 5.00411 35.8101 6.14384 35.5237C7.31918 35.2372 8.79726 35.0939 10.5781 35.0939H16.4014C19.5712 35.0939 22.1712 34.9507 24.2014 34.6642C26.2315 34.4136 27.8699 34.0017 29.1164 33.4288C30.363 32.8917 31.3959 32.1755 32.2151 31.2802C33.6753 29.7046 34.4055 27.5918 34.4055 24.9419C34.4055 22.8292 33.9068 21.1998 32.9096 20.0539C31.9123 18.8722 30.6123 18.0486 29.0096 17.5831C27.4069 17.1176 25.7329 16.849 23.9877 16.7774V18.4425C23.9877 20.8417 23.774 22.7217 23.3466 24.0825C22.9548 25.4433 22.3849 26.5892 21.637 27.5202C20.5329 28.881 19.1082 29.8478 17.363 30.4208C15.6534 30.9579 13.6767 31.2265 11.4329 31.2265ZM10.2575 4.69165V13.2859C11.7534 13.0711 13.4096 12.9636 15.226 12.9636H19.4466V4.69165H10.2575ZM4.70137 22.3636C4.70137 24.0109 5.37808 25.2642 6.73151 26.1236C8.08493 26.9473 9.79452 27.3591 11.8603 27.3591C13.4274 27.3591 14.763 27.1263 15.8671 26.6608C17.0069 26.1595 17.8795 25.3179 18.4849 24.1362C19.126 22.9187 19.4466 21.2535 19.4466 19.1408V16.7236H14.8521C13.0356 16.7236 11.4863 16.8311 10.2041 17.0459C8.95753 17.2608 7.88904 17.6189 6.99863 18.1202C5.46712 19.0155 4.70137 20.4299 4.70137 22.3636Z" fill="#151513"/>
</svg>
