<svg width="35" height="14" viewBox="0 0 35 14" fill="none" xmlns="http://www.w3.org/2000/svg">
<g opacity="0.15">
<path d="M18.2992 6.51935L23.2003 1.65805C23.2993 1.55981 23.299 1.39943 23.1992 1.30157L21.9422 0.0713557C21.8384 -0.0302315 21.6698 -0.0224171 21.5761 0.0888451L17.6592 4.66213L15.4068 1.94346C15.3141 1.82885 15.143 1.81918 15.0376 1.92188L13.8819 3.05162C13.7821 3.14911 13.7814 3.30987 13.8807 3.40811L17.0192 6.51973C17.1364 6.63583 17.2945 6.70095 17.4594 6.70095H17.859C18.0239 6.70095 18.1824 6.63583 18.2992 6.51935Z" fill="white"/>
<path d="M9.53878 7.58513C9.53729 7.78086 9.43868 7.95352 9.28872 8.05734C9.28835 8.05734 9.2876 8.05771 9.2876 8.05771L9.22955 8.0912L8.89577 7.93863L8.82767 7.90738H8.8273L8.61556 7.81025C8.5244 7.77081 8.44551 7.70904 8.38634 7.63164V7.63127C8.31229 7.53526 8.26838 7.4147 8.26726 7.28409V6.98491C8.26726 6.666 8.52588 6.40701 8.84516 6.40701H8.96163C9.00256 6.40701 9.04275 6.41148 9.08108 6.42004C9.15811 6.43604 9.22955 6.46729 9.2917 6.5112C9.40631 6.59084 9.49041 6.71215 9.52315 6.85243C9.5332 6.89485 9.53878 6.93914 9.53878 6.98491V7.58513ZM11.6204 8.91097C12.1707 8.57681 12.5384 7.97101 12.5384 7.27962V6.42822C12.5384 5.37439 11.684 4.52002 10.6302 4.52002H7.16878C6.16966 4.52002 5.35026 5.28769 5.26728 6.26524V7.28743C5.3257 7.97473 5.74805 8.55858 6.34083 8.84473C6.35422 8.85106 6.36725 8.85701 6.38065 8.86297L7.21976 9.24662L6.7669 9.5071H4.10591C3.87966 9.5071 3.69658 9.69055 3.69658 9.91642V10.9844C3.69658 11.2106 3.87966 11.3937 4.10591 11.3937H7.52341L8.72831 10.6636L9.41263 10.2487L9.53804 10.306V11.5303C9.53617 11.8291 9.30695 12.0747 9.0141 12.1015C9.00554 12.1019 8.99661 12.103 8.98768 12.1033H3.54997C3.5403 12.103 3.53137 12.1019 3.52243 12.1015C3.23032 12.0743 3.00147 11.8291 2.99961 11.5303V4.92935C2.99961 4.7031 2.81616 4.52002 2.59029 4.52002H0.409326C0.18308 4.52002 0 4.7031 0 4.92935V12.1037C0.00669806 13.0913 0.762462 13.9014 1.7281 13.9914H2.0857L10.5547 13.9985H10.7031H10.7042C11.7238 13.9598 12.5388 13.1203 12.5388 12.0911V10.8288C12.5388 10.0712 12.0974 9.41667 11.4578 9.10893C11.4533 9.10707 11.4492 9.10484 11.4447 9.10261L11.3953 9.08065L11.3644 9.06614L11.6193 8.91171C11.6196 8.91171 11.62 8.91134 11.6204 8.91097Z" fill="white"/>
<path d="M30.7891 6.79943V6.79906C30.7891 6.79869 30.7891 6.79869 30.7894 6.79795C30.8073 6.72985 30.8389 6.66696 30.8813 6.61263V6.61226C30.9785 6.48649 31.1303 6.40611 31.3018 6.40611C31.339 6.40611 31.3759 6.4102 31.4112 6.41802C31.4819 6.43253 31.5474 6.46081 31.6044 6.501C31.706 6.57058 31.7811 6.67626 31.8131 6.79906C31.8146 6.80315 31.8161 6.80762 31.8172 6.81246C31.8217 6.83218 31.825 6.85265 31.8273 6.87348C31.8284 6.87869 31.8284 6.8839 31.8288 6.88911L31.8291 6.88948C31.8306 6.90325 31.831 6.91814 31.831 6.93265V7.50906C31.831 7.52506 31.8299 7.54069 31.828 7.55631V7.55669V7.55706C31.828 7.56115 31.8276 7.56524 31.8269 7.56897C31.7975 7.81344 31.5988 8.00732 31.3502 8.02964C31.3428 8.03002 31.3342 8.03113 31.326 8.0315C31.3178 8.03188 31.3096 8.03188 31.3015 8.03188C31.2929 8.03188 31.2847 8.03188 31.2765 8.0315C31.2676 8.03113 31.2594 8.03002 31.2512 8.02964C31.1943 8.02443 31.1407 8.01067 31.0908 7.98871C31.0071 7.95299 30.9349 7.89643 30.8806 7.82573V7.82535C30.8386 7.77102 30.8073 7.70814 30.7894 7.64078C30.7779 7.59836 30.7719 7.55408 30.7716 7.50868V6.93228C30.7719 6.88688 30.7779 6.84223 30.7891 6.79943ZM18.4557 11.5301C18.4557 11.5476 18.4546 11.5651 18.4527 11.5818V11.5822V11.5826C18.4263 11.8572 18.2071 12.0756 17.9318 12.1013C17.9232 12.1017 17.9143 12.1028 17.9053 12.1032H17.7345C17.7252 12.1028 17.7163 12.1017 17.7074 12.1013C17.6456 12.0957 17.5868 12.0805 17.5325 12.0563C17.4413 12.0168 17.3624 11.9551 17.3033 11.8773V11.8769C17.2292 11.7806 17.1853 11.6604 17.1842 11.5298V10.7755C17.1842 10.7252 17.1909 10.6757 17.2032 10.6292V10.6289C17.2225 10.5537 17.2575 10.4845 17.3036 10.4246V10.4242C17.4093 10.2869 17.5753 10.198 17.7617 10.198H17.8782C17.9191 10.198 17.9593 10.2024 17.9976 10.211C18.0747 10.227 18.1461 10.2582 18.2082 10.3021C18.3188 10.3788 18.401 10.4945 18.436 10.6289C18.4375 10.6333 18.439 10.6385 18.4401 10.6434C18.4464 10.6709 18.4509 10.6988 18.4531 10.7275L18.4535 10.7278C18.455 10.7435 18.4553 10.7598 18.4553 10.7758V11.5301H18.4557ZM30.7961 3.58064V3.58027C30.7961 3.5799 30.7961 3.5799 30.7965 3.57915C30.8159 3.50436 30.8501 3.43515 30.8966 3.37598V3.37561C31.0023 3.2383 31.1682 3.14936 31.3547 3.14936H34.1552C34.5288 3.14936 34.8313 2.84646 34.8313 2.47323V1.93887C34.8313 1.56564 34.5288 1.26274 34.1552 1.26274H30.7772V1.25977H29.6809C29.2749 1.25977 28.8987 1.38628 28.5895 1.60248C28.1377 1.91729 27.8289 2.423 27.7794 3.00275C27.7749 3.05112 27.7723 3.09987 27.7723 3.14936H27.7775V4.51949H22.1314C21.7582 4.51949 21.4553 4.82239 21.4553 5.19562V5.72998C21.4553 6.10321 21.7582 6.40611 22.1314 6.40611H23.1507C23.1916 6.40611 23.2318 6.41057 23.2701 6.41913C23.3471 6.43513 23.4186 6.46639 23.4807 6.5103C23.5913 6.58696 23.6735 6.70268 23.7085 6.83702C23.71 6.84148 23.7114 6.84669 23.7126 6.85153C23.7174 6.87348 23.7215 6.89581 23.7237 6.91888V11.596C23.6917 11.8647 23.4752 12.0768 23.2043 12.1017C23.1957 12.1021 23.1868 12.1032 23.1778 12.1036H22.0064C21.9971 12.1032 21.9882 12.1021 21.9793 12.1017C21.9175 12.0961 21.8587 12.0809 21.8044 12.0567C21.7132 12.0172 21.6343 11.9555 21.5751 11.8777V11.8773C21.5011 11.7809 21.4572 11.6607 21.4561 11.5301V10.1723C21.4386 9.43438 21.0025 8.80104 20.3762 8.49962C20.3717 8.49776 20.3676 8.49553 20.3632 8.4933L20.3137 8.47134C20.0796 8.36827 19.8206 8.31133 19.5486 8.31133H16.0935C15.6875 8.31133 15.3113 8.43785 15.0021 8.65405C14.5504 8.96886 14.2415 9.47456 14.192 10.0543C14.1872 10.1086 14.1846 10.1641 14.1846 10.2199V12.1039C14.1883 12.5892 14.3717 13.0316 14.6732 13.3661C15.0062 13.7379 15.484 13.9779 16.0176 13.9987H16.0195C16.044 13.9998 16.0682 14.0002 16.0931 14.0002H17.1838V13.9902H18.4557V14.0002H20.2426C20.2578 14.0002 20.2738 13.9998 20.2891 13.9991H20.2895C20.9355 13.9742 21.4527 13.4443 21.4564 12.7935C21.4583 13.1023 21.5755 13.3836 21.7668 13.5965C21.9569 13.8082 22.2208 13.9526 22.5173 13.9902H23.7234V14.0002H24.8155C24.8401 14.0002 24.8643 13.9998 24.8881 13.9987H24.8892C25.8891 13.9608 26.6917 13.1529 26.7226 12.1516V8.2637C26.7051 7.5258 26.2686 6.89246 25.6427 6.59105C25.6383 6.58919 25.6342 6.58696 25.6297 6.58435L25.5802 6.5624C25.3774 6.47309 25.156 6.41839 24.9238 6.40536H27.7712V8.04564C27.7801 8.52195 27.9629 8.95546 28.2594 9.28479C28.5925 9.65653 29.0703 9.89654 29.6039 9.91738H29.6057C29.6303 9.9185 29.6545 9.91887 29.6794 9.91887H32.9224C32.947 9.91887 32.9711 9.9185 32.995 9.91738H32.9961C34.0157 9.87868 34.8306 9.03919 34.8306 8.01029V6.42509C34.8306 5.66746 34.3893 5.01291 33.7496 4.70517C33.7451 4.70331 33.741 4.70108 33.7366 4.69848L33.6875 4.67652C33.4791 4.58461 33.2506 4.52954 33.0113 4.51874H30.7764V3.72614C30.7772 3.67665 30.7835 3.62716 30.7961 3.58064Z" fill="white"/>
</g>
</svg>
