<svg width="35" height="14" viewBox="0 0 35 14" fill="none" xmlns="http://www.w3.org/2000/svg">
<g opacity="0.15">
<path d="M18.2992 6.51935L23.2003 1.65805C23.2993 1.55981 23.299 1.39943 23.1992 1.30157L21.9422 0.0713557C21.8384 -0.0302315 21.6698 -0.0224171 21.5761 0.0888451L17.6592 4.66213L15.4068 1.94346C15.3141 1.82885 15.143 1.81918 15.0376 1.92188L13.8819 3.05162C13.7821 3.14911 13.7814 3.30987 13.8807 3.40811L17.0192 6.51973C17.1364 6.63583 17.2945 6.70095 17.4594 6.70095H17.859C18.0239 6.70095 18.1824 6.63583 18.2992 6.51935Z" fill="white"/>
<path d="M9.53878 7.58513C9.53729 7.78086 9.43868 7.95352 9.28872 8.05734C9.28835 8.05734 9.2876 8.05771 9.2876 8.05771L9.22955 8.0912L8.89577 7.93863L8.82767 7.90738H8.8273L8.61556 7.81025C8.5244 7.77081 8.44551 7.70904 8.38634 7.63164V7.63127C8.31229 7.53526 8.26838 7.4147 8.26726 7.28409V6.98491C8.26726 6.666 8.52588 6.40701 8.84516 6.40701H8.96163C9.00256 6.40701 9.04275 6.41148 9.08108 6.42004C9.15811 6.43604 9.22955 6.46729 9.2917 6.5112C9.40631 6.59084 9.49041 6.71215 9.52315 6.85243C9.5332 6.89485 9.53878 6.93914 9.53878 6.98491V7.58513ZM11.6204 8.91097C12.1707 8.57681 12.5384 7.97101 12.5384 7.27962V6.42822C12.5384 5.37439 11.684 4.52002 10.6302 4.52002H7.16878C6.16966 4.52002 5.35026 5.28769 5.26728 6.26524V7.28743C5.3257 7.97473 5.74805 8.55858 6.34083 8.84473C6.35422 8.85106 6.36725 8.85701 6.38065 8.86297L7.21976 9.24662L6.7669 9.5071H4.10591C3.87966 9.5071 3.69658 9.69055 3.69658 9.91642V10.9844C3.69658 11.2106 3.87966 11.3937 4.10591 11.3937H7.52341L8.72831 10.6636L9.41263 10.2487L9.53804 10.306V11.5303C9.53617 11.8291 9.30695 12.0747 9.0141 12.1015C9.00554 12.1019 8.99661 12.103 8.98768 12.1033H3.54997C3.5403 12.103 3.53137 12.1019 3.52243 12.1015C3.23032 12.0743 3.00147 11.8291 2.99961 11.5303V4.92935C2.99961 4.7031 2.81616 4.52002 2.59029 4.52002H0.409326C0.18308 4.52002 0 4.7031 0 4.92935V12.1037C0.00669806 13.0913 0.762462 13.9014 1.7281 13.9914H2.0857L10.5547 13.9985H10.7031H10.7042C11.7238 13.9598 12.5388 13.1203 12.5388 12.0911V10.8288C12.5388 10.0712 12.0974 9.41667 11.4578 9.10893C11.4533 9.10707 11.4492 9.10484 11.4447 9.10261L11.3953 9.08065L11.3644 9.06614L11.6193 8.91171C11.6196 8.91171 11.62 8.91134 11.6204 8.91097Z" fill="white"/>
<path d="M30.7881 6.79943V6.79906C30.7881 6.79869 30.7881 6.79869 30.7885 6.79795C30.8063 6.72985 30.8379 6.66696 30.8804 6.61263V6.61226C30.9775 6.48649 31.1293 6.40611 31.3009 6.40611C31.3381 6.40611 31.3749 6.4102 31.4103 6.41802C31.481 6.43253 31.5465 6.46081 31.6034 6.501C31.705 6.57058 31.7801 6.67626 31.8121 6.79906C31.8136 6.80315 31.8151 6.80762 31.8162 6.81246C31.8207 6.83218 31.8241 6.85265 31.8263 6.87348C31.8274 6.87869 31.8274 6.8839 31.8278 6.88911L31.8281 6.88948C31.8296 6.90325 31.83 6.91814 31.83 6.93265V7.50906C31.83 7.52506 31.8289 7.54069 31.827 7.55631V7.55669V7.55706C31.827 7.56115 31.8267 7.56524 31.8259 7.56897C31.7965 7.81344 31.5978 8.00732 31.3492 8.02964C31.3418 8.03002 31.3332 8.03113 31.325 8.0315C31.3169 8.03188 31.3087 8.03188 31.3005 8.03188C31.2919 8.03188 31.2837 8.03188 31.2756 8.0315C31.2666 8.03113 31.2584 8.03002 31.2503 8.02964C31.1933 8.02443 31.1397 8.01067 31.0899 7.98871C31.0061 7.95299 30.934 7.89643 30.8796 7.82573V7.82535C30.8376 7.77102 30.8063 7.70814 30.7885 7.64078C30.7769 7.59836 30.771 7.55408 30.7706 7.50868V6.93228C30.771 6.88688 30.7769 6.84223 30.7881 6.79943ZM18.4547 11.5301C18.4547 11.5476 18.4536 11.5651 18.4517 11.5818V11.5822V11.5826C18.4253 11.8572 18.2062 12.0756 17.9308 12.1013C17.9222 12.1017 17.9133 12.1028 17.9044 12.1032H17.7336C17.7243 12.1028 17.7153 12.1017 17.7064 12.1013C17.6446 12.0957 17.5858 12.0805 17.5315 12.0563C17.4403 12.0168 17.3615 11.9551 17.3023 11.8773V11.8769C17.2282 11.7806 17.1843 11.6604 17.1832 11.5298V10.7755C17.1832 10.7252 17.1899 10.6757 17.2022 10.6292V10.6289C17.2215 10.5537 17.2565 10.4845 17.3027 10.4246V10.4242C17.4083 10.2869 17.5743 10.198 17.7607 10.198H17.8772C17.9181 10.198 17.9583 10.2024 17.9967 10.211C18.0737 10.227 18.1451 10.2582 18.2073 10.3021C18.3178 10.3788 18.4 10.4945 18.435 10.6289C18.4365 10.6333 18.438 10.6385 18.4391 10.6434C18.4454 10.6709 18.4499 10.6988 18.4521 10.7275L18.4525 10.7278C18.454 10.7435 18.4544 10.7598 18.4544 10.7758V11.5301H18.4547ZM30.7952 3.58064V3.58027C30.7952 3.5799 30.7952 3.5799 30.7955 3.57915C30.8149 3.50436 30.8491 3.43515 30.8956 3.37598V3.37561C31.0013 3.2383 31.1673 3.14936 31.3537 3.14936H34.1542C34.5278 3.14936 34.8304 2.84646 34.8304 2.47323V1.93887C34.8304 1.56564 34.5278 1.26274 34.1542 1.26274H30.7762V1.25977H29.6799C29.274 1.25977 28.8977 1.38628 28.5885 1.60248C28.1368 1.91729 27.8279 2.423 27.7784 3.00275C27.774 3.05112 27.7714 3.09987 27.7714 3.14936H27.7766V4.51949H22.1305C21.7572 4.51949 21.4543 4.82239 21.4543 5.19562V5.72998C21.4543 6.10321 21.7572 6.40611 22.1305 6.40611H23.1497C23.1906 6.40611 23.2308 6.41057 23.2691 6.41913C23.3462 6.43513 23.4176 6.46639 23.4798 6.5103C23.5903 6.58696 23.6725 6.70268 23.7075 6.83702C23.709 6.84148 23.7105 6.84669 23.7116 6.85153C23.7164 6.87348 23.7205 6.89581 23.7227 6.91888V11.596C23.6907 11.8647 23.4742 12.0768 23.2033 12.1017C23.1947 12.1021 23.1858 12.1032 23.1769 12.1036H22.0054C21.9961 12.1032 21.9872 12.1021 21.9783 12.1017C21.9165 12.0961 21.8577 12.0809 21.8034 12.0567C21.7122 12.0172 21.6333 11.9555 21.5742 11.8777V11.8773C21.5001 11.7809 21.4562 11.6607 21.4551 11.5301V10.1723C21.4376 9.43438 21.0015 8.80104 20.3752 8.49962C20.3707 8.49776 20.3666 8.49553 20.3622 8.4933L20.3127 8.47134C20.0786 8.36827 19.8196 8.31133 19.5476 8.31133H16.0925C15.6866 8.31133 15.3104 8.43785 15.0011 8.65405C14.5494 8.96886 14.2405 9.47456 14.191 10.0543C14.1862 10.1086 14.1836 10.1641 14.1836 10.2199V12.1039C14.1873 12.5892 14.3708 13.0316 14.6722 13.3661C15.0052 13.7379 15.483 13.9779 16.0166 13.9987H16.0185C16.043 13.9998 16.0672 14.0002 16.0922 14.0002H17.1828V13.9902H18.4547V14.0002H20.2416C20.2569 14.0002 20.2729 13.9998 20.2881 13.9991H20.2885C20.9345 13.9742 21.4517 13.4443 21.4555 12.7935C21.4573 13.1023 21.5745 13.3836 21.7658 13.5965C21.9559 13.8082 22.2198 13.9526 22.5164 13.9902H23.7224V14.0002H24.8145C24.8391 14.0002 24.8633 13.9998 24.8871 13.9987H24.8882C25.8881 13.9608 26.6907 13.1529 26.7216 12.1516V8.2637C26.7041 7.5258 26.2676 6.89246 25.6417 6.59105C25.6373 6.58919 25.6332 6.58696 25.6287 6.58435L25.5792 6.5624C25.3764 6.47309 25.155 6.41839 24.9228 6.40536H27.7702V8.04564C27.7792 8.52195 27.9619 8.95546 28.2585 9.28479C28.5915 9.65653 29.0693 9.89654 29.6029 9.91738H29.6048C29.6293 9.9185 29.6535 9.91887 29.6784 9.91887H32.9214C32.946 9.91887 32.9702 9.9185 32.994 9.91738H32.9951C34.0147 9.87868 34.8296 9.03919 34.8296 8.01029V6.42509C34.8296 5.66746 34.3883 5.01291 33.7486 4.70517C33.7442 4.70331 33.7401 4.70108 33.7356 4.69848L33.6865 4.67652C33.4781 4.58461 33.2496 4.52954 33.0104 4.51874H30.7754V3.72614C30.7762 3.67665 30.7825 3.62716 30.7952 3.58064Z" fill="white"/>
</g>
</svg>
