<svg width="43" height="44" viewBox="0 0 43 44" fill="none" xmlns="http://www.w3.org/2000/svg">
<path opacity="0.2" d="M21.7737 43.4966C16.8675 43.4966 12.7926 42.8366 9.5488 41.5167C6.34559 40.1556 3.95332 38.3201 2.37199 36.0103C0.790665 33.6592 0 31.0194 0 28.0908C0 25.781 0.46629 23.7599 1.39887 22.0275C2.37199 20.2539 3.68977 18.8927 5.35219 17.9441C7.01462 16.9541 8.92032 16.4592 11.0693 16.4592C13.6238 16.4592 15.6106 17.1604 17.0297 18.5628C18.4894 19.9652 19.2192 21.8213 19.2192 24.1311C19.2192 26.6472 18.3678 28.6683 16.6648 30.1944C15.0024 31.6793 12.6506 32.4218 9.60962 32.4218C8.75813 32.4218 7.96747 32.3599 7.23762 32.2362C6.50778 32.0712 5.79821 31.8443 5.10891 31.5556C6.16313 33.9067 8.12966 35.6803 11.0085 36.8764C13.8873 38.0314 17.3744 38.6088 21.4696 38.6088C25.1188 38.6088 28.0787 38.217 30.3494 37.4333C32.62 36.6083 34.3635 35.5772 35.5799 34.3397C36.7963 33.0611 37.6073 31.7412 38.0127 30.38C37.2423 31.04 36.3706 31.5556 35.3975 31.9268C34.4649 32.2568 33.3498 32.4218 32.0523 32.4218C29.7006 32.4218 27.7746 31.7412 26.2744 30.38C24.7742 29.0189 24.024 27.1628 24.024 24.8117C24.024 22.5019 24.7336 20.7076 26.1528 19.429C27.6124 18.1091 29.5384 17.4491 31.9307 17.4491C32.174 17.4491 32.4781 17.4697 32.843 17.511C32.2348 17.3047 31.5658 17.1191 30.8359 16.9541C30.1466 16.7479 29.4371 16.5829 28.7072 16.4592C28.3423 16.4592 27.9571 16.4592 27.5516 16.4592H19.7058V11.8189H29.3762C30.6737 11.8189 31.6469 11.757 32.2956 11.6333C32.9849 11.4683 33.5323 11.2208 33.9378 10.8908C34.546 10.3134 34.8501 9.5503 34.8501 8.60162C34.8501 7.48795 34.5257 6.66301 33.8769 6.1268C33.4715 5.79682 32.9646 5.54934 32.3564 5.38435C31.7482 5.21936 30.7346 5.13687 29.3154 5.13687H7.29844V0.496582H28.9505C31.1806 0.496582 32.9241 0.661569 34.181 0.991546C35.4785 1.32152 36.5936 1.89898 37.5262 2.72392C38.2155 3.34263 38.7628 4.12632 39.1683 5.075C39.6143 5.98243 39.8373 7.13735 39.8373 8.53975C39.8373 9.94214 39.5738 11.0971 39.0467 12.0045C38.5196 12.9119 37.9316 13.6338 37.2829 14.17C36.8369 14.5412 36.33 14.8712 35.7624 15.1599C38.2357 16.5623 40.0603 18.3359 41.2362 20.4808C42.4121 22.6256 43 24.9973 43 27.5959C43 30.6069 42.2499 33.3292 40.7496 35.7628C39.29 38.1551 36.9991 40.0525 33.8769 41.4549C30.7548 42.816 26.7204 43.4966 21.7737 43.4966ZM28.8289 24.6261C28.8289 25.5335 29.1532 26.3378 29.802 27.039C30.4507 27.7402 31.4644 28.0908 32.843 28.0908C34.2621 28.0908 35.3975 27.7402 36.2489 27.039C37.141 26.3378 37.7897 25.3891 38.1952 24.193C37.7492 23.2443 37.0599 22.4606 36.1273 21.8419C35.2353 21.182 34.1405 20.852 32.843 20.852C31.8293 20.852 30.8967 21.1613 30.0453 21.78C29.2343 22.3575 28.8289 23.3062 28.8289 24.6261ZM10.7652 20.852C9.06223 20.852 7.62282 21.4088 6.44696 22.5225C5.2711 23.6362 4.60207 25.0592 4.43989 26.7915C5.08864 27.204 5.77794 27.534 6.50778 27.7815C7.23762 27.9877 8.02829 28.0908 8.87977 28.0908C10.8666 28.0908 12.2654 27.7196 13.0764 26.9772C13.9279 26.2347 14.3536 25.286 14.3536 24.1311C14.3536 23.0587 14.0292 22.2544 13.3805 21.7182C12.7723 21.1407 11.9005 20.852 10.7652 20.852Z" fill="#151513"/>
</svg>
