<svg width="80" height="80" viewBox="0 0 80 80" fill="none" xmlns="http://www.w3.org/2000/svg">
<path opacity="0.2" d="M40.5092 80C31.3814 80 23.8001 78.7722 17.7652 76.3166C11.8058 73.7842 7.35502 70.3693 4.41301 66.0719C1.471 61.6978 0 56.7866 0 51.3381C0 47.0408 0.867515 43.2806 2.60255 40.0575C4.41301 36.7578 6.86469 34.2254 9.95757 32.4604C13.0504 30.6187 16.5959 29.6978 20.5941 29.6978C25.3465 29.6978 29.0429 31.0024 31.6832 33.6115C34.3989 36.2206 35.7567 39.6739 35.7567 43.9712C35.7567 48.6523 34.1726 52.4125 31.0042 55.2518C27.9114 58.0144 23.5361 59.3957 17.8784 59.3957C16.2942 59.3957 14.8232 59.2806 13.4653 59.0504C12.1075 58.7434 10.7874 58.3213 9.50495 57.7842C11.4663 62.1583 15.1249 65.458 20.4809 67.6835C25.8369 69.8321 32.3244 70.9065 39.9434 70.9065C46.7327 70.9065 52.2395 70.1775 56.4639 68.7194C60.6884 67.1846 63.9321 65.2662 66.1952 62.964C68.4583 60.5851 69.967 58.1295 70.7214 55.5971C69.2881 56.8249 67.6662 57.7842 65.8557 58.4748C64.1207 59.0887 62.0462 59.3957 59.6322 59.3957C55.257 59.3957 51.6737 58.1295 48.8826 55.5971C46.0915 53.0647 44.6959 49.6115 44.6959 45.2374C44.6959 40.94 46.016 37.6019 48.6563 35.223C51.372 32.7674 54.9552 31.5396 59.4059 31.5396C59.8586 31.5396 60.4243 31.5779 61.1032 31.6547C59.9717 31.271 58.727 30.9257 57.3692 30.6187C56.0868 30.235 54.7666 29.9281 53.4088 29.6978C52.7298 29.6978 52.0132 29.6978 51.2588 29.6978H36.6619V21.0647H54.6535C57.0674 21.0647 58.8779 20.9496 60.0849 20.7194C61.3673 20.4125 62.3857 19.952 63.14 19.3381C64.2716 18.2638 64.8373 16.8441 64.8373 15.0791C64.8373 13.0072 64.2338 11.4724 63.0269 10.4748C62.2725 9.86091 61.3296 9.40048 60.198 9.09352C59.0665 8.78657 57.1806 8.63309 54.5403 8.63309H13.5785V0H53.8614C58.0104 0 61.2541 0.306953 63.5926 0.920863C66.0066 1.53477 68.0811 2.60911 69.8161 4.14389C71.0985 5.29496 72.1169 6.753 72.8713 8.51798C73.7011 10.2062 74.116 12.3549 74.116 14.964C74.116 17.5731 73.6256 19.7218 72.645 21.4101C71.6643 23.0983 70.5705 24.4412 69.3635 25.4388C68.5337 26.1295 67.5908 26.7434 66.5347 27.2806C71.1363 29.8897 74.5309 33.1894 76.7185 37.1799C78.9062 41.1703 80 45.5827 80 50.4173C80 56.0192 78.6044 61.0839 75.8133 65.6115C73.0976 70.0624 68.8355 73.5923 63.0269 76.2014C57.2183 78.7338 49.7124 80 40.5092 80ZM53.6351 44.8921C53.6351 46.5803 54.2386 48.0767 55.4455 49.3813C56.6525 50.6859 58.5384 51.3381 61.1032 51.3381C63.7435 51.3381 65.8557 50.6859 67.4399 49.3813C69.0995 48.0767 70.3065 46.3118 71.0608 44.0863C70.231 42.3213 68.9486 40.8633 67.2136 39.7122C65.554 38.4844 63.5172 37.8705 61.1032 37.8705C59.2173 37.8705 57.4823 38.446 55.8982 39.5971C54.3894 40.6715 53.6351 42.4364 53.6351 44.8921ZM20.0283 37.8705C16.86 37.8705 14.182 38.9065 11.9943 40.9784C9.80669 43.0504 8.562 45.6978 8.26025 48.9209C9.46723 49.6882 10.7496 50.3022 12.1075 50.7626C13.4653 51.1463 14.9364 51.3381 16.5205 51.3381C20.2169 51.3381 22.8194 50.6475 24.3281 49.2662C25.9123 47.8849 26.7044 46.1199 26.7044 43.9712C26.7044 41.976 26.1009 40.4796 24.8939 39.482C23.7624 38.4077 22.1405 37.8705 20.0283 37.8705Z" fill="#151513"/>
</svg>
