<svg width="9" height="6" viewBox="0 0 9 6" fill="none" xmlns="http://www.w3.org/2000/svg">
<path d="M3.27451 4.19729C3.40606 4.04146 3.52796 3.89741 3.64912 3.75299C4.34546 2.92221 5.04161 2.09143 5.73777 1.26046C6.02294 0.919994 6.30831 0.579713 6.59293 0.238683C6.69795 0.112971 6.72875 0.109042 6.8436 0.221659C7.21579 0.586821 7.58743 0.952732 7.9587 1.31883C8.04646 1.40544 8.04665 1.45876 7.9587 1.54687C6.78942 2.71775 5.61976 3.88825 4.45011 5.05856C4.28998 5.21888 4.12856 5.37789 3.96844 5.53821C3.54949 5.95762 3.00603 5.96118 2.58782 5.54457C1.82896 4.78881 1.07139 4.03173 0.313079 3.2754C0.227358 3.18991 0.13904 3.10704 0.0548045 3.02005C-0.0181135 2.94466 -0.0184846 2.89359 0.05499 2.82063C0.411973 2.46651 0.769697 2.11313 1.12835 1.7605C1.20535 1.68474 1.2599 1.69428 1.33541 1.78819C1.95809 2.56304 2.58077 3.33788 3.20364 4.11273C3.22237 4.13649 3.2426 4.15931 3.27451 4.19729Z" fill="white"/>
</svg>
