<svg width="29" height="30" viewBox="0 0 29 30" fill="none" xmlns="http://www.w3.org/2000/svg">
<circle opacity="0.3" cx="14.3002" cy="14.7143" r="14.3002" fill="white"/>
<path d="M12.9841 16.7255C14.981 14.5016 16.9526 12.2664 18.9414 10.0372C19.0974 9.86158 19.1695 9.85874 19.3458 10.0214C20.0153 10.6399 20.6843 11.2589 21.3529 11.878C21.5135 12.0265 21.5162 12.1267 21.3578 12.2758C18.9301 14.5501 16.5293 16.8528 14.0866 19.112C13.413 19.6895 12.443 19.6576 11.798 19.0514C10.6899 18.0103 9.58273 16.9682 8.47427 15.9273C8.06959 15.5472 7.6616 15.1702 7.25659 14.79C7.08197 14.6261 7.08131 14.5448 7.2536 14.3843C7.87705 13.8037 8.50149 13.224 9.12627 12.6443C9.27765 12.5041 9.37492 12.5132 9.5097 12.6714C10.6736 14.0196 11.8033 15.3918 12.9841 16.7255Z" fill="#47494B"/>
</svg>
