<svg width="13" height="13" viewBox="0 0 13 13" fill="none" xmlns="http://www.w3.org/2000/svg">
<circle cx="6.5" cy="6.5" r="6.5" fill="#212122"/>
<path opacity="0.4" d="M5.86806 7.33993C6.84551 6.25134 7.81061 5.1572 8.78416 4.06599C8.86054 3.98005 8.8958 3.97866 8.98209 4.05828C9.30985 4.36101 9.63729 4.66406 9.96457 4.9671C10.0432 5.03978 10.0445 5.08885 9.96701 5.16183C8.77863 6.2751 7.60342 7.40227 6.40773 8.50813C6.07801 8.79081 5.60318 8.77523 5.28744 8.47851C4.74501 7.96886 4.20307 7.45874 3.66047 6.94924C3.46238 6.76315 3.26267 6.57861 3.06441 6.39253C2.97894 6.31229 2.97861 6.27248 3.06295 6.19394C3.36813 5.90972 3.6738 5.62596 3.97962 5.34221C4.05373 5.27354 4.10134 5.27802 4.16731 5.35548C4.73705 6.01542 5.29004 6.68709 5.86806 7.33993Z" fill="white"/>
</svg>
