<svg width="20" height="21" viewBox="0 0 20 21" fill="none" xmlns="http://www.w3.org/2000/svg">
<path fill-rule="evenodd" clip-rule="evenodd" d="M10 3.76636C5.45455 3.76636 1.57273 6.59363 0 10.5845C1.57273 14.5754 5.45455 17.4027 10 17.4027C14.5455 17.4027 18.4273 14.5754 20 10.5845C18.4273 6.59363 14.5455 3.76636 10 3.76636ZM10.0001 15.1302C7.49096 15.1302 5.4546 13.0939 5.4546 10.5848C5.4546 8.07567 7.49096 6.03931 10.0001 6.03931C12.5091 6.03931 14.5455 8.07567 14.5455 10.5848C14.5455 13.0939 12.5091 15.1302 10.0001 15.1302ZM9.99997 7.85716C8.49088 7.85716 7.2727 9.07534 7.2727 10.5844C7.2727 12.0935 8.49088 13.3117 9.99997 13.3117C11.5091 13.3117 12.7272 12.0935 12.7272 10.5844C12.7272 9.07534 11.5091 7.85716 9.99997 7.85716Z" fill="#9BADBE" fill-opacity="0.5"/>
</svg>
