<svg width="20" height="21" viewBox="0 0 20 21" fill="none" xmlns="http://www.w3.org/2000/svg">
<g clip-path="url(#clip0)">
<path fill-rule="evenodd" clip-rule="evenodd" d="M3.80288 15.4327L0 19.476L1.68247 21.0002L5.84911 16.5701C7.12592 17.1065 8.52817 17.403 10 17.403C14.5455 17.403 18.4273 14.5757 20 10.5848C19.2116 8.58415 17.8429 6.87595 16.1013 5.66973L20 1.52448L18.3175 0.000244141L14.0364 4.5521C12.7904 4.04563 11.428 3.7666 10 3.7666C5.45455 3.7666 1.57273 6.59387 0 10.5848C0.773881 12.5486 2.10685 14.2306 3.80288 15.4327ZM7.75874 14.5398C8.4203 14.9157 9.18525 15.1305 10.0001 15.1305C12.5091 15.1305 14.5455 13.0941 14.5455 10.585C14.5455 9.67066 14.2751 8.81909 13.8099 8.10597L12.5023 9.49623C12.6471 9.82945 12.7272 10.1975 12.7272 10.5847C12.7272 12.0938 11.5091 13.3119 9.99997 13.3119C9.67204 13.3119 9.35784 13.2544 9.0669 13.1489L7.75874 14.5398ZM7.44969 11.5553L6.12597 12.9627C5.70023 12.2708 5.4546 11.4564 5.4546 10.585C5.4546 8.07591 7.49096 6.03955 10.0001 6.03955C10.7721 6.03955 11.4993 6.23233 12.1363 6.57235L10.8124 7.97989C10.5559 7.90027 10.2831 7.8574 9.99997 7.8574C8.49088 7.8574 7.2727 9.07558 7.2727 10.5847C7.2727 10.9268 7.3353 11.2539 7.44969 11.5553Z" fill="#9BADBE" fill-opacity="0.5"/>
</g>
<defs>
<clipPath id="clip0">
<rect width="20" height="21" fill="white"/>
</clipPath>
</defs>
</svg>
