<svg width="53" height="45" viewBox="0 0 53 45" fill="none" xmlns="http://www.w3.org/2000/svg">
<path d="M44.3102 44.0156C49.3727 44.0156 52.0212 41.6016 52.0212 36.5859V7.85156C52.0212 2.8125 49.3727 0.210938 44.3102 0.210938H24.0368C20.8493 0.210938 18.5759 0.984375 16.4431 3.30469L3.22431 17.3672C1.51337 19.2422 0.857119 20.6016 0.857119 22.0781C0.857119 23.5547 1.51337 24.9375 3.22431 26.7891L16.4665 40.7812C18.5993 43.1016 20.8727 43.9922 24.0602 43.9922L44.3102 44.0156ZM22.7946 32.3203C21.5524 32.3203 20.5681 31.3359 20.5681 30.0703C20.5681 29.4844 20.8024 28.9453 21.2243 28.5234L27.6227 22.125L21.2243 15.75C20.8024 15.3281 20.5681 14.7656 20.5681 14.1797C20.5681 12.9375 21.5524 11.9766 22.7946 11.9766C23.4509 11.9766 23.9665 12.1875 24.3884 12.6094L30.7634 18.9844L37.2087 12.5859C37.654 12.1406 38.1696 11.9297 38.8024 11.9297C40.0446 11.9297 41.0056 12.9141 41.0056 14.1562C41.0056 14.7422 40.7946 15.2578 40.3493 15.7266L33.9509 22.125L40.3259 28.5C40.7712 28.9453 41.0056 29.4844 41.0056 30.0703C41.0056 31.3359 40.0212 32.3203 38.7556 32.3203C38.1227 32.3203 37.5602 32.0859 37.1384 31.6641L30.7634 25.2891L24.4352 31.6641C23.9899 32.1094 23.4509 32.3203 22.7946 32.3203Z" fill="white" fill-opacity="0.5"/>
</svg>
