<svg width="50" height="50" viewBox="0 0 50 50" fill="none" xmlns="http://www.w3.org/2000/svg">
<path d="M39.62 19.7005L25.62 8.5005C25.4467 8.35389 25.227 8.27344 25 8.27344C24.773 8.27344 24.5533 8.35389 24.38 8.5005L10.38 19.7005C10.261 19.7926 10.1649 19.9109 10.099 20.0462C10.0331 20.1814 9.99923 20.33 10 20.4805V43.0005C10 43.2657 10.1054 43.5201 10.2929 43.7076C10.4804 43.8951 10.7348 44.0005 11 44.0005H39C39.2652 44.0005 39.5196 43.8951 39.7071 43.7076C39.8947 43.5201 40 43.2657 40 43.0005V20.4805C40.0008 20.33 39.9669 20.1814 39.901 20.0462C39.8351 19.9109 39.739 19.7926 39.62 19.7005ZM29.24 41.0005H20.76V27.8405H29.24V41.0005Z" fill="white"/>
</svg>
