<svg width="50" height="50" viewBox="0 0 50 50" fill="none" xmlns="http://www.w3.org/2000/svg">
<path d="M39.62 19.7023L25.62 8.5023C25.445 8.35934 25.226 8.28125 25 8.28125C24.774 8.28125 24.555 8.35934 24.38 8.5023L10.38 19.7023C10.261 19.7944 10.1649 19.9127 10.099 20.048C10.0331 20.1832 9.99923 20.3318 10 20.4823V43.0023C10 43.2675 10.1054 43.5219 10.2929 43.7094C10.4804 43.8969 10.7348 44.0023 11 44.0023H39C39.2652 44.0023 39.5196 43.8969 39.7071 43.7094C39.8947 43.5219 40 43.2675 40 43.0023V20.4823C40.0008 20.3318 39.9669 20.1832 39.901 20.048C39.8351 19.9127 39.739 19.7944 39.62 19.7023ZM21 41.0023V29.0023H29V41.0023H21ZM37 41.0023H32V27.0023C32 26.7371 31.8947 26.4827 31.7071 26.2952C31.5196 26.1077 31.2652 26.0023 31 26.0023H19C18.7348 26.0023 18.4804 26.1077 18.2929 26.2952C18.1054 26.4827 18 26.7371 18 27.0023V41.0023H13V21.4423L25 11.8423L37 21.4423V41.0023Z" fill="#9BADBE"/>
</svg>
