<svg width="50" height="50" viewBox="0 0 50 50" fill="none" xmlns="http://www.w3.org/2000/svg">
<path d="M21 12H9C7.89543 12 7 12.8954 7 14V21C7 22.1046 7.89543 23 9 23H21C22.1046 23 23 22.1046 23 21V14C23 12.8954 22.1046 12 21 12Z" fill="white"/>
<path d="M41 12H29C27.8954 12 27 12.8954 27 14V21C27 22.1046 27.8954 23 29 23H41C42.1046 23 43 22.1046 43 21V14C43 12.8954 42.1046 12 41 12Z" fill="white"/>
<path d="M21 27H9C7.89543 27 7 27.8954 7 29V36C7 37.1046 7.89543 38 9 38H21C22.1046 38 23 37.1046 23 36V29C23 27.8954 22.1046 27 21 27Z" fill="white"/>
<path d="M41 27H29C27.8954 27 27 27.8954 27 29V36C27 37.1046 27.8954 38 29 38H41C42.1046 38 43 37.1046 43 36V29C43 27.8954 42.1046 27 41 27Z" fill="white"/>
</svg>
