<svg width="50" height="50" viewBox="0 0 50 50" fill="none" xmlns="http://www.w3.org/2000/svg">
<path d="M20 15V20H10V15H20ZM21 12H9C8.46957 12 7.96086 12.2107 7.58579 12.5858C7.21071 12.9609 7 13.4696 7 14V21C7 21.5304 7.21071 22.0391 7.58579 22.4142C7.96086 22.7893 8.46957 23 9 23H21C21.5304 23 22.0391 22.7893 22.4142 22.4142C22.7893 22.0391 23 21.5304 23 21V14C23 13.4696 22.7893 12.9609 22.4142 12.5858C22.0391 12.2107 21.5304 12 21 12Z" fill="#9BADBE"/>
<path d="M40 15V20H30V15H40ZM41 12H29C28.4696 12 27.9609 12.2107 27.5858 12.5858C27.2107 12.9609 27 13.4696 27 14V21C27 21.5304 27.2107 22.0391 27.5858 22.4142C27.9609 22.7893 28.4696 23 29 23H41C41.5304 23 42.0391 22.7893 42.4142 22.4142C42.7893 22.0391 43 21.5304 43 21V14C43 13.4696 42.7893 12.9609 42.4142 12.5858C42.0391 12.2107 41.5304 12 41 12Z" fill="#9BADBE"/>
<path d="M20 30V35H10V30H20ZM21 27H9C8.46957 27 7.96086 27.2107 7.58579 27.5858C7.21071 27.9609 7 28.4696 7 29V36C7 36.5304 7.21071 37.0391 7.58579 37.4142C7.96086 37.7893 8.46957 38 9 38H21C21.5304 38 22.0391 37.7893 22.4142 37.4142C22.7893 37.0391 23 36.5304 23 36V29C23 28.4696 22.7893 27.9609 22.4142 27.5858C22.0391 27.2107 21.5304 27 21 27Z" fill="#9BADBE"/>
<path d="M40 30V35H30V30H40ZM41 27H29C28.4696 27 27.9609 27.2107 27.5858 27.5858C27.2107 27.9609 27 28.4696 27 29V36C27 36.5304 27.2107 37.0391 27.5858 37.4142C27.9609 37.7893 28.4696 38 29 38H41C41.5304 38 42.0391 37.7893 42.4142 37.4142C42.7893 37.0391 43 36.5304 43 36V29C43 28.4696 42.7893 27.9609 42.4142 27.5858C42.0391 27.2107 41.5304 27 41 27Z" fill="#9BADBE"/>
</svg>
