<svg width="50" height="50" viewBox="0 0 50 50" fill="none" xmlns="http://www.w3.org/2000/svg">
<path d="M42 12H10C9.46957 12 8.96086 12.2107 8.58579 12.5858C8.21071 12.9609 8 13.4696 8 14V36C8 36.5304 8.21071 37.0391 8.58579 37.4142C8.96086 37.7893 9.46957 38 10 38H42C42.5304 38 43.0391 37.7893 43.4142 37.4142C43.7893 37.0391 44 36.5304 44 36V14C44 13.4696 43.7893 12.9609 43.4142 12.5858C43.0391 12.2107 42.5304 12 42 12ZM25.5 20L30.5 15H35.5L30.5 20H25.5ZM16.24 20L21.24 15H26.26L21.26 20H16.24ZM11 15H17L12 20H11V15ZM41 35H11V23H41V35ZM34.74 20L39.74 15H41V20H34.74Z" fill="#9BADBE" fill-opacity="0.5"/>
</svg>
