<svg width="50" height="50" viewBox="0 0 50 50" fill="none" xmlns="http://www.w3.org/2000/svg">
<path d="M43.9999 13.1781C43.993 12.8625 43.9115 12.553 43.762 12.2749C43.6125 11.9968 43.3993 11.758 43.1399 11.5781L36.3799 18.3381C36.3032 18.4048 36.2497 18.4941 36.2271 18.5932C36.2044 18.6922 36.2137 18.7959 36.2538 18.8893C36.2938 18.9827 36.3624 19.061 36.4498 19.1129C36.5371 19.1648 36.6387 19.1876 36.7399 19.1781H43.4999C43.6325 19.1781 43.7597 19.1254 43.8534 19.0317C43.9472 18.9379 43.9999 18.8107 43.9999 18.6781V13.1781Z" fill="white"/>
<path d="M37.9999 11.1799H32.7399C32.6722 11.1808 32.6053 11.1955 32.5435 11.223C32.4816 11.2505 32.4259 11.2903 32.3799 11.3399L25.3799 18.3399C25.3032 18.4066 25.2497 18.4959 25.2271 18.595C25.2044 18.694 25.2137 18.7977 25.2538 18.8911C25.2938 18.9845 25.3624 19.0628 25.4498 19.1147C25.5371 19.1666 25.6387 19.1894 25.7399 19.1799H31.0799C31.1463 19.1828 31.2126 19.1718 31.2746 19.1477C31.3366 19.1236 31.3928 19.0869 31.4399 19.0399L38.4399 11.9999C38.4957 11.921 38.5284 11.8281 38.5343 11.7316C38.5403 11.6352 38.5192 11.539 38.4735 11.4538C38.4278 11.3687 38.3593 11.2979 38.2756 11.2495C38.192 11.2012 38.0965 11.177 37.9999 11.1799Z" fill="white"/>
<path d="M14.7401 19.1806H20.0001C20.0665 19.1835 20.1328 19.1725 20.1948 19.1484C20.2568 19.1243 20.3131 19.0876 20.3601 19.0406L27.4401 12.0006C27.5037 11.9274 27.5455 11.8379 27.5609 11.7421C27.5763 11.6464 27.5646 11.5483 27.5272 11.4588C27.4898 11.3694 27.428 11.2922 27.349 11.2359C27.27 11.1797 27.1769 11.1467 27.0801 11.1406H21.7401C21.6724 11.1415 21.6055 11.1562 21.5437 11.1837C21.4818 11.2112 21.4261 11.251 21.3801 11.3006L14.3801 18.3006C14.28 18.3589 14.2043 18.4513 14.167 18.561C14.1297 18.6706 14.1334 18.7901 14.1772 18.8973C14.2211 19.0044 14.3022 19.0922 14.4056 19.1442C14.5091 19.1963 14.6279 19.2092 14.7401 19.1806Z" fill="white"/>
<path d="M9.28 19.1799L16.44 11.9999C16.4958 11.921 16.5285 11.8281 16.5344 11.7316C16.5404 11.6352 16.5193 11.539 16.4736 11.4538C16.4279 11.3687 16.3594 11.2979 16.2758 11.2495C16.1921 11.2012 16.0966 11.177 16 11.1799H10C9.46957 11.1799 8.96086 11.3906 8.58579 11.7657C8.21071 12.1408 8 12.6495 8 13.1799V19.1799H9.28Z" fill="white"/>
<path d="M8 22.1797V35.1797C8 35.7101 8.21071 36.2188 8.58579 36.5939C8.96086 36.969 9.46957 37.1797 10 37.1797H42C42.5304 37.1797 43.0391 36.969 43.4142 36.5939C43.7893 36.2188 44 35.7101 44 35.1797V22.1797H8Z" fill="white"/>
</svg>
