<svg width="50" height="50" viewBox="0 0 50 50" fill="none" xmlns="http://www.w3.org/2000/svg">
<path d="M41 16H34V9C34 8.73478 33.8946 8.48043 33.7071 8.29289C33.5196 8.10536 33.2652 8 33 8H9C8.73478 8 8.48043 8.10536 8.29289 8.29289C8.10536 8.48043 8 8.73478 8 9V33C8 33.2652 8.10536 33.5196 8.29289 33.7071C8.48043 33.8946 8.73478 34 9 34H16V41C16 41.2652 16.1054 41.5196 16.2929 41.7071C16.4804 41.8946 16.7348 42 17 42H41C41.2652 42 41.5196 41.8946 41.7071 41.7071C41.8946 41.5196 42 41.2652 42 41V17C42 16.7348 41.8946 16.4804 41.7071 16.2929C41.5196 16.1054 41.2652 16 41 16ZM11 11H31V31H11V11ZM39 39H19V34H33C33.2652 34 33.5196 33.8946 33.7071 33.7071C33.8946 33.5196 34 33.2652 34 33V19H39V39Z" fill="#9BADBE" fill-opacity="0.5"/>
</svg>
