<svg width="50" height="50" viewBox="0 0 50 50" fill="none" xmlns="http://www.w3.org/2000/svg">
<path d="M41 19.34C41.2652 19.34 41.5196 19.4454 41.7071 19.6329C41.8946 19.8204 42 20.0748 42 20.34V41C42 41.2652 41.8946 41.5196 41.7071 41.7071C41.5196 41.8946 41.2652 42 41 42H20.34C20.0748 42 19.8204 41.8946 19.6329 41.7071C19.4454 41.5196 19.34 41.2652 19.34 41V33.5H32.5C32.7652 33.5 33.0196 33.3946 33.2071 33.2071C33.3946 33.0196 33.5 32.7652 33.5 32.5V19.34H41ZM8 9V29.66C8 29.9252 8.10536 30.1796 8.29289 30.3671C8.48043 30.5546 8.73478 30.66 9 30.66H29.66C29.9252 30.66 30.1796 30.5546 30.3671 30.3671C30.5546 30.1796 30.66 29.9252 30.66 29.66V9C30.66 8.73478 30.5546 8.48043 30.3671 8.29289C30.1796 8.10536 29.9252 8 29.66 8H9C8.73478 8 8.48043 8.10536 8.29289 8.29289C8.10536 8.48043 8 8.73478 8 9Z" fill="white"/>
</svg>
