<svg width="46" height="50" viewBox="0 0 46 50" fill="none" xmlns="http://www.w3.org/2000/svg">
<path d="M4.45667 1.06542L26.5567 23.1654C26.8004 23.4071 26.9938 23.6947 27.1258 24.0115C27.2578 24.3284 27.3257 24.6682 27.3257 25.0114C27.3257 25.3547 27.2578 25.6945 27.1258 26.0113C26.9938 26.3282 26.8004 26.6157 26.5567 26.8574L4.45667 48.9574C3.96708 49.447 3.30305 49.7221 2.61067 49.7221C1.91829 49.7221 1.25426 49.447 0.764673 48.9574C0.275084 48.4678 3.24249e-05 47.8038 3.24249e-05 47.1114C3.24249e-05 46.419 0.275084 45.755 0.764673 45.2654L21.0447 25.0114L0.764673 4.75742C0.522253 4.515 0.32995 4.22721 0.198753 3.91047C0.0675564 3.59373 3.24249e-05 3.25425 3.24249e-05 2.91142C3.24249e-05 2.56859 0.0675564 2.22911 0.198753 1.91237C0.32995 1.59563 0.522253 1.30784 0.764673 1.06542C1.00709 0.823 1.29489 0.630701 1.61162 0.499504C1.92836 0.368308 2.26784 0.300781 2.61067 0.300781C2.9535 0.300781 3.29298 0.368308 3.60972 0.499504C3.92645 0.630701 4.21425 0.823 4.45667 1.06542Z" fill="white"/>
<path d="M42.7501 50C42.0207 50 41.3212 49.6901 40.8055 49.1385C40.2898 48.587 40.0001 47.8389 40.0001 47.0588V2.94118C40.0001 2.16113 40.2898 1.41303 40.8055 0.861451C41.3212 0.309874 42.0207 0 42.7501 0C43.4794 0 44.1789 0.309874 44.6946 0.861451C45.2103 1.41303 45.5001 2.16113 45.5001 2.94118V47.0588C45.5001 47.8389 45.2103 48.587 44.6946 49.1385C44.1789 49.6901 43.4794 50 42.7501 50Z" fill="white"/>
</svg>
