<svg width="46" height="50" viewBox="0 0 46 50" fill="none" xmlns="http://www.w3.org/2000/svg">
<path d="M41.5435 1.06542L19.4435 23.1654C19.1998 23.4071 19.0063 23.6947 18.8743 24.0115C18.7423 24.3284 18.6744 24.6682 18.6744 25.0114C18.6744 25.3547 18.7423 25.6945 18.8743 26.0113C19.0063 26.3282 19.1998 26.6157 19.4435 26.8574L41.5435 48.9574C42.033 49.447 42.6971 49.7221 43.3895 49.7221C44.0818 49.7221 44.7459 49.447 45.2354 48.9574C45.725 48.4678 46.0001 47.8038 46.0001 47.1114C46.0001 46.419 45.725 45.755 45.2354 45.2654L24.9555 25.0114L45.2354 4.75742C45.4779 4.515 45.6702 4.22721 45.8014 3.91047C45.9326 3.59373 46.0001 3.25425 46.0001 2.91142C46.0001 2.56859 45.9326 2.22911 45.8014 1.91237C45.6702 1.59563 45.4779 1.30784 45.2354 1.06542C44.993 0.823 44.7052 0.630701 44.3885 0.499504C44.0718 0.368308 43.7323 0.300781 43.3895 0.300781C43.0466 0.300781 42.7071 0.368308 42.3904 0.499504C42.0737 0.630701 41.7859 0.823 41.5435 1.06542Z" fill="white"/>
<path d="M3.25006 50C3.97941 50 4.67888 49.6901 5.19461 49.1385C5.71033 48.587 6.00006 47.8389 6.00006 47.0588V2.94118C6.00006 2.16113 5.71033 1.41303 5.19461 0.861451C4.67888 0.309874 3.97941 0 3.25006 0C2.52072 0 1.82124 0.309874 1.30552 0.861451C0.78979 1.41303 0.500061 2.16113 0.500061 2.94118V47.0588C0.500061 47.8389 0.78979 48.587 1.30552 49.1385C1.82124 49.6901 2.52072 50 3.25006 50Z" fill="white"/>
</svg>
