<svg width="50" height="50" viewBox="0 0 50 50" fill="none" xmlns="http://www.w3.org/2000/svg">
<path d="M43.0601 38.9384L34.6201 30.4984C37.0519 27.5226 38.2471 23.7261 37.9585 19.8939C37.6698 16.0618 35.9194 12.4871 33.0693 9.90924C30.2191 7.33137 26.4872 5.94748 22.6454 6.04377C18.8036 6.14007 15.1457 7.70918 12.4283 10.4266C9.71089 13.144 8.14177 16.8019 8.04548 20.6437C7.94918 24.4855 9.33308 28.2174 11.911 31.0676C14.4888 33.9177 18.0635 35.6681 21.8957 35.9567C25.7278 36.2454 29.5243 35.0502 32.5001 32.6184L40.9401 41.0584C41.2213 41.3393 41.6026 41.497 42.0001 41.497C42.3976 41.497 42.7788 41.3393 43.0601 41.0584C43.341 40.7771 43.4987 40.3959 43.4987 39.9984C43.4987 39.6008 43.341 39.2196 43.0601 38.9384ZM23.0601 32.9384C20.6867 32.9384 18.3666 32.2346 16.3932 30.916C14.4198 29.5974 12.8818 27.7233 11.9735 25.5306C11.0653 23.3378 10.8276 20.925 11.2906 18.5973C11.7537 16.2695 12.8966 14.1313 14.5748 12.4531C16.253 10.7748 18.3912 9.63196 20.719 9.16893C23.0468 8.70591 25.4596 8.94355 27.6523 9.8518C29.845 10.7601 31.7191 12.2981 33.0377 14.2715C34.3563 16.2449 35.0601 18.565 35.0601 20.9384C35.068 22.5243 34.7615 24.0961 34.1582 25.5629C33.555 27.0297 32.667 28.3623 31.5455 29.4838C30.424 30.6052 29.0914 31.4933 27.6246 32.0965C26.1578 32.6998 24.586 33.0063 23.0001 32.9984L23.0601 32.9384Z" fill="#9BADBE" fill-opacity="0.5"/>
</svg>
