<svg width="67" height="67" viewBox="0 0 67 67" fill="none" xmlns="http://www.w3.org/2000/svg">
<path fill-rule="evenodd" clip-rule="evenodd" d="M0.000426826 26.9031C0.0660304 41.8266 12.154 53.9139 27.0985 53.9998C32.5105 54.0222 37.7592 52.4088 42.1822 49.4322L58.1961 65.4165C59.4755 66.7587 61.3818 67.302 63.1766 66.8359C64.9713 66.3697 66.3724 64.9674 66.837 63.1722C67.3016 61.377 66.7566 59.471 65.4133 58.1927L49.4273 42.1966C52.4147 37.7691 54.0302 32.5136 53.9996 27.0969C53.934 12.1734 41.846 0.086078 26.9015 0.00023113C19.7509 -0.0294296 12.8851 2.79674 7.83258 7.84962C2.78006 12.9025 -0.0399088 19.7627 0.000426826 26.9031ZM9.00028 26.9354C9.04402 36.8844 17.1027 44.9426 27.0657 44.9998C31.8328 45.0196 36.4099 43.1355 39.7783 39.7669C43.1466 36.3983 45.0266 31.8249 44.9997 27.0646C44.956 17.1156 36.8973 9.05739 26.9343 9.00015C22.1672 8.98038 17.5901 10.8645 14.2217 14.2331C10.8534 17.6017 8.97339 22.1751 9.00028 26.9354Z" fill="white" fill-opacity="0.3"/>
</svg>
