<svg width="50" height="50" viewBox="0 0 50 50" fill="none" xmlns="http://www.w3.org/2000/svg">
<path d="M43.08 41.04L36 34C35.3833 34.7148 34.7148 35.3833 34 36L41.08 43.1C41.352 43.368 41.7182 43.5188 42.1 43.52C42.2894 43.5216 42.4773 43.4852 42.6524 43.4131C42.8276 43.341 42.9866 43.2345 43.12 43.1C43.2547 42.9632 43.3607 42.8009 43.4318 42.6226C43.5028 42.4442 43.5375 42.2535 43.5338 42.0616C43.5301 41.8696 43.488 41.6804 43.4101 41.505C43.3321 41.3295 43.2199 41.1714 43.08 41.04Z" fill="white"/>
<path d="M22.9999 36.5984C30.511 36.5984 36.5999 30.5095 36.5999 22.9984C36.5999 15.4874 30.511 9.39844 22.9999 9.39844C15.4888 9.39844 9.3999 15.4874 9.3999 22.9984C9.3999 30.5095 15.4888 36.5984 22.9999 36.5984Z" fill="white"/>
</svg>
