<svg width="50" height="50" viewBox="0 0 50 50" fill="none" xmlns="http://www.w3.org/2000/svg">
<path d="M37.7 25.0001L40.42 21.2001C40.6026 20.946 40.7231 20.6525 40.7718 20.3434C40.8204 20.0342 40.7958 19.718 40.7 19.4201C40.0183 17.438 38.9739 15.6001 37.62 14.0001C37.4307 13.7904 37.1992 13.6231 36.9407 13.5094C36.6821 13.3956 36.4024 13.3379 36.12 13.3401H35.88L31.34 13.8601L29.5 9.56006C29.3762 9.24275 29.1735 8.9623 28.911 8.7453C28.6485 8.52829 28.3349 8.38192 28 8.32005C25.9688 7.89332 23.8711 7.89332 21.84 8.32005C21.5279 8.38616 21.2362 8.52595 20.9892 8.72774C20.7422 8.92953 20.547 9.18748 20.42 9.48005L18.66 13.7801L13.6 13.2001H13.48C13.3367 13.2013 13.1952 13.2322 13.0645 13.2907C12.9337 13.3492 12.8164 13.4341 12.72 13.5401C11.1946 15.249 10.0312 17.2492 9.29997 19.4201C9.20412 19.718 9.17952 20.0342 9.22815 20.3434C9.27678 20.6525 9.39728 20.946 9.57997 21.2001L12.3 25.0001L9.57997 28.8001C9.39728 29.0542 9.27678 29.3476 9.22815 29.6567C9.17952 29.9659 9.20412 30.2821 9.29997 30.5801C9.98165 32.5621 11.0261 34.4 12.38 36.0001C12.5692 36.2098 12.8007 36.377 13.0593 36.4907C13.3178 36.6045 13.5975 36.6622 13.88 36.6601H14.12L18.66 36.1401L20.5 40.4401C20.6244 40.7364 20.8185 40.9983 21.0657 41.2037C21.3128 41.4091 21.6059 41.5519 21.92 41.6201C22.9332 41.8387 23.964 41.9659 25 42.0001C26.0068 41.9875 27.0106 41.8872 28 41.7001C28.3141 41.6319 28.6071 41.4891 28.8543 41.2837C29.1015 41.0783 29.2955 40.8164 29.42 40.5201L31.26 36.2201L35.8 36.7401H36.04C36.3224 36.7422 36.6021 36.6845 36.8607 36.5707C37.1192 36.457 37.3507 36.2898 37.54 36.0801C38.9025 34.4561 39.9473 32.5903 40.62 30.5801C40.7158 30.2821 40.7404 29.9659 40.6918 29.6567C40.6431 29.3476 40.5226 29.0542 40.34 28.8001L37.7 25.0001ZM34.42 25.5801L37.68 30.1401C37.1888 31.4171 36.5151 32.6163 35.68 33.7001L30.2 33.0801C29.9882 33.0585 29.7751 33.1051 29.5917 33.213C29.4082 33.3209 29.264 33.4845 29.18 33.6801L26.94 38.8401C25.6554 39.0534 24.3445 39.0534 23.06 38.8401L20.82 33.6801C20.7359 33.4845 20.5917 33.3209 20.4082 33.213C20.2248 33.1051 20.0117 33.0585 19.8 33.0801L14.32 33.7001C13.4848 32.6163 12.8111 31.4171 12.32 30.1401L15.58 25.5801C15.7065 25.4132 15.775 25.2095 15.775 25.0001C15.775 24.7906 15.7065 24.5869 15.58 24.4201L12.32 19.8601C12.8111 18.583 13.4848 17.3839 14.32 16.3001L19.8 16.9201C20.0117 16.9416 20.2248 16.895 20.4082 16.7871C20.5917 16.6792 20.7359 16.5156 20.82 16.3201L23.06 11.1601C24.3445 10.9467 25.6554 10.9467 26.94 11.1601L29.18 16.3201C29.264 16.5156 29.4082 16.6792 29.5917 16.7871C29.7751 16.895 29.9882 16.9416 30.2 16.9201L35.68 16.3001C36.5151 17.3839 37.1888 18.583 37.68 19.8601L34.42 24.4201C34.2934 24.5869 34.2249 24.7906 34.2249 25.0001C34.2249 25.2095 34.2934 25.4132 34.42 25.5801Z" fill="#9BADBE" fill-opacity="0.5"/>
<path d="M25 18C23.6155 18 22.2622 18.4105 21.111 19.1797C19.9599 19.9489 19.0627 21.0421 18.5328 22.3212C18.003 23.6003 17.8644 25.0078 18.1345 26.3656C18.4046 27.7235 19.0713 28.9708 20.0503 29.9497C21.0292 30.9287 22.2765 31.5954 23.6344 31.8655C24.9922 32.1356 26.3997 31.997 27.6788 31.4672C28.9579 30.9373 30.0511 30.0401 30.8203 28.889C31.5895 27.7378 32 26.3845 32 25C32 23.1435 31.2625 21.363 29.9497 20.0503C28.637 18.7375 26.8565 18 25 18ZM25 29C24.2089 29 23.4355 28.7654 22.7777 28.3259C22.1199 27.8864 21.6072 27.2616 21.3045 26.5307C21.0017 25.7998 20.9225 24.9956 21.0769 24.2196C21.2312 23.4437 21.6122 22.731 22.1716 22.1716C22.731 21.6122 23.4437 21.2312 24.2196 21.0769C24.9956 20.9225 25.7998 21.0017 26.5307 21.3045C27.2616 21.6072 27.8864 22.1199 28.3259 22.7777C28.7654 23.4355 29 24.2089 29 25C29 26.0609 28.5786 27.0783 27.8284 27.8284C27.0783 28.5786 26.0609 29 25 29Z" fill="#9BADBE" fill-opacity="0.5"/>
</svg>
