<svg width="50" height="50" viewBox="0 0 50 50" fill="none" xmlns="http://www.w3.org/2000/svg">
<path d="M37.7 25.0001L40.42 21.2001C40.6026 20.946 40.7231 20.6525 40.7718 20.3434C40.8204 20.0342 40.7958 19.718 40.7 19.4201C40.0183 17.438 38.9739 15.6001 37.62 14.0001C37.4051 13.7573 37.1345 13.5703 36.8314 13.4553C36.5283 13.3404 36.2018 13.3008 35.88 13.3401L31.34 13.8601L29.5 9.56006C29.3762 9.24275 29.1735 8.9623 28.911 8.7453C28.6485 8.52829 28.3349 8.38192 28 8.32005C25.9688 7.89332 23.8711 7.89332 21.84 8.32005C21.5279 8.38616 21.2362 8.52595 20.9892 8.72774C20.7422 8.92953 20.547 9.18748 20.42 9.48005L18.66 13.7801L13.6 13.2001C13.4374 13.1893 13.2744 13.2142 13.1224 13.2729C12.9704 13.3316 12.8331 13.4228 12.72 13.5401C11.1946 15.249 10.0312 17.2492 9.29997 19.4201C9.20412 19.718 9.17952 20.0342 9.22815 20.3434C9.27678 20.6525 9.39728 20.946 9.57997 21.2001L12.3 25.0001L9.57997 28.8001C9.39728 29.0542 9.27678 29.3476 9.22815 29.6567C9.17952 29.9659 9.20412 30.2821 9.29997 30.5801C9.98165 32.5621 11.0261 34.4 12.38 36.0001C12.5948 36.2429 12.8654 36.4298 13.1685 36.5448C13.4716 36.6597 13.7982 36.6993 14.12 36.6601L18.66 36.1401L20.5 40.4401C20.6244 40.7364 20.8185 40.9983 21.0657 41.2037C21.3128 41.4091 21.6059 41.5519 21.92 41.6201C22.9332 41.8387 23.964 41.9659 25 42.0001C26.0068 41.9875 27.0106 41.8872 28 41.7001C28.3141 41.6319 28.6071 41.4891 28.8543 41.2837C29.1015 41.0783 29.2955 40.8164 29.42 40.5201L31.26 36.2201L35.8 36.7401C36.1218 36.7793 36.4483 36.7397 36.7514 36.6248C37.0545 36.5098 37.3251 36.3229 37.54 36.0801C38.9025 34.4561 39.9473 32.5903 40.62 30.5801C40.7158 30.2821 40.7404 29.9659 40.6918 29.6567C40.6431 29.3476 40.5226 29.0542 40.34 28.8001L37.7 25.0001ZM25 32.0001C23.6155 32.0001 22.2621 31.5895 21.111 30.8203C19.9598 30.0512 19.0626 28.9579 18.5328 27.6788C18.003 26.3998 17.8644 24.9923 18.1345 23.6344C18.4046 22.2766 19.0713 21.0293 20.0502 20.0503C21.0292 19.0713 22.2765 18.4047 23.6343 18.1346C24.9922 17.8645 26.3997 18.0031 27.6787 18.5329C28.9578 19.0627 30.0511 19.9599 30.8203 21.1111C31.5894 22.2622 32 23.6156 32 25.0001C32 26.8566 31.2625 28.637 29.9497 29.9498C28.637 31.2626 26.8565 32.0001 25 32.0001Z" fill="white"/>
<path d="M25 29C27.2091 29 29 27.2091 29 25C29 22.7909 27.2091 21 25 21C22.7909 21 21 22.7909 21 25C21 27.2091 22.7909 29 25 29Z" fill="white"/>
</svg>
