<svg width="50" height="50" viewBox="0 0 50 50" fill="none" xmlns="http://www.w3.org/2000/svg">
<path d="M21.76 39.8221C21.5007 39.8172 21.2465 39.7485 21.02 39.6221C20.7886 39.4933 20.596 39.3047 20.4623 39.076C20.3287 38.8474 20.2588 38.587 20.26 38.3221V11.6821C20.2623 11.419 20.3338 11.161 20.4674 10.9343C20.6009 10.7075 20.7917 10.5198 21.0207 10.3901C21.2497 10.2604 21.5088 10.1933 21.772 10.1954C22.0352 10.1975 22.2931 10.2688 22.52 10.4021L44.78 23.7221C44.9993 23.8561 45.1805 24.0442 45.3062 24.2683C45.432 24.4925 45.498 24.7451 45.498 25.0021C45.498 25.2591 45.432 25.5118 45.3062 25.7359C45.1805 25.9601 44.9993 26.1482 44.78 26.2821L22.52 39.6021C22.2906 39.7413 22.0283 39.8172 21.76 39.8221ZM23.26 14.3421V35.6621L41.08 25.0021L23.26 14.3421Z" fill="#9BADBE"/>
<path d="M16 26.5H6C5.60218 26.5 5.22064 26.342 4.93934 26.0607C4.65804 25.7794 4.5 25.3978 4.5 25C4.5 24.6022 4.65804 24.2206 4.93934 23.9393C5.22064 23.658 5.60218 23.5 6 23.5H16C16.3978 23.5 16.7794 23.658 17.0607 23.9393C17.342 24.2206 17.5 24.6022 17.5 25C17.5 25.3978 17.342 25.7794 17.0607 26.0607C16.7794 26.342 16.3978 26.5 16 26.5Z" fill="#9BADBE"/>
<path d="M16 19.5H10C9.60218 19.5 9.22064 19.342 8.93934 19.0607C8.65804 18.7794 8.5 18.3978 8.5 18C8.5 17.6022 8.65804 17.2206 8.93934 16.9393C9.22064 16.658 9.60218 16.5 10 16.5H16C16.3978 16.5 16.7794 16.658 17.0607 16.9393C17.342 17.2206 17.5 17.6022 17.5 18C17.5 18.3978 17.342 18.7794 17.0607 19.0607C16.7794 19.342 16.3978 19.5 16 19.5Z" fill="#9BADBE"/>
<path d="M16 33.5H10C9.60218 33.5 9.22064 33.342 8.93934 33.0607C8.65804 32.7794 8.5 32.3978 8.5 32C8.5 31.6022 8.65804 31.2206 8.93934 30.9393C9.22064 30.658 9.60218 30.5 10 30.5H16C16.3978 30.5 16.7794 30.658 17.0607 30.9393C17.342 31.2206 17.5 31.6022 17.5 32C17.5 32.3978 17.342 32.7794 17.0607 33.0607C16.7794 33.342 16.3978 33.5 16 33.5Z" fill="#9BADBE"/>
</svg>
