<svg width="78" height="75" viewBox="0 0 78 75" fill="none" xmlns="http://www.w3.org/2000/svg">
<path d="M22.3477 74.8516C24.3516 74.8516 25.8281 73.8672 28.2539 71.7227L40.3125 61.1055H61.4766C72.0586 61.1055 78 54.9883 78 44.5469V17.2305C78 6.78906 72.0586 0.671875 61.4766 0.671875H16.6523C6.10547 0.671875 0.128906 6.78906 0.128906 17.2305V44.5469C0.128906 55.0234 6.28125 61.1055 16.4062 61.1055H17.8477V69.7188C17.8477 72.8477 19.5 74.8516 22.3477 74.8516ZM24.1055 66.9766V56.957C24.1055 54.8828 23.1914 54.0742 21.2227 54.0742H16.8984C10.2891 54.0742 7.125 50.7344 7.125 44.3359V17.4414C7.125 11.043 10.2891 7.70312 16.8984 7.70312H61.2656C67.8398 7.70312 71.0039 11.043 71.0039 17.4414V44.3359C71.0039 50.7344 67.8398 54.0742 61.2656 54.0742H39.9258C37.7812 54.0742 36.7266 54.4258 35.25 55.9727L24.1055 66.9766ZM17.1797 35.0547H30.6797C31.9453 35.0547 32.9297 34 32.9297 32.7344C32.9297 31.5039 31.9453 30.4492 30.6797 30.4492H17.1797C15.9492 30.4492 14.9648 31.5039 14.9648 32.7344C14.9648 34 15.9492 35.0547 17.1797 35.0547ZM38.0625 35.0547H60.9844C62.25 35.0547 63.2344 34 63.2344 32.7344C63.2344 31.5039 62.25 30.4492 60.9844 30.4492H38.0625C36.7969 30.4492 35.8125 31.5039 35.8125 32.7344C35.8125 34 36.832 35.0547 38.0625 35.0547ZM17.1797 44.3008H22.9102C24.1758 44.3008 25.1953 43.2461 25.1953 42.0156C25.1953 40.7148 24.1758 39.6953 22.9102 39.6953H17.1797C15.9492 39.6953 14.9648 40.75 14.9648 42.0156C14.9648 43.2461 15.9492 44.3008 17.1797 44.3008ZM30.293 44.3008H47.0977C48.3633 44.3008 49.3828 43.2461 49.3828 42.0156C49.3828 40.7148 48.3633 39.6953 47.0977 39.6953H30.293C29.0625 39.6953 28.043 40.75 28.043 42.0156C28.043 43.2461 29.0625 44.3008 30.293 44.3008ZM54.4805 44.3008H60.9844C62.2148 44.3008 63.2344 43.2461 63.2344 42.0156C63.2344 40.7148 62.2148 39.6953 60.9844 39.6953H54.4805C53.25 39.6953 52.2305 40.75 52.2305 42.0156C52.2305 43.2461 53.25 44.3008 54.4805 44.3008Z" fill="white"/>
</svg>
