<svg width="50" height="50" viewBox="0 0 50 50" fill="none" xmlns="http://www.w3.org/2000/svg">
<path d="M41 17.9989H27.46L34.6 11.0789C34.8048 10.7979 34.9056 10.4546 34.8853 10.1076C34.8649 9.7605 34.7247 9.43129 34.4885 9.1762C34.2523 8.92112 33.9348 8.75599 33.5904 8.70905C33.2459 8.66211 32.8958 8.73628 32.6 8.91887L25 16.1989L17.48 8.91887C17.1842 8.73628 16.8341 8.66211 16.4896 8.70905C16.1452 8.75599 15.8277 8.92112 15.5915 9.1762C15.3553 9.43129 15.2151 9.7605 15.1947 10.1076C15.1744 10.4546 15.2752 10.7979 15.48 11.0789L22.54 17.9989H9C8.46957 17.9989 7.96086 18.2096 7.58579 18.5847C7.21071 18.9597 7 19.4684 7 19.9989V37.9989C7 38.5293 7.21071 39.038 7.58579 39.4131C7.96086 39.7882 8.46957 39.9989 9 39.9989H41C41.5304 39.9989 42.0391 39.7882 42.4142 39.4131C42.7893 39.038 43 38.5293 43 37.9989V19.9989C43 19.4684 42.7893 18.9597 42.4142 18.5847C42.0391 18.2096 41.5304 17.9989 41 17.9989ZM40 36.9989H10V20.9989H40V36.9989Z" fill="#9BADBE" fill-opacity="0.5"/>
</svg>
