<svg width="24" height="24" viewBox="0 0 24 24" fill="none" xmlns="http://www.w3.org/2000/svg">
<path d="M5.55 6C4.69 6 4 6.72003 4 7.59003V15.65C4 16.52 4.69 17.25 5.55 17.25H18.36C19.22 17.25 19.91 16.52 19.91 15.65V7.59003C19.91 6.72003 19.22 6 18.36 6H5.55ZM5.55 6.78003H18.36C18.47 6.78003 18.58 6.80999 18.68 6.85999L12.43 12.79C12.14 13.06 11.77 13.06 11.48 12.79L5.22 6.85999C5.33 6.80999 5.44 6.78003 5.55 6.78003ZM4.79 7.51001L9.21 11.7L4.86 16.04C4.81 15.93 4.78 15.8 4.78 15.66V7.60004C4.78 7.57004 4.79 7.54001 4.79 7.51001ZM19.12 7.51001C19.12 7.54001 19.13 7.57004 19.13 7.60004V15.66C19.13 15.8 19.1 15.92 19.05 16.04L14.71 11.7L19.12 7.51001ZM14.15 12.23L18.39 16.48C18.38 16.48 18.37 16.48 18.35 16.48H5.55C5.54 16.48 5.53 16.48 5.52 16.48L9.77 12.24L10.95 13.36C11.51 13.89 12.4 13.89 12.96 13.36L14.15 12.23Z" fill="white"/>
</svg>
